<?xml version="1.0" encoding="UTF-8"?>
<svg id="Laag_1" xmlns="http://www.w3.org/2000/svg" version="1.1" viewBox="0 0 375.6 837.91">
  <!-- Generator: Adobe Illustrator 29.8.3, SVG Export Plug-In . SVG Version: 2.1.1 Build 3)  -->
  <defs>
    <style>
      .st0 {
        fill: #fff;
      }

      .st1 {
        fill: #bf2a1d;
      }
    </style>
  </defs>
  <g>
    <path class="st1" d="M189.32,90.26l2.96,51.87L7.11,129.22,4.69,17.97,186.9,6.41l-2.15,55.09-137.59,2.69-5.37,25.8,147.54.27Z"/>
    <path class="st1" d="M113.26,202.32c-5.37,40.49-9.14,61.81-11.29,63.96-1.79,1.79-16.66,3-44.61,3.63-27.95.63-44.17-.31-48.64-2.82-3.58-3.05-4.79-20.2-3.63-51.46,1.16-31.27,2.42-64.7,5.29-71.87.54-1.26,10.97-2.52,30.38-.77,13.7,1.24,23.98,1.73,30.25,4.17.54.18.54,3,0,8.47-.54,5.46-.84,16.06-1.56,21.43l-1.07,8.06-19.62,2.69-10.21,31.17,42.19-6.45c3.4-36.73,6.36-55.72,8.87-56.97,1.97-1.08,11.02-1.79,27.14-2.15,16.12-.36,32.2-.13,48.24.67,16.03.81,24.77,2.28,26.2,4.43,1.97,3.94,2.24,20.51.81,49.72-1.44,29.2-3.23,47.21-5.37,54.02-.72,2.33-5.69,4.39-14.92,6.18-9.23,1.79-18.32,2.96-27.28,3.49l-24.24,1.31,6.14-37.9,38.26.85-4.03-28.49-47.3-5.37Z"/>
  </g>
  <g>
    <path class="st0" d="M362.57,181.34l-144.04-57.61v33.38l28.09,10.63v60.72l-28.09,10.64v33.78l144.04-57.61v-33.93ZM275.49,217.28v-38.54l28.45,10.9c8.02,3.16,16.83,6.62,21.39,8.45-1.81.72-4.2,1.67-6.67,2.64-4.31,1.7-9.55,3.77-14.71,5.83l-28.45,10.72Z"/>
    <path class="st0" d="M260.66,394.02c19.41,0,30.61-12.43,35.14-25.2,3.92,7.49,13.08,16.97,29.07,16.97,10.25,0,19.72-4.38,26.68-12.32,7.11-8.12,11.03-19.49,11.03-32v-58.98h-144.04v60.18c0,16.19,4.24,29.52,12.27,38.54,7.46,8.38,17.79,12.81,29.86,12.81ZM335.71,313.96v22.08c0,10.98-5.91,18.07-15.06,18.07s-15.06-6.69-15.06-17.47v-22.68h30.12ZM280.94,313.96v26.3c0,12.68-7.09,20.88-18.07,20.88s-17.47-7.61-17.47-20.88v-26.3h35.54Z"/>
    <path class="st0" d="M290.55,551.33c21.29,0,40.49-7.63,54.05-21.48,13.4-13.69,20.78-32.85,20.78-53.95s-7.38-40.26-20.78-53.95c-13.56-13.85-32.76-21.48-54.05-21.48s-40.34,7.63-53.88,21.48c-13.38,13.7-20.75,32.86-20.75,53.95s7.37,40.25,20.75,53.95c13.54,13.85,32.67,21.48,53.88,21.48ZM257.87,444.68c8.13-8.2,19.43-12.54,32.68-12.54s24.71,4.33,32.86,12.54c7.8,7.85,12.09,18.93,12.09,31.22s-4.3,23.37-12.09,31.21c-8.15,8.2-19.52,12.54-32.86,12.54s-24.66-4.33-32.76-12.53c-7.74-7.83-12-18.92-12-31.22s4.29-23.36,12.07-31.22Z"/>
    <path class="st0" d="M232.89,581.44c-11.09,10.58-16.96,26.12-16.96,44.94s5.86,34.11,16.96,44.69c11.32,10.79,28.14,16.5,48.64,16.5h81.05v-31.28h-80.25c-24.92,0-36.53-9.44-36.53-29.71s11.61-29.71,36.53-29.71h80.25v-31.88h-81.05c-20.83,0-37.19,5.53-48.64,16.45Z"/>
    <polygon class="st0" points="333.1 744.77 218.54 744.77 218.54 776.25 333.1 776.25 333.1 820.99 362.57 820.99 362.57 700.03 333.1 700.03 333.1 744.77"/>
  </g>
</svg>