<?xml version="1.0" encoding="UTF-8"?>
<svg id="Laag_1" xmlns="http://www.w3.org/2000/svg" version="1.1" viewBox="0 0 730.96 170">
  <!-- Generator: Adobe Illustrator 29.8.3, SVG Export Plug-In . SVG Version: 2.1.1 Build 3)  -->
  <defs>
    <style>
      .st0 {
        fill: #fff;
        stroke: #fff;
        stroke-miterlimit: 10;
      }
    </style>
  </defs>
  <path class="st0" d="M100.73,90.97c2.59,6.2,3.13,17.12,1.62,32.75-1.51,15.64-3.71,24.75-6.6,27.35-4.04,3.75-12.68,6.31-25.94,7.68-13.26,1.37-25.44,1.76-36.54,1.19l-16.65-.65L8.85,15.31c2.02-.43,4.65-.94,7.89-1.51,3.24-.57,9.22-1.44,17.94-2.59,8.72-1.15,16.61-1.98,23.67-2.49,7.06-.5,13.91-.54,20.54-.11,6.63.43,10.88,1.66,12.76,3.67,3.46,3.46,5.76,13.12,6.92,28.97,1.15,15.86.5,25.87-1.94,30.05-.58.87-1.62,1.66-3.13,2.38-1.51.72-3.32,1.23-5.41,1.51-2.09.29-3.93.51-5.51.65-1.59.15-3.32.25-5.19.33-1.87.07-2.88.18-3.03.32-.15-.14-.21-.14-.21,0h.21c2.88.15,7.6,1.66,14.16,4.54,6.56,2.88,10.63,6.2,12.22,9.94ZM44.3,32.6l.21,33.08c8.79-1.15,13.98-2.73,15.57-4.76,1.01-1.44,1.51-6.23,1.51-14.38s-.65-12.72-1.94-13.73c-.72-.58-2.38-.9-4.97-.97-2.59-.07-4.97.04-7.13.33l-3.24.43ZM65.49,130.54c1.01-1.44,1.26-7.92.76-19.46-.51-11.53-1.62-17.73-3.35-18.59-.72-.29-1.8-.43-3.24-.43s-3.03.15-4.76.43c-1.73.29-3.32.58-4.76.86-1.44.29-2.67.51-3.67.65l-1.51.43,1.51,39.78c11.82-.43,18.16-1.65,19.02-3.67Z"/>
  <path class="st0" d="M205.79,23.31c2.88,5.05,4.36,16.97,4.43,35.78.07,18.81-.79,37.37-2.6,55.67-1.8,18.31-3.64,30.27-5.51,35.89-1.44,3.75-6.67,6.45-15.67,8.11-9.01,1.65-18.7,2.12-29.08,1.4-10.38-.72-20.07-2.59-29.08-5.62-9.01-3.03-14.16-6.7-15.46-11.02-2.02-7.21-3.24-19.74-3.68-37.62-.43-17.87.29-35.81,2.16-53.83,1.87-18.01,4.54-29.98,8-35.89,2.74-4.76,10.45-7.78,23.13-9.08,12.68-1.3,25.54-.46,38.59,2.49,13.04,2.96,21.3,7.53,24.75,13.73ZM171.42,112.59c1.58-4.47,2.67-13.98,3.24-28.54.57-14.56.21-24.28-1.08-29.19-.72-2.45-2.6-4.11-5.62-4.97-3.03-.86-6.02-.9-8.97-.11-2.96.79-4.79,2.13-5.51,4-1.59,4.76-2.67,14.88-3.24,30.37-.58,15.5-.07,25.69,1.51,30.59,1.3,3.32,4.57,4.65,9.84,4,5.26-.65,8.54-2.7,9.84-6.16Z"/>
  <path class="st0" d="M313.67,23.31c2.88,5.05,4.36,16.97,4.43,35.78.07,18.81-.79,37.37-2.6,55.67-1.8,18.31-3.64,30.27-5.51,35.89-1.44,3.75-6.67,6.45-15.67,8.11-9.01,1.65-18.7,2.12-29.08,1.4-10.38-.72-20.07-2.59-29.08-5.62-9.01-3.03-14.16-6.7-15.46-11.02-2.02-7.21-3.24-19.74-3.68-37.62-.43-17.87.29-35.81,2.16-53.83,1.87-18.01,4.54-29.98,8-35.89,2.74-4.76,10.45-7.78,23.13-9.08,12.68-1.3,25.54-.46,38.59,2.49,13.04,2.96,21.3,7.53,24.75,13.73ZM279.29,112.59c1.58-4.47,2.67-13.98,3.24-28.54.57-14.56.21-24.28-1.08-29.19-.72-2.45-2.6-4.11-5.62-4.97-3.03-.86-6.02-.9-8.97-.11-2.96.79-4.79,2.13-5.51,4-1.59,4.76-2.67,14.88-3.24,30.37-.58,15.5-.07,25.69,1.51,30.59,1.3,3.32,4.57,4.65,9.84,4,5.26-.65,8.54-2.7,9.84-6.16Z"/>
  <path class="st0" d="M438.41,22.87l-44.32,62.05,40.86,53.4-36.97,20.97-28.54-54.48,3.03,52.75-41.94,2.59-5.84-148.74,46.7-.87-5.84,63.99,36.32-62.69,36.54,11.02Z"/>
  <path class="st0" d="M440.14,10.34l50.8,4.33-3.46,142.04-43.67,1.51-3.67-147.87Z"/>
  <path class="st0" d="M565.09,11.2l39.99,2.16-.87,143.33-36.97,1.51-32.64-63.34,4.54,64.64-36.54-6.92-3.89-143.55,45.4,3.03,30.7,68.53-9.73-69.4Z"/>
  <path class="st0" d="M715.99,85.79c3.46,3.32,5.41,13.44,5.84,30.38.43,16.94-.72,28.79-3.46,35.56-1.3,3.32-9.3,6.13-24,8.43-14.7,2.3-29.58,2.99-44.64,2.06-15.06-.94-23.6-3.71-25.62-8.32-3.17-7.06-5.8-20.25-7.89-39.56-2.09-19.31-2.89-39.02-2.38-59.13.5-20.1,2.63-33.98,6.38-41.62,2.02-3.89,10.77-6.2,26.27-6.92,15.49-.72,30.88.11,46.16,2.49,15.27,2.38,23.64,5.37,25.08,8.97,1.87,5.19,2.56,13.33,2.06,24.43-.51,11.1-1.91,19.67-4.22,25.73-.43,1.3-1.77,2.27-4,2.92-2.24.65-4.79.97-7.67.97s-5.73-.18-8.54-.54c-2.81-.36-5.15-.94-7.03-1.73-1.87-.79-2.81-1.69-2.81-2.7.57-6.77,1.08-13.4,1.51-19.89,0-1.58-2.27-2.95-6.81-4.11-4.54-1.15-9.23-1.62-14.05-1.4-4.83.21-7.53,1.26-8.11,3.13-1.73,6.2-2.16,19.75-1.3,40.64.86,20.9,2.3,34.3,4.32,40.21.72,1.73,3.46,2.89,8.21,3.46,4.76.58,9.41.62,13.95.11,4.54-.5,7.03-1.11,7.46-1.84,2.3-5.04,2.3-12.11,0-21.19-.15-.43-2.02-.76-5.62-.97-3.6-.22-7.21-.33-10.81-.33l-5.41-.21-4.11-19.89c1.3-.14,2.99-.29,5.08-.43,2.09-.14,5.84-.36,11.24-.65,5.41-.29,10.3-.47,14.7-.54,4.39-.07,8.61.07,12.65.43,4.03.36,6.56,1.05,7.57,2.05Z"/>
</svg>