<?xml version="1.0" encoding="UTF-8"?>
<svg id="Laag_1" xmlns="http://www.w3.org/2000/svg" version="1.1" viewBox="0 0 1306.74 379.79">
  <!-- Generator: Adobe Illustrator 29.8.3, SVG Export Plug-In . SVG Version: 2.1.1 Build 3)  -->
  <defs>
    <style>
      .st0 {
        stroke-width: 12px;
      }

      .st0, .st1 {
        fill: #010101;
      }

      .st0, .st2 {
        stroke: #0c0d0d;
        stroke-miterlimit: 10;
      }

      .st2 {
        stroke-width: 2px;
      }
    </style>
  </defs>
  <g>
    <path class="st0" d="M32.96,115.81h-11.75V23.33h54.04v10.22h-42.28v32.06h39.09v10.22h-39.09v39.98Z"/>
    <path class="st0" d="M122.32,23.33l32.19,92.49h-12.9l-9.33-27.47h-35.51l-9.07,27.47h-11.88l31.17-92.49h15.33ZM114.53,34.06h-.13l-14.82,44.2h29.77l-14.82-44.2Z"/>
    <path class="st0" d="M175.53,105.47h41.64v10.35h-53.4V23.33h11.75v82.14Z"/>
    <path class="st0" d="M246.05,105.47h41.64v10.35h-53.4V23.33h11.75v82.14Z"/>
    <path class="st0" d="M298.09,69.57c0-27.47,15.2-47.91,43.43-47.91s40.75,20.44,40.75,46.12c0,30.02-14.44,49.57-42.67,49.57s-41.52-20.06-41.52-47.78ZM370.26,68.93c0-24.4-11.5-36.92-29.13-36.92s-30.79,12.77-30.79,37.43,12.01,37.56,29.89,37.56,30.02-11.88,30.02-38.07Z"/>
    <path class="st0" d="M465.31,115.81l-19.67-76.01h-.13l-20.18,76.01h-14.56l-20.18-92.49h12.26l15.84,78.69h.13l20.44-78.69h13.03l20.44,79.71h.13l15.2-79.71h11.75l-19.55,92.49h-14.95Z"/>
    <path class="st0" d="M600.91,83.75V23.33h11.62v61.45c0,22.23-12.52,32.58-34.36,32.58-23.76,0-33.73-11.24-33.73-32.83V23.33h11.75v60.04c0,17.12,7.79,23.76,22.48,23.76s22.23-6,22.23-23.38Z"/>
    <path class="st0" d="M645.07,46.06c0,11.24,10.47,14.44,22.1,17.88,13.54,3.96,28.23,8.3,28.23,26.19,0,19.54-15.59,27.21-32.7,27.21-19.29,0-31.3-7.67-33.72-26.7l11.24-1.66c2.17,9.84,6.77,18.4,22.61,18.4,9.96,0,20.57-3.32,20.57-15.58,0-11.5-10.35-14.56-21.72-17.76-13.8-3.83-28.62-7.79-28.62-26.83,0-15.84,13.29-25.55,31.17-25.55,16.22,0,28.49,6.26,30.4,26.06l-10.99,1.28c-1.41-8.81-4.98-17.37-19.29-17.37s-19.29,6.26-19.29,14.43Z"/>
    <path class="st0" d="M15.95,212.22c0-27.47,15.2-47.91,43.43-47.91s40.75,20.44,40.75,46.12c0,30.02-14.44,49.57-42.67,49.57s-41.52-20.06-41.52-47.78ZM88.12,211.58c0-24.4-11.5-36.92-29.13-36.92s-30.79,12.77-30.79,37.43,12.01,37.56,29.89,37.56,30.02-11.88,30.02-38.07Z"/>
    <path class="st0" d="M175.25,258.46l-45.48-77.54v77.54h-10.99v-92.49h15.46l44.33,76.78v-76.78h10.86v92.49h-14.18Z"/>
    <path class="st1" d="M225.81,156.05c18.82,1.6,37.64,3.2,56.46,4.8,1.44,52.3,2.88,104.61,4.32,156.91-18.9.87-37.79,1.74-56.69,2.61l-4.08-164.33Z"/>
    <path class="st1" d="M366.83,157.01l44.45,2.4-.96,159.29-41.08,1.68-36.28-70.39,5.05,71.83-40.6-7.69-4.33-159.52,50.45,3.36,34.11,76.16-10.81-77.12Z"/>
    <path class="st1" d="M533.8,159.17c1.12.32.96,9.01-.48,26.07-1.44,17.06-2.48,26.95-3.12,29.67-.16.48-2.68.48-7.57,0-4.89-.48-9.73-1.04-14.54-1.68l-7.21-.96-2.4-17.54-22.34-3.36-1.92,30.27c34.43,4.17,52.13,7.29,53.09,9.37.96,1.92,1.6,10.05,1.92,24.39.32,14.34.12,28.71-.6,43.12s-2.04,22.26-3.96,23.54c-3.85,1.12-11.93,1.6-24.27,1.44-12.33-.16-25.91-.8-40.72-1.92-14.82-1.12-24.07-2.32-27.75-3.61-2.09-.64-3.93-5.12-5.53-13.45-1.6-8.32-2.64-16.41-3.12-24.26l-.96-12.01,30.03-3.12,2.88,32.91,25.47-3.36,4.8-42.52c-36.2-4.64-55.26-7.93-57.18-9.85-1.6-1.6-2.68-14.93-3.24-40-.56-25.06.28-39.6,2.52-43.6,2.56-3.2,19.34-4.57,50.33-4.08,30.99.48,49.61,2,55.86,4.56Z"/>
    <path class="st1" d="M659.61,154.6c-4.54,24.27-9.08,48.53-13.61,72.8-10.33-1.84-20.66-3.68-30.99-5.53l8.41,102.59-60.54-2.64,9.37-99.7c-12.09-1.84-24.19-3.69-36.28-5.53,1.95-20.69,3.91-41.38,5.86-62.07,39.26.03,78.53.06,117.79.09Z"/>
    <path class="st1" d="M741.38,156.04l29.31,164.09-54.78-.24-1.44-50.45-21.14-1.68-.24,46.85-51.65,8.17,25.7-168.17,74.24,1.44ZM712.78,235.33l.24-45.41-12.5-1.68-4.32,44.21,16.58,2.88Z"/>
    <path class="st1" d="M886.25,239.89c3.85,3.69,6.01,14.94,6.49,33.75.48,18.82-.8,32-3.84,39.52-1.44,3.69-10.33,6.81-26.67,9.37-16.34,2.56-32.88,3.32-49.61,2.28-16.74-1.04-26.23-4.12-28.47-9.25-3.53-7.85-6.45-22.5-8.77-43.97-2.33-21.46-3.21-43.36-2.64-65.71.56-22.34,2.92-37.76,7.09-46.25,2.24-4.32,11.97-6.89,29.19-7.69,17.22-.8,34.31.12,51.29,2.76,16.97,2.64,26.27,5.97,27.87,9.97,2.08,5.77,2.84,14.82,2.28,27.15-.57,12.33-2.13,21.86-4.69,28.59-.48,1.44-1.96,2.52-4.44,3.24-2.48.72-5.33,1.08-8.53,1.08s-6.37-.2-9.49-.6c-3.12-.4-5.73-1.04-7.81-1.92-2.09-.88-3.13-1.88-3.13-3,.64-7.53,1.2-14.9,1.68-22.1,0-1.76-2.52-3.28-7.57-4.57-5.05-1.28-10.25-1.8-15.62-1.56-5.37.24-8.37,1.4-9.01,3.48-1.92,6.89-2.4,21.94-1.44,45.17.96,23.23,2.56,38.12,4.8,44.69.8,1.92,3.85,3.2,9.13,3.84,5.29.64,10.45.68,15.5.12,5.04-.56,7.81-1.24,8.29-2.04,2.56-5.61,2.56-13.45,0-23.54-.16-.48-2.24-.84-6.25-1.08-4-.24-8.01-.36-12.01-.36l-6.01-.24-4.57-22.1c1.44-.16,3.32-.32,5.65-.48,2.32-.16,6.49-.4,12.49-.72,6.01-.32,11.45-.52,16.34-.6,4.89-.08,9.57.08,14.06.48,4.48.4,7.28,1.16,8.41,2.28Z"/>
    <path class="st1" d="M1013.82,240.37c-1.29,1.12-3,1.96-5.16,2.52-2.16.56-4.33.92-6.49,1.08-2.16.16-4.2.28-6.12.36-1.92.08-3.53.04-4.81-.12l-1.92-.24c10.32,20.87,20.63,41.73,30.95,62.6-1.56,9.03-3.11,18.06-4.67,27.09-14.93,9.58-29.85,19.15-44.78,28.73-6.73-38.27-13.46-76.54-20.18-114.81l-3.6.24,2.4,73.52-45.41-4.08.96-154.96c.8-.16,1.96-.4,3.49-.72,1.52-.32,4.64-.84,9.37-1.56,4.72-.72,9.41-1.44,14.05-2.16,4.65-.72,10.17-1.44,16.58-2.16,6.4-.72,12.37-1.36,17.9-1.92,5.52-.56,11.21-.92,17.06-1.08,5.84-.16,10.93-.12,15.25.12,4.32.24,8.05.84,11.17,1.8,3.12.96,5.08,2.32,5.88,4.08,2.4,4.48,3.85,13.06,4.32,25.71.48,12.66.08,24.71-1.2,36.16-1.28,11.45-2.96,18.06-5.04,19.82ZM968.41,221.15l2.41-32.91-20.42-.48v33.39h18.02Z"/>
    <path class="st1" d="M1124.33,156.04l29.31,164.09-54.78-.24-1.44-50.45-21.14-1.68-.24,46.85-51.65,8.17,25.7-168.17,74.24,1.44ZM1095.74,235.33l.24-45.41-12.5-1.68-4.32,44.21,16.58,2.88Z"/>
    <path class="st1" d="M1284.81,158.21l8.41,166.97-54.3-.48-.48-83.61-17.06,34.84-17.78-31.47,6.25,80-50.21.72,2.88-167.21,39.4-.48,18.02,54.06,31.23-55.26,33.63,1.92Z"/>
  </g>
  <g id="_x34_GZBME">
    <g>
      <path class="st2" d="M773.81,14.49c8.13-.13,16.29-.04,24.41.1,12.87.22,25.07-.27,34.6,9.84,8.95,9.5,8.44,21.06,8.65,33.27.19,10.75.22,21.53-.14,32.27-.34,9.98-1.34,18.63-8.45,26.21-9.44,10.08-21.44,9.68-34.24,9.91-10.84.2-21.72.23-32.55-.14-9.92-.34-18.48-1.32-26.07-8.31-8.29-7.63-9.54-16.94-9.91-27.68-.38-10.73-.33-21.52-.14-32.27.22-12.05-.28-23.61,8.45-33.06,9.49-10.27,22.42-9.95,35.4-10.16ZM768.78,24.55c-8.89.23-18.05.43-24,8-4.59,5.83-4.54,13.2-4.75,20.26-.34,11.62-.34,23.45,0,35.06.22,7.66.19,15.32,5.65,21.32,6.01,6.6,14.21,6.6,22.51,6.84,11.62.34,23.44.34,35.06,0,8.34-.24,16.44-.25,22.51-6.84,5.46-5.93,5.43-13.72,5.65-21.32.34-11.62.34-23.44,0-35.06-.22-7.5-.18-15.17-5.45-21.1-6.02-6.79-14.29-6.81-22.71-7.05-11.3-.33-23.15-.39-34.47-.1Z"/>
      <path class="st2" d="M805.76,49.89c14.9,14.61,9.67,39.92-9.81,47.26-22.02,8.3-44.1-11.83-37.87-34.51,5.74-20.89,32.12-28,47.67-12.75ZM798.38,84.13c11.01-10.19,6.06-28.9-8.61-32.02-14.62-3.12-26.79,10.96-21.49,24.98,4.6,12.18,20.5,15.93,30.1,7.04Z"/>
      <path class="st2" d="M814.47,33.91c9.28-1.25,10.39,12.38,1.9,13.22-8.99.89-9.97-12.13-1.9-13.22Z"/>
    </g>
  </g>
</svg>