<?xml version="1.0" encoding="UTF-8"?>
<svg id="Laag_1" xmlns="http://www.w3.org/2000/svg" version="1.1" viewBox="0 0 724.98 426.1">
  <!-- Generator: Adobe Illustrator 29.8.3, SVG Export Plug-In . SVG Version: 2.1.1 Build 3)  -->
  <defs>
    <style>
      .st0 {
        fill: #fff;
      }

      .st1 {
        fill: #bf2a1d;
      }
    </style>
  </defs>
  <g>
    <path class="st0" d="M56.18,105.75c17.77,0,27.96-8.29,27.96-22.73,0-16.45-12.52-20.97-23.4-23.06l-.8-.16c-9.63-1.96-13.26-3.05-13.26-6.82,0-1.39,0-4.65,7.69-4.65s10.16,3.83,11.04,6.72l.8,2.64,18.18-4.78-.85-2.84c-3.72-12.35-13.98-19.15-28.89-19.15-17.03,0-27.2,8.39-27.2,22.45,0,17.44,15.81,21.1,22.54,22.66,1.61.39,3.21.69,4.76.99,7.94,1.52,10.25,2.49,10.25,6.02s-2.97,5.41-8.83,5.41c-4.1,0-11.14-.98-12.19-7.57l-.5-3.15-18.36,4.97.59,2.67c2.9,13.16,13.72,20.41,30.46,20.41Z"/>
    <rect class="st0" x="93.15" y="32.23" width="18.95" height="72.28"/>
    <polygon class="st0" points="143.19 32.23 124.24 32.23 124.24 104.51 174.75 104.51 174.75 86.52 143.19 86.52 143.19 32.23"/>
    <polygon class="st0" points="237.4 86.52 202.99 86.52 202.99 76.56 228.56 76.56 228.56 58.47 202.99 58.47 202.99 50.23 237.02 50.23 237.02 32.23 184.04 32.23 184.04 104.51 237.4 104.51 237.4 86.52"/>
    <path class="st0" d="M266.78,73.7c0-2.71-.02-5.38-.05-7.81l27.65,38.63h17.74V32.23h-18.94v31.01c0,2.1.02,4.49.05,7.06l-27.67-38.07h-17.73v72.28h18.95v-30.82Z"/>
    <polygon class="st0" points="382.77 32.23 321.42 32.23 321.42 50.23 342.62 50.23 342.62 104.51 361.57 104.51 361.57 50.23 382.77 50.23 382.77 32.23"/>
    <path class="st0" d="M257.71,144.4c8.06,0,10.16,3.83,11.04,6.72l.8,2.64,18.18-4.78-.85-2.84c-3.71-12.35-13.97-19.15-28.89-19.15-17.03,0-27.2,8.39-27.2,22.45,0,17.43,15.81,21.1,22.54,22.65,1.61.39,3.21.69,4.76.99,7.94,1.52,10.25,2.49,10.25,6.02s-2.97,5.41-8.83,5.41c-4.1,0-11.14-.98-12.19-7.57l-.5-3.15-18.36,4.97.59,2.67c2.9,13.16,13.72,20.41,30.46,20.41,17.77,0,27.96-8.29,27.96-22.73,0-16.45-12.52-20.97-23.4-23.06l-.79-.16c-9.63-1.96-13.27-3.05-13.27-6.82,0-1.39,0-4.65,7.69-4.65Z"/>
    <polygon class="st0" points="292.69 146.3 313.89 146.3 313.89 200.59 332.83 200.59 332.83 146.3 354.03 146.3 354.03 128.31 292.69 128.31 292.69 146.3"/>
    <path class="st0" d="M418.68,153.04c0-15.25-11.08-24.73-28.91-24.73h-26.44v72.28h18.95v-23.39h4.98l13.4,23.39h22.43l-16.55-27.38c7.87-3.67,12.15-10.71,12.15-20.17ZM399.45,153.7c0,3.31-.99,7.12-8.73,7.12h-8.45v-14.71h8.26c8,0,8.92,4.33,8.92,7.59Z"/>
    <polygon class="st0" points="448.16 172.64 473.73 172.64 473.73 154.55 448.16 154.55 448.16 146.3 482.19 146.3 482.19 128.31 429.21 128.31 429.21 200.59 482.57 200.59 482.57 182.59 448.16 182.59 448.16 172.64"/>
    <polygon class="st0" points="511.95 172.64 537.52 172.64 537.52 154.55 511.95 154.55 511.95 146.3 545.98 146.3 545.98 128.31 493 128.31 493 200.59 546.37 200.59 546.37 182.59 511.95 182.59 511.95 172.64"/>
    <polygon class="st0" points="553.95 146.3 575.15 146.3 575.15 200.59 594.09 200.59 594.09 146.3 615.29 146.3 615.29 128.31 553.95 128.31 553.95 146.3"/>
    <path class="st0" d="M655.59,156.03l-.79-.16c-9.63-1.96-13.27-3.05-13.27-6.82,0-1.39,0-4.65,7.69-4.65,8.06,0,10.17,3.83,11.04,6.72l.8,2.64,18.18-4.78-.85-2.84c-3.71-12.35-13.97-19.15-28.89-19.15-17.03,0-27.2,8.39-27.2,22.45,0,17.43,15.81,21.1,22.54,22.65,1.61.39,3.21.69,4.76.99,7.94,1.52,10.25,2.49,10.25,6.02s-2.97,5.41-8.83,5.41c-4.1,0-11.14-.98-12.19-7.57l-.5-3.15-18.36,4.97.59,2.67c2.91,13.16,13.72,20.41,30.46,20.41,17.77,0,27.96-8.29,27.96-22.73,0-16.45-12.52-20.97-23.4-23.06Z"/>
    <path class="st0" d="M54.86,264.75l-28.91,72.28h20.19l5.04-13.31h25.99l5.04,13.31h20.38l-28.91-72.28h-18.81ZM70.34,306.01h-12.42l4.11-10.73c.69-1.75,1.44-3.65,2.13-5.4.66,1.68,1.4,3.54,2.14,5.39l4.04,10.74Z"/>
    <path class="st0" d="M164.24,289.48c0-15.25-11.08-24.73-28.91-24.73h-26.44v72.28h18.95v-23.39h4.98l13.4,23.39h22.43l-16.55-27.38c7.87-3.67,12.15-10.71,12.15-20.17ZM145.01,290.14c0,3.31-.99,7.12-8.73,7.12h-8.45v-14.71h8.26c8,0,8.92,4.33,8.92,7.59Z"/>
    <polygon class="st0" points="193.71 309.07 219.29 309.07 219.29 290.98 193.71 290.98 193.71 282.74 227.75 282.74 227.75 264.75 174.77 264.75 174.77 337.02 228.13 337.02 228.13 319.03 193.71 319.03 193.71 309.07"/>
  </g>
  <g>
    <path class="st0" d="M697.95,279.98c2.78-5.6,4.84-13.13,6.29-23.02,1.49-10.18,1.54-17.83.15-23.39l-.08-.31c-2.28-7.92-12.03-11.96-25.96-15.58-12.64-3.29-25.68-5.32-38.77-6.02-17.1-.92-25.75,1.28-29.87,7.58l-.11.17c-.41.66-.8,1.35-1.19,2.08l-43.95,1.33.33,1.46-16.5.29c3.56-3.41,5.68-7.37,7.14-10.08.78-1.45,7.99-15.08,4.25-18.28-4.43-3.79-19.5,10.48-33.06,5.97-.79-.26-1.66-.62-1.78-.67-8.28-3.37-10.07-8.03-15.58-10.56-2.04-.94-5.21-1.88-9.86-1.41,0,0-3.59.47-6.74,2.28-5.65,3.23-9.13,13.04-8.2,24.96l-1.57-.17c-1.21-.63-2.64-1.18-4.32-1.59-2.88-.7-6.16-1.05-9.8-1.02-3.13.01-6.84.2-11.04.57-4.14.36-8.21.87-12.11,1.5-3.9.63-7.96,1.32-12.07,2.03-4.4.76-8.25,1.5-11.45,2.19-3.09.67-6.21,1.34-9.35,2.02-3.38.72-5.53,1.22-6.76,1.55-.96.26-1.69.46-2.19.59l-7.25,1.88.03.63c-7.82-2.16-15.74-3.34-23.61-3.53-13.03-.31-21.2,2.29-25.65,8.18-.26.34-.52.69-.77,1.06-.08-1.79-.47-4.98-2.35-8.32,0,0-1.82-3.22-5.05-5.7-9.47-7.26-37.89-3.54-37.89-3.54-5.82.76-11.79,1.64-17.9,2.65-4.97.82-9.82,1.69-14.55,2.61-16.55-5.41-33.1-10.82-49.65-16.23,6.51,8.5,13.02,16.99,19.54,25.49-40.56-5.84-81.12-11.68-121.69-17.52,46.5,16.93,92.99,33.86,139.49,50.79,3.42,32.38,6.83,64.77,10.25,97.15l14.95.05c4.05,0,9.07-.14,14.9-.4,6.17-.28,12.59-.73,19.11-1.34,6.91-.65,13.41-1.82,19.33-3.48,4.38-1.23,7.92-2.66,10.73-4.34,6.71,3.08,14.05,5.42,21.87,6.96,8.4,1.66,16.54,2.29,24.18,1.86,6.64-.37,15.95-1.75,20.06-9.39l.19-.38c.38-.79.76-1.69,1.16-2.7l37.7,1.14.21.61,9.31-2.69c2.74,6.04,4.58,11.1,5.74,14.54,5.22,15.43,7.24,29.38,15.77,38.55.97,1.04,2.2,2.21,3.9,3.26,6.07,3.75,12.86,2.83,17.21,2.18,6.3-.95,18.74-2.81,26.29-13.05,4.84-6.56,5.62-13.79,6.72-23.93.51-4.76.54-8.85.44-11.91l35.29-3.44-1.37-24.32,11.12,17.72,20.07-2.53c1.49,1.67,3.92,4.1,7.4,6.31,1.77,1.13,6.33,3.78,18.6,6,3.48.63,8.4,1.37,15.24,1.83,12.41.84,21.82.13,26.65-.35,9.63-.95,15.77-.89,20.9-5.44.81-.72,1.35-1.32,1.71-1.72,5.01-5.62,6.09-12.39,7.09-24.29.65-7.66,1.04-14.78,1.25-21.28-.04-9.9-1.52-15.93-4.81-19.82-.16-.2-.33-.39-.51-.57,1.45-1.29,2.31-2.67,2.8-3.7Z"/>
    <g>
      <path class="st1" d="M344.75,287.73c2.43,4.99,3.5,14.56,3.22,28.69-.28,14.14-1.5,22.42-3.66,24.84-1.95,2.06-5.64,3.84-11.06,5.36-5.42,1.52-11.33,2.58-17.71,3.18-6.39.6-12.61,1.04-18.67,1.31-6.06.28-11.1.41-15.11.39l-6.03-.02-12.09-119.97c1.62-.37,3.83-.85,6.61-1.44,2.78-.59,7.84-1.52,15.18-2.79,7.33-1.27,13.95-2.24,19.86-2.92,5.9-.68,11.7-.93,17.38-.76,5.68.17,9.35.95,11,2.35,3.06,2.69,5.37,9.79,6.94,21.29,1.56,11.5,1.49,19.09-.2,22.78-1.28,3.06-7.28,5.46-17.99,7.19l-.35.03.35-.03c2.25.05,6.11,1.05,11.59,3.01,5.48,1.96,9.06,4.46,10.73,7.51ZM295.76,246.69l1.57,22.72c.36.09.75.17,1.17.25.42.08,1.26.19,2.51.32,1.25.13,2.35.22,3.3.25.95.04,1.91-.04,2.9-.25.99-.2,1.64-.55,1.95-1.05.71-1.36.83-5.15.37-11.37-.47-6.22-1.21-9.76-2.23-10.62-.49-.19-1.18-.37-2.08-.53-.9-.16-1.88-.22-2.94-.19-1.06.03-2.09.09-3.09.17l-2.37.2-1.06.09ZM315.67,327.21c.56-1.82.77-6.94.65-15.38-.12-8.43-.88-13.18-2.27-14.25-1.32-.24-2.97-.25-4.96-.02-1.99.23-3.85.59-5.58,1.09l-2.77.77,3.65,28.57c.24.1.61.19,1.08.26.48.08,1.31.19,2.51.32,1.19.14,2.29.19,3.29.16,1-.02,1.93-.16,2.8-.41.86-.25,1.39-.62,1.59-1.11Z"/>
      <path class="st1" d="M419.3,251.29c1.68,4.05,1.65,13.11-.08,27.19-1.73,14.08-4.14,27.88-7.22,41.4-3.08,13.52-5.59,22.3-7.53,26.32-1.43,2.67-5.6,4.19-12.49,4.58-6.9.38-14.19-.18-21.89-1.7-7.69-1.52-14.77-3.84-21.22-6.96-6.45-3.12-9.96-6.36-10.52-9.71-.83-5.58-.55-15.08.82-28.49,1.37-13.41,3.61-26.76,6.72-40.07,3.11-13.3,6.24-21.99,9.39-26.09,2.5-3.3,8.55-4.83,18.17-4.6,9.61.23,19.15,2.07,28.63,5.52,9.48,3.45,15.22,7.65,17.22,12.62ZM385.12,314.83c1.61-3.19,3.32-10.2,5.13-21.04,1.81-10.83,2.46-18.15,1.96-21.94-.31-1.9-1.55-3.32-3.73-4.25-2.18-.93-4.42-1.24-6.7-.93-2.29.31-3.79,1.14-4.5,2.47-1.64,3.41-3.41,10.88-5.3,22.42-1.9,11.54-2.49,19.21-1.77,23.03.66,2.6,2.98,3.91,6.98,3.92,4,.01,6.64-1.21,7.94-3.68Z"/>
      <path class="st1" d="M483.21,282.09c-.82.81-1.94,1.44-3.38,1.91-1.43.47-2.87.8-4.32.99-1.45.2-2.82.36-4.11.49-1.29.13-2.37.17-3.24.11l-1.3-.08c.62,1.93,1.23,3.87,1.85,5.8-3.35,2.33-8.59,6.61-12.92,13.55-3.35,5.36-4.97,10.41-5.81,13.97-3-9.78-6.01-19.55-9.01-29.33l-2.42.31,4.57,49.39-30.73-.93-5.57-104.35c.53-.14,1.3-.35,2.32-.63,1.01-.28,3.09-.75,6.24-1.43,3.15-.67,6.27-1.35,9.37-2.02,3.1-.67,6.79-1.38,11.07-2.12,4.28-.74,8.27-1.41,11.97-2.01,3.7-.6,7.51-1.07,11.44-1.41,3.93-.34,7.35-.52,10.27-.53,2.92-.01,5.45.24,7.59.76,2.14.52,3.52,1.36,4.13,2.51,1.8,2.92,3.11,8.63,3.94,17.13.83,8.5,1.05,16.63.64,24.39-.4,7.76-1.27,12.28-2.6,13.55ZM451.87,270.97l.3-22.25-13.77.5,4.06,21.83,9.41-.07Z"/>
      <path class="st1" d="M576.56,232.21l28.48-.86,7.97,101.65-26.11,3.29-26.93-42.94c.96,17.03,1.92,34.07,2.89,51.1-10.42,1.02-20.84,2.03-31.26,3.05-.73-37.61-1.47-75.23-2.2-112.84l32.36-.57,25.87,46.74-11.05-48.61Z"/>
      <path class="st1" d="M689.32,290.69c2.52,2.95,3.26,11.26,2.24,24.92-1.02,13.67-2.91,23.12-5.66,28.35-1.31,2.56-7.98,4.18-20,4.84-12.02.66-24.05.01-36.1-1.96-12.05-1.98-18.7-4.9-19.95-8.77-1.98-5.94-3.03-16.77-3.15-32.48-.12-15.71.84-31.64,2.87-47.79,2.03-16.14,4.87-27.13,8.5-32.98,1.94-2.97,9.17-4.11,21.7-3.44,12.53.68,24.85,2.59,36.95,5.74,12.1,3.15,18.59,6.24,19.46,9.25,1.09,4.33.98,10.94-.32,19.83-1.31,8.89-3.13,15.68-5.48,20.37-.45,1.01-1.61,1.68-3.46,2.03-1.85.34-3.94.39-6.26.16-2.32-.23-4.6-.61-6.83-1.13-2.23-.52-4.07-1.17-5.52-1.96-1.44-.79-2.13-1.59-2.04-2.4,1.01-5.41,1.96-10.7,2.83-15.89.13-1.28-1.59-2.56-5.15-3.86-3.56-1.29-7.29-2.05-11.2-2.27-3.91-.22-6.16.41-6.78,1.87-1.89,4.85-3.34,15.72-4.34,32.61-1,16.89-.92,27.8.22,32.72.44,1.45,2.55,2.6,6.33,3.45,3.78.85,7.52,1.26,11.21,1.22,3.7-.04,5.95-.22,6.15-.87,1.24-3.97,1.89-13.04,1.67-14.3-.14-.93-3.78-1.58-6.94-2.16-2.98-.55-5.38-1.08-6.95-1.44l.85-18.18c1.81,0,4.26.04,7.17.14,5.08.18,8.71.49,11.88.76,3.54.3,6.93.76,10.15,1.37,3.22.62,5.19,1.37,5.92,2.27Z"/>
    </g>
    <g id="hcUmQ6.tif">
      <path class="st1" d="M499.33,198.43c9.57-2.09,14.67,6.56,22.3,10.15,10.1,4.75,20.13-1.16,29.86-3.84.36-.1,1.55-.46,1.52.25-.03.72-7.17,11.14-8.07,11.85-6.92,5.47-20.03,3.18-27.19-.82-1.42-.79-6.86-5.46-8.12-3.69-.26,1.8-.03,3.56.19,5.35,1.1,8.95,3.14,18.19,4.52,27.15,5.13,33.36,10.71,68.33,13.27,101.91.91,11.88,1.94,32.34-6.73,41.59-6.46,6.89-25.97,12.16-33.43,4.72-10.59-10.56-11.73-38.01-20.87-52.49-1.02-1.62-3.63-.42-5.67-.72-2.86-.42-4.84-2.04-6.7-4.12-.35-.98-1.03-1.97-1.33-2.94-4.75-15.39,15.15-44.81,31.89-42.71,5.81.73,8.34,5.99,8.73,11.32.11,1.54-.52,4.09-.14,5.36.58,1.95,2.44,5.14,3.69,6.81.18.24.53.86.71.27-2.26-24.67-3.92-50.29-4.82-76.8-.29-8.57-.5-17.05-.63-25.43,0-.29-.13-6.53,2.19-9.76,1-1.4,2.22-2.23,2.22-2.23,1.01-.69,1.98-1.02,2.61-1.18ZM479.21,295.91c-8.25,3.73-16.49,16.67-18.85,25.23-2.2,8,.13,14.43,9.22,9.16,7.71-4.48,17.63-19.71,17.84-28.74.14-5.91-2.77-8.1-8.21-5.65Z"/>
    </g>
  </g>
</svg>