<?xml version="1.0" encoding="UTF-8"?>
<svg id="Laag_1" xmlns="http://www.w3.org/2000/svg" version="1.1" viewBox="0 0 784.92 176.59">
  <!-- Generator: Adobe Illustrator 29.8.3, SVG Export Plug-In . SVG Version: 2.1.1 Build 3)  -->
  <defs>
    <style>
      .st0 {
        fill: #fff;
        stroke: #fff;
        stroke-miterlimit: 10;
      }
    </style>
  </defs>
  <path class="st0" d="M227.96,111.46l5.93,40.86-100.17,10.54,1.32-150.26,97.76-6.37.66,39.1-54.04-3.73-1.32,19.55,26.58-1.1v37.79l-30.76-7.91,5.27,33.83,48.77-12.3Z"/>
  <path class="st0" d="M305.06,9.09l43.94,1.32-27.68,152.24-57.56-3.51-23.07-142.57,34.49-5.49,21.97,85.02,7.91-86.99Z"/>
  <path class="st0" d="M357.57,10.63l51.63,4.39-3.51,144.33-44.38,1.54-3.73-150.26Z"/>
  <path class="st0" d="M518.37,111.46l5.93,40.86-100.17,10.54,1.32-150.26,97.76-6.37.66,39.1-54.04-3.73-1.32,19.55,26.58-1.1v37.79l-30.76-7.91,5.27,33.83,48.77-12.3Z"/>
  <path class="st0" d="M617.23,9.97l44.38,4.17-16.48,143.89-37.78,3.3-12.96-47.23-16.7,49.65-32.95-2.2-11.64-146.97,36.25-.66,10.76,69.42,14.94-40.86,18.89,35.59,3.3-68.1Z"/>
  <path class="st0" d="M713.23,75c33.1,4.39,50.53,7.47,52.28,9.23,1.46,1.47,2.45,13.62,2.97,36.47.51,22.85-.26,36.1-2.31,39.76-2.49,2.93-16.51,3.92-42.07,2.97-25.56-.95-41.27-2.6-47.12-4.94-1.03-.44-2.12-8.31-3.3-23.62-1.17-15.3-1.61-23.84-1.32-25.59.14-.44,2.45-.44,6.92,0,4.47.44,8.9.95,13.29,1.54l6.59.88,2.2,16.04,25.48,8.35-5.27-34.49c-30.02-2.78-45.55-5.2-46.57-7.25-.88-1.61-1.47-9.01-1.76-22.19-.3-13.18-.11-26.32.55-39.43.66-13.11,1.87-20.25,3.62-21.42,3.22-1.61,16.77-1.83,40.64-.66,23.87,1.17,38.59,2.64,44.16,4.39,1.9.59,3.59,4.65,5.05,12.19,1.46,7.54,2.42,14.98,2.86,22.3l.88,10.98-27.46,2.86-2.64-30.32-23.29,3.3-4.39,38.66Z"/>
  <path class="st0" d="M93.95,91.25c1.17.15,2.64.19,4.39.11,1.76-.07,3.63-.18,5.6-.33,1.98-.14,3.95-.47,5.93-.99,1.98-.51,3.55-1.28,4.72-2.31,1.9-1.61,3.44-7.65,4.61-18.12,1.17-10.47,1.54-21.49,1.1-33.06-.44-11.57-1.76-19.4-3.95-23.51-.73-1.61-2.53-2.86-5.38-3.74-2.86-.88-6.26-1.43-10.22-1.65-3.95-.22-8.6-.25-13.95-.11-5.35.15-10.54.48-15.6.99-5.05.51-10.51,1.1-16.37,1.76-5.86.66-10.91,1.32-15.16,1.98-4.25.66-8.53,1.32-12.85,1.98-4.32.66-7.18,1.14-8.57,1.43-1.39.29-2.45.51-3.19.66l-.88,141.69,41.52,3.73-2.2-67.22,3.3-.22,18.67,67,44.82-10.11-28.12-60.19,1.76.22ZM81.78,80.07c-.04,1.11-1.34,1.69-2.19.96l-11.79-10.06-14.9,4.28c-1.07.31-2.02-.76-1.59-1.78l5.92-14.32-8.68-12.84c-.62-.92.1-2.15,1.2-2.07l15.45,1.21,9.53-12.22c.68-.88,2.08-.57,2.34.51l3.63,15.07,14.57,5.29c1.04.38,1.19,1.8.24,2.38l-13.21,8.11-.53,15.49Z"/>
</svg>