<?xml version="1.0" encoding="UTF-8"?>
<svg xmlns="http://www.w3.org/2000/svg" xmlns:xlink="http://www.w3.org/1999/xlink" version="1.1" viewBox="0 0 1365.81 195.69">
  <!-- Generator: Adobe Illustrator 29.8.3, SVG Export Plug-In . SVG Version: 2.1.1 Build 3)  -->
  <defs>
    <style>
      .st0 {
        fill: #8ec045;
      }

      .st1 {
        fill: url(#_É_πÌÚ_·ÂÁ_Ì_Á_Ë_3);
        mix-blend-mode: screen;
        opacity: .39;
      }

      .st2 {
        isolation: isolate;
      }

      .st3 {
        fill: #fff;
      }
    </style>
    <linearGradient id="_É_πÌÚ_·ÂÁ_Ì_Á_Ë_3" data-name="É‡‰¥πÌÚ ·ÂÁ Ì‡Á‚Ë 3" x1="655.12" y1="1406.05" x2="658.56" y2="1452.54" gradientTransform="translate(83.16 -1912.94) rotate(1.55) scale(1 1.46)" gradientUnits="userSpaceOnUse">
      <stop offset="0" stop-color="#fff"/>
      <stop offset="1" stop-color="#010101"/>
    </linearGradient>
  </defs>
  <g class="st2">
    <g id="Laag_1">
      <g>
        <path class="st0" d="M-3.43,105.98l-.85-1.57c.04-.14.2.21.85,1.57Z"/>
        <g>
          <path class="st3" d="M1371.23,98.59l-.46.63s-1.36-2.5-1.57-.95c-.18,1.55.86.77-.06,2.09-.89,1.32-1.4-1.15-2.3-.06-.88,1.12-1.8-2.64-1.8-2.64,0,0,1.41-3.4.07-2.6-1.31.81-1.36-8.47-2.17-5.12-.81,3.35-.4-1.26-1.13-.77-.73.52-.43-5.57-.88-4.1-.48,1.44-.24-7.19-1.24-2.8-.97,4.42-1.09,3.58-1.99,4.6-.9,1.02-1.72-.48-2.31.14-.59.62-.85-.87-1.6.16-.74,1.06-.95-1.48-1.87.18-.92,1.66-1.8-2.58-2.44-.07-.64,2.51-1.29-.03-2.32.54-1.03.61-2.11-2.35-2.74-.28-.63,2.11-1.65,2.28-1.71-.89-.04-2.09,1.08-4.83,1.08-5.06-.05-.03-.36.5-1.14,1.89-2.57,4.58-3.04-.08-3.53,2.43-.51,2.51.75-6.49-.96-2.12-1.71,4.37-.26,4.41-1.71,4.37s-1.66-2.57-2.41-1.31c-.75,1.23-.51-2.54-1.43-.88-.9,1.66-.31-3.82-1.66-1.73-1.37,2.05-1.91-4.27-3.05.12-1.13,4.39-1.15-.23-1.79,2.28-.64,2.51-.71-.25-1.17.58-.46.83-1.27-.88-1.72-.25-.43.63-.51-2.34-1.43.16-.94,2.5.36,2.13-.94,2.5-1.3.4-2.37-2.8-2.66-2.16-.32.63-1.08,2.26-1.24,3.24-.19.94-.56-1.6-1.15-.03-.64,1.57-.53-2.68-1.45-.04-.92,2.61-1.3.47-2.06,1.93-.78,1.46-1.7-2.04-1.7-2.04-1.99,4.46-1.51-2.27-2.31-.06-.77,2.17-.02-4.55-1.39-1.62-1.37,2.9,0-5.26-2.43-.71-2.43,4.59-3.01-1.36-4.26,2.11-1.25,3.44-2.2,1.93-2.65,2.36-.45.39-.97-1.51-1.41-.68-.46.83-1.46.16-2.03.15-.58-.02-.33-4.02-1.38-2.03-1.07,1.96-1.35-3.95-1.99-1.44-.64,2.51.95,2.55-.12,4.41-1.07,1.89-1.72-.25-2.17.18-.43.39,1.28.44-.43.39s-.88-5.08-1.65-3.72c-.75,1.33.19-1.17-1.29-.03-1.46,1.11-1.05-3.94-2.31-.06-1.26,3.84-.9,1.56-2.26,3.21-1.34,1.65-1.2-3.4-2.55-1.15-1.35,2.29-.6-4.43-1.81-2.24-1.21,2.16-1.27-1.85-2.17-.06-.9,1.76-.37-2.44-1.87-.05-1.52,2.39-1.38-2.7-2.88-.08-1.52,2.59-.83-1.61-2.64,1.28-1.81,2.92-1.88,2.92-1.98,1.53-.1-1.35-1.19-1.28-1.58-.25-.37,1.04-1.81,3.02-1.81,3.02,0,0-1.04-1.82-1.01-2.66.02-.84-.86.08-.86.08,0,0,.1-3.71-.52-2.24-.62,1.47-1.29-1.08-1.29-1.08,0,0-.43-4.43-.55-3.72-.09.67-1.12,3.21-1.3,3.61.08-.57.68-3.86.03-2.16-.7,1.87-1.28,2.19-1.28,2.19,0,0-.43-2.74-.68-1.3-.25,1.48-.65.29-.98,1.25-.3.94-.75-1.1-.92-.02-.19,1.04-.72-.66-1.01-.03-.32.63-.92,1.46-.92,1.46,0,0-.06-2.77-.47-1.5-.38,1.24-.96,1.32-1.19,1.45-.21.1-.02-4.35-.72-2.24-.7,2.07-.64-.35-1.24.71-.6,1.03-.42-3.38-1.25-1.52-.86,1.86-1.08-.23-1.08-.23,0,0-.42,1.78-.62,1.67-.2-.11,0-2.73-.53-1.7-.54,1.03-.54-1.4-1.39.06-.82,1.46-.66-2.01-1.02-1.51-.38.53-.9-1.51-.9-1.51,0,0,.17-3.67-.6-1.7-.77,2-.29-.41-.97,1.05-.68,1.43-1.04.82-1.26,1.21l-.6.83s-.53-1.6-.62-.96l-.09.64s-.96-2.05-1.12-1.41c-.16.64-.39.83-.68,1.36-.31.5-.99-1.07-1.22-.13-.26.94.86-.21-.26.94-1.11,1.12-1.16-2.36-1.8-.05-.64,2.31-.62-1.06-.84-.36-.25.74-.81-2.55-1.28-1.38-.45,1.13-.6-4.33-1.16-2.36-.56,1.97.73-.72-.56,1.97-1.3,2.73-1.14-.44-1.59.7-.47,1.17-1.06-.97-1.74.29-.68,1.23-.38-2.24-.92-1.1-.54,1.17-.45-2-1.07-.53-.62,1.47.01-5.6-1.17-2.06-1.18,3.58-.13,2.12-1.18,3.58-1.05,1.42-1.5-.88-1.81.36-.31,1.27-.26-.75-.9.82-.6,1.57-.55-.01-1.09,1.15-.54,1.13-.89.48-1.27,1.01-.36.5-.79-2.45-1.17-1.82-.36.6-.62-3.49-1.25-1.72-.62,1.77-1-.36-1.43,2.39-.44,2.72-.01.4-.44,2.72-.43,2.31-.31-2.03-.86.38-.57,2.41-.39-1.7-.89.41-.49,2.08-.57-2.98-1.13-.97-.56,1.97.15-2.86-.69-.86-.84,1.97-.19-3.92-1.27-.78-1.1,3.14-.57,2.18-1.1,3.14-.53.93-.31-2.03-.93-.56-.62,1.47-.23-1.69-.84-.56-.61,1.16-.27-.95-1.17.71-.92,1.66-.82-2.01-1.52-.24-.69,1.77-.4-1.49-1.16.37-.77,1.9-.02-4.52-1.1-1.82-1.09,2.74-1.43,2.59-1.82,3.42-.37.83-.59-1.9-1.07-.53-.45,1.34-.77-.56-1.17.71-.38,1.24-.32-.95-.87.58-.55,1.57-1.71-.75-2.06,1.02-.32,1.78-.53-4.23-1.32-1.42-.79,2.81-1.59,2.49-1.61,3.13-.02.64-.38-1.29-.79.18-.41,1.47-.69-.76-1.15-.03-.46.73-1.19-1.08-1.19-1.08l-.05,1.79s-.75-2.25-.76-1.61l-.04,1.58-1.24.51s-.18,4.21-.76,4.06c-.57-.12-.27-2.64-.83-.87-.56,1.81-1.36-.98-1.68.8-.35,1.81-1.05,6.41-1.18,3.68-.13-2.74-.5-2.98-.78-1.07-.26,1.88-.24-1.39-1.09.92-.87,2.27-.93-.56-1.55.9-.62,1.47-.83-1.61-1.52-.04-.69,1.57-1.64,2.79-1.67.36,0-2.43.82-5.64-.47-3.05-1.32,2.59-.52-3.08-.52-3.08,0,0-1.04,1.66-1.13,2.4-.11.74-.02-2.53-.61-1.16-.64,1.33-1.42-1.12-1.65-.48-.25.63.58-5.99.11-4.21-.49,1.77-.89.41-1.42,1.45-.54,1.03-.89-1.31-1.43-.14-.54,1.13-.26-4.02-1.08-2.56-.85,1.43-1.87-.79-2.09-.29-.22.53-.64-2.75-1.04-1.48-.38,1.24-.18-.95-.78-.12-.6.83-1.02-2.25-1.63-1.12-.61,1.16-.24-1.39-.99-.77-.73.62-.99-1.11-1.57-.04-.63,1.06-.74.11-1.4.7-.66.62-.66.69-.9-.77-.26-1.46-.36-3.04-1.06-.87-.73,2.21-1.65-.38-2.05.79-.38,1.17-.49-3.25-.97-1.58-.46,1.67-1.84-1.13-2.38.14-.2.47-.25.57-.27.57,0,0-.05.07-.27.67-.55,1.47-1.28-.44-1.69.9-.38,1.37-.89-1.37-1.3.4-.39,1.78-.51.09-1.06,1.56-.52,1.47-.76-.76-1.24.61-.45,1.34-.7-.56-1.17.68-.45,1.27-1.35,2.09-1.3.3.05-1.79-.05-3.17-.54-1.3-.49,1.91-1.19,1.45-1.22-.24-.02-1.69-.29-2.84-.76-.96-.49,1.87-.28-3.18-1.21-.57-.95,2.6-1.07-2.96-1.44-.34-.37,2.62-1.25,3.64-1.49,4.92-.26,1.24-.66-2.01-.98-1.21-1.09,2.74-1.55,1.04-1.31.61,0,0-.47.29-.73.55.03-.2-.01-.44-.14-.68-.35-.65.34-1.47-.35-.65-.67.82-.83-.97-.98-.53-.17.4-.74-2.35-.97-1.51-.23.84-.27-6.14-.93-2.99-.66,3.15-1.33-.98-1.62,1.24-.27,2.22-.38-1.16-.73.62-.32,1.78.35.85-.32,1.78-.67.93-1.01-.23-1.16.37-.18.64-.39-1.9-1.01-.13-.62,1.77-.79.18-1.4,1.55-.61,1.37-.88,2.81-1.26.61-.35-2.24.5-4.84-.35-2.24-.88,2.61-1.52.06-1.75.8-.25.73-.35-3.28-.83-1.61-.48,1.67.81-5.98-.44-2.44-1.25,3.57-1.47,1.34-1.79,2.38-.31,1.07-.04-1.15-.64-.12-.6,1.03-1.12-1.38-1.57-.04-.48,1.37-.61-2.01-1.33.4-.71,2.41-1.36-.14-1.41-.58-.06-.41-.09-2.73-.65.08-.58,2.85-.81.18-1.13,1.76-.34,1.58-.76-1.91-1.22-.23-.36,1.2-.03,2.66.01,2.97-.02-.07-.07-.14-.09-.24-.41-1.06.07-5.26-.89-2.22-.96,3.01-.93,5.24-.96,3.01,0-1.45.3-2.62.31-2.79-.02-.03-.12.17-.32.6-.69,1.57-.88.82-1.4,1.41-.52.63-.84-1.27-1.2-.98-.38.33.17-3.57-.6-1.7-.77,1.9-.6-1.6-1.17.71-.57,2.31-1,4.73-1.22,2.39-.24-2.33.12-4.51-.74-2.55-.84,1.97-.57-.42-1.58.6-1.04,1.02-1.09.37-1.64,1.74-.54,1.37-1.66-.04-1.63-.99.03-.94-.08-2.03-.93-.67-.82,1.36-.53-1.7-1.34-.78-.81.92-.94-.13-1.15-.03-.21.1-.65.18-1.16.41-.51.19-.63-.56-1.14-.47-.51.09-.68,1.16-1.04-1.51-.37-2.64.54-3.76-.37-2.64-.88,1.16-.9-.77-1.62-.65-.74.08-1.37-.37-1.47-2.06-.09-1.69.98-4.83-.6-1.8-1.6,3.03-1.94,1.63-2.22,1.83-.28.23-.6-1.8-1.42-.24-.85,1.56-1.22-.88-1.51-.45-.31.4-.89-2.15-.97-1.71-.08.4-.68-1.3-1.01-.26-.31,1.07.79.56-.31,1.07-1.1.48-1.18-1.41-1.65-.38-.47,1.03.06,2.97-.47,1.03-.53-1.9.05-4.31-1.17-2.02-1.22,2.29-2.03.99-2.03.99,0,0-.61-2.01-1.13-.87-.54,1.17.08-3.13-.91-1.37-.99,1.76-1.58-.28-1.58-.28,0,0-.25-3.38-1.04-1.48-.4.97-.23.7-.16.64-.05.13-.22.47-.61,1.23-1.36,2.69-1.68.8-1.64-.79.04-1.58,1.18-3.64.04-1.58-1.14,2.09-1.64-.89-2.02.38-.4,1.24-.49-.65-.89.48-.38,1.17-.39-1.06-1.09.07-.68,1.16-.63-.52-1.17.51-.51,1.03-.48-.22-1.1.61-.58.83-.67-1.6-1.43-.04-.76,1.56-1.58-.58-1.95.45-.4,1.07-.49-.72-1.24-.34,0,0-1.03,1.56-1.23.17-.17-1.35-.58-2.31-.82-1.37-.26.94-1-.47-1.08-.03-.08.4-.46-1.7-.61-1.4s-.01-4.75-.74-2.45c-.71,2.31-1.81.49-2.04,1.12-.22.6-1.04-1.61-1.51-.38-.45,1.27-.76-.97-1.15-.13-.37.83-.72,2.61-.86.18-.16-2.43-.11-4.42-.73-2.11-.66,2.31-.84-1.2-1.46.36-.62,1.57-1.78-.79-2.24.18-.46.93-.13-2.77-1.2-1.01-1.06,1.79-1.97,1.03-2-.26-.06-1.25-.17-2.1-.71-.86-.54,1.27-1.37.17-1.37.17,0,0-.62-1.06-.86-.73-.22.3-.14-2.67-.81-1.51-.68,1.13-1.16-2.49-1.76-1.63-.6.83-1.67-2.34-2.37-.2-.73,2.1-.71-1.17-1.32,0-.61,1.13-.58-2.38-1.2-.84-.62,1.53-.25-3.61-1.31-1.86-1.06,1.76-1.73.05-2.33.78-.6.73-.67-1.5-1.6.26-.9,1.76-1.08-.27-1.18-1.58-.1-1.28,1.02-2.64-.1-1.28-1.12,1.32-.86-.53-1.51-.61-.64-.08-.06-3.04-1.03-1.88-.74.86-1.03-1.95-1.61-1.97-.16,0-.35.26-.6.96-1,3.01-.79.32-1.2-1.01-.19-.65-.1-1.28-.07-1.62.08-.37.1-.44-.19.03-.05.07-.1.13-.14.23-.22.36-.38.39-.49.29-.34-.31-.41-1.76-.85-.9-.61,1.2-.93-.73-1.44.33-.54,1.03-.92-1.1-1.47.47-.55,1.57-.99-.97-1.66.06-.67,1.06-.84-.53-1.39,1.14-.55,1.67-1.1-1.82-1.66-.04-.56,1.77-.48-.86-1.56,1.44-1.05,2.26-1.53,1.21-1.51.36s-.04-1.15-.51.19c-.48,1.37-.5,2.31-.88.21-.36-2.13-.08-4.55-.94-2.05-.87,2.5-2.12.89-2.11.28.02-.64-.65.29-.81,1.02-.18.74-.07-.84-.74.18-.67,1.03-.91-.56-1.38.6-.47,1.13-.77-.66-1.46.26-.67.93-1.38.81-1.56-.35-.2-1.19,0-2.63-.72-.86-.69,1.77-.84-.56-1.5.16-.67.72-1.55.9-1.63-.99-.09-1.89.03-3.81-.74-1.61-.8,2.2-1.43-.68-1.9.15-.44.83-.61-1.47-1.35-.24-.75,1.26-1.3-2.36-2.18.24-.86,2.64-1.45,3.33-1.55,1.78-.12-1.59-.24-2.23-.79-.66-.55,1.57-1.26-1.21-1.57-.04,0,0-.34,1.47-.69.62-.32-.85.57-2.31-.32-.85-.92,1.43-1.28,2.06-1.42,1.21-.12-.85-.55-.86-.78-.02-.23.84.04.95-.75,1.13-.81.21-.68-1.27-1.46.3-.76,1.56-.65.18-1.33,1.55-.68,1.33-.96.58-1.17.71-.21.1-1.05,1.32-1.14-.57-.09-1.89-.3-2.64-.9-1.51-.61,1.16-1.47-.98-1.86-.35-.39.63-1.26-1.21-1.57-.89-.29.3.11-4.21-.66-2.14-.77,2.1-1.26,3.98-1.98,1.73-.75-2.21-.96-2.02-1.5-.98-.54,1.06-2.68-2.26-2.68-2.26,0,0-.31-1.39-.99.07-.69,1.47-.94-2.89-1.7-.99-.79,1.87-.51,2.52-.95.28-.45-2.24-.08-7.15-1.17-4.65-1.08,2.5-1.63,1.3-2.08,2.03-.44.73-.98-1.17-1.5-.14-.54,1.03-.49-.65-1.4.7-.89,1.32-1.76,1.2-2.02.45-.28-.72-.99-1.07-1.28-.54-.31.5-.98-1.21-1.45-.24-.46.93-.42-.65-1.3.37-.9,1.02-.97.92-1.43-.98-.46-1.9-.13-2.73-.82-1.07-.69,1.67-.62-.86-1.47.47-.82,1.36-.79-2.21-1.65-.35-.83,1.87-.53-1.7-1.49-.34-.98,1.32-1.32-2.26-1.96-.05-.64,2.17-1.11,1.86-1.11,1.86,0,0-.9.92-1,1.86-.09.94.13-2.22-.71-.12-.86,2.07-.19,3.47-.86,2.07-.68-1.37-.86-2.32-1.4-.98-.54,1.37-1.41,1.04-1.41,1.04,0,0-.54-1.19-1.15-.17-.61,1.06-.7-.63-1.5-.14-.82.52-.94-.13-1.39.2-.42.29-.93.28-.93.28,0,0-1.11,1.12-1.13-.77-.02-1.89,1.2-4.18-.02-1.89s-1.09.07-1.85,1.2c-.75,1.16-.85-.23-1.31.81-.44,1.07-.91-.33-1.3.3-.39.6-.36-2.78-1.18-1.41-.84,1.36-1.24-4.45-2.04-2.28-.77,2.2-.73.42-1.26,1.45-.54,1.03-1.08-.13-1.37.4-.31.5-.62-.96-1.01-.03l-1.26,1.42s-.65.32-.64-.32-.41-1.16-.94-.03c-.54,1.13-.91-.67-1.54.5-.58,1.13-.7-.66-1.23.37-.51,1.03-.86.31-.98-.53-.14-.85.62-4-.86-.76-1.45,3.23-.71-.02-1.68.56-.94.62-.71-2.95-1.46-1.59-.77,1.33-.37-5.2-1.16-2.46-.81,2.71-1.32.17-2.15,1.73-.85,1.56-1.25-1.52-1.71-.59-.46.93-.07-2.63-.67-1.81s0-2.83-.97-1.71c-.98,1.12-1.06-3.54-2.41-1.18-1.38,2.36-1.93,1.36-2.38,0-.47-1.4-.6-2.48-1.43-.81-.83,1.7-1.08-.3-1.74.39-.67.72-.76-.86-1.29-.24-.52.63-1.37-.54-1.49-1.15-.12-.58,1.01-2.23-.12-.58-1.13,1.66-1.18,1.05-1.64-.75-.46-1.83,1.53-3.87-.46-1.83-1.99,2.07-2.46.57-2.98.86-.52.32-1.15-2.73-1.89-1.87-.76.86-1.28-1.25-1.95-.22-.67,1.03.2-1.48-1.38.7-1.58,2.15-2.08,1.93-2.45.34-.4-1.6-.8-2.79-1.27-1.48-.45,1.34-1.21-.57-1.8.05-.59.59-1.25-1.45-1.57-.72-.3.77-1.57-2.64-2.47-1.72-.88.92-1.47,1.31-1.72-.21-.24-1.52-.3-2.57-1.37-2.2-1.1.41-1.34-1.62-1.85-1.4-.51.19,1.13-4.42-1.09-2.25-2.2,2.17-2.91,1.07-2.89.12.03-.94.19-1.17-.39-.82-.59.39-1.13-.91-1.5-.92s-.93-3.19-1.19-3.61c-.29-.45-1.53-2.37-2.37-.06-.87,2.3-1.06-.77-2.13.99-1.06,1.76-1.53.16-1.96.89-.46.73-.24-2.1-1.31-.34-1.04,1.76-1.41-.78-2.25,1.19-.86,2-1.72,2.18-1.85,1.13-.11-1.05-.27-2.64-.91-.36-.64,2.31-1,2-1.25,1.15-.28-.85-.44-2.64-.85-1.07-.41,1.54-1.6.46-1.66.16,0,0-.16-1.89-.48-1.06-.3.83-.58-.02-.63-.46-.06-.41-.09-1.69-.57-.42-.47,1.23-.83-.76-1.22-.17-.39.63,0-2.73-.64-.12-.65,2.61-1.23,2.83-1.27,1.75-.04-1.05-.09-1.79-.64-.32-.55,1.47-.94-.23-1.68.6-.74.82-2.15-.7-2.52.13-.39.83.56,3.29-.39.83-.95-2.45-.93-3.3-2-1-1.05,2.3-1.07.38-1.84,1.54-.75,1.13-1.14-.47-1.58.26-.46.73-.39-1.8-1.24-.34-.82,1.46-1.39,3.64-1.4,1.31,0-2.29-.12-3.14-.92-.87-.78,2.31-.5-.42-1.4,1.34-.9,1.76-1.84-.89-2.41,1.32-.57,2.18-1.08-.13-1.77,1.54-.69,1.67-1.33,1.41-1.37.37-.06-1.05-.56-1.6-1.16.07-.64,1.67-1.43-.98-2.24.14-.84,1.16-1.28-1.28-1.97.38-.44,1.1-.56,2.78-.75,3.18-.07.2-.19.13-.38-.41-.02-.07-.06-.17-.08-.27-.65-2.24-.79-2.45-1.29-.14-.08.4-.16.64-.21.8-.21.77-.07-.74-.78.52-.83,1.56-.79.32-1.6,1.24-.83.92-.92,1.66-1.22.07-.33-1.59.74-3.45-.33-1.59-1.06,1.86-1.12-1.08-2.03.15-.89,1.26-.9-.87-1.58.5-.68,1.36-.53-1.6-1.27.81-.71,2.41-1.12,2.2-1.45.7-.33-1.49-.4-1.6-.88-.02-.46,1.57-.54-.66-1.37.37-.81,1.06-.77-.63-1.67.29-.88.92-.93,2.71-1.46,1.01-.53-1.7-.5-2.95-1.36-.88-.84,2.1-.97,1.56-1.45.8-.49-.76-1.3.27-1.54.7-.22.4-.4-1.29-1.16.17-.75,1.46-.99-.03-1.45.7-.46.73-.73.62-.99-.77-.26-1.36.09-3.47-.98-1.17-1.05,2.3-1.28,1.96-1.68.7-.38-1.29.08-3.07-.9-.87-1,2.16-.81.08-1.75.9,0,0-.42.29-.85.66-.49-.72-.98-.74-1.07.38-.03.41-.08.68-.13.96-.22.14-.43.13-.59-.03-.03-.2-.07-.33-.1-.61-.07-.72-.16-.82-.27-.74-.19-.27-.53-.29-.84-.12-.05-.14-.11-.26-.17-.48-.68-2.56-1.76,2.07-2.31-.91-.55-2.98-1.9-4.62-2.28-2.5-.37,2.12-.93,4.07-1.22,1.56-.29-2.51-1.02.29-1.6-1.1-.58-1.39-1.58,1.08-2.12-.74-.55-1.82-.98-.21-1.45-1.7-.47-1.48-3.2.23-3.04-.44.15-.67-.73-.83-1.23-.68-.51.18-1.9,1.43-1.9,1.43,0,0-.18,2.15-1.09-.01-.91-2.16-1.65-1.72-2.29-2.29-.65-.6-1.69,1.24-2.16-.31-.46-1.59-.52,2.72-1.17-.28-.65-2.96.48-2.21-.65-2.96,0,0-1.18-1.33-1.47-.21s-.97-.28-.94-.64c.03-.36-.77,2.14-1.08-.16-.31-2.29-.03,2.82-.88-1.36-.85-4.18-.49-1.23-1.25-2.93-.75-1.7-.95,4.36-1.69,1.21-.73-3.15-.69,2.36-1.66-.38-.97-2.75-.57-.34-1.54-1.82-.97-1.45-1.01,2.64-1.5-.22-.46-2.82-.82,2.78-1.92-2.02-1.1-4.8-1.01-1.02-1.88-3.75-.87-2.73-.88,2.19-1.86-.27-.99-2.46-.92.34-2-1.09-1.08-1.39-1.12,3.97-2.13,1.79-1.01-2.18-2.38-.05-2.38-.05,0,0-1.1,3.76-2,1.45-.9-2.31-1.82,5.25-2.44,1.97-.62-3.28-1.37.96-2.01-2.17-.64-3.14-.72-5.76-1.28-3.81-.56,1.95-.94,4.21-1.21,1.42-.27-2.79.23-4.03-.27-2.79-.5,1.23-1.55.79-1.7.19s-.27-.33-.71-1.05-.45.59-.98-.14c-.54-.73-1.95.81-1.95.81,0,0-.65,3.1-1.55.79-.9-2.31-1.42.37-1.67-.24-.25-.62-.66,3.24-1.49,1.23-.83-2-2.69,1.35-3.28-1.2-.59-2.55-1.6-2.26-2.1-1.03-.5,1.23,1.25,4.1-.5,1.23-1.75-2.86-1.01,2.61-1.55.79-.55-1.82-1.43.52-1.64-.53-.21-1.05-.68,2.22-1.39-.06-.71-2.28-2.13-1.9-2.21-.9-.05.61.22,1.81.29,2.18-.02,0-.14-.38-.38-1.18-.86-2.88-2.28-.04-2.28-.04,0,0-.2.3-.45.62-.18.05-.36.2-.53.43-.28.14-.55.03-.64-.71-.08-.59-.18-.57-.3-.3-.07-.3-.17-.35-.34.2-.21.7-.48.73-.74.51-.13-.27-.28-.48-.45-.57-.19-.39-.34-.74-.34-.74,0,0-.93-3.18-2.23-.61-.36.71-.53,1.05-.56,1.04.13-.34.59-1.44.64-2.05.08-1-1.24-1.77-2.3.25-1.06,2.02-.99-1.3-1.36-.34-.38.96-.86-1.57-1.69.05-.83,1.62.78-3.51-1.39-1.22-2.17,2.3,0,0-.29-1.35s-1.23-1.92-2.22.41c-.98,2.32-2.26-1.49-3.39.23-1.13,1.72-.91-2.16-1.26-1.63-.34.53-.41-2.23-1.67-.24-1.26,1.99-1.39-1.22-1.39-1.22,0,0-1.13-1.9-1.78-1.34-.64.56-.44-.72-.98-.14-.54.57-.62.27-.86.82-.24.54-1.35.68-1.63-.67s0,0-.71,2.65c-.71,2.65-.72.33-.95-1.73-.23-2.06-.73.47-1.86,3.36-1.13,2.88-1.17-1.47-2.31,1.55-1.14,3.02-.81-4.61-2.07-2.62-1.26,1.99-1.72-1.99-1.72-1.99,0,0-.99-2.46-2.33-.63-1.34,1.84-.51-3.41-1.79-2.36-1.28,1.08-.76-1.63-2.12.49-1.37,2.12-.57-2.69-1.86-.27-1.29,2.42-.59-1.24-2.44,3.13-1.85,4.37-1.29-1.2-2.2,1.42-.91,2.66-.29-1.35-1.47-.21-1.21,1.17-.41-1.07-1.82,1.33-1.39,2.41-.45-2.96-1.68-.1-1.23,2.87-.44-3.11-1.45-1.66-1.01,1.45-.19-1.33-1.7,2.51-1.51,3.84-.41-1.07-1.08,1.08-.67,2.15-1.05-.51-1.08-.16s-.92,1.53-1.02.36c-.1-1.17-1.47-.21-1.47-.21-1.22.4,0,0-1.12,2.7-1.12,2.74-.47-1.48-1.19-.06-.71,1.38-1.43-.71-2.16-.31-.73.37-1.37-.27-2.61,1.58-1.24,1.85-1.07-.3-1.07-.3,0,0-1.16-1.62-1.63-1.94-.47-.29-1.36-.38-1.32.32.04.69-2.34-1.75-3.04-.44-.7,1.31-.86-.38-1.69,1.24-.83,1.62-1.4-1.07-2.19.12-.79,1.19-1.05-1.75-1.74.62-.69,2.36-.92.3-.94-1.88-.02-2.18-1.61-.96-2.63,1.79-1.02,2.75-1.32-2.07-2.4.23-1.08,2.31-.9-1.14-1.47.95-.57,2.09-.93,1.61-.75-.54.18-2.15-1.73-.69-2.58,2.38-.85,3.07-.98-2.61-2.07,1.01-1.09,3.61-.67-1.55-1.02.29-.35,1.83-1.51-2.1-2.49.08-.82,1.84-1.71,1.49-1.71,1.49,0,0-2-3.48-2.57-1.39-.57,2.09-1.11-1.03-1.98,1.16-.87,2.19-1.08-2.62-2.61.35-1.53,2.97,0,0-.24-1.92-.24-1.92-.78-1.42-2.2,2.58-.25.69-.44,1-.61,1.17-.13.04-.27.06-.4.04-.5-.51-.71-2.82-1.39-1.27-.03.06-.04.08-.07.13-.13.11-.26.07-.55-.95-.63-2.15-.81-1.56-.94.38-.09.03-.2.13-.33.46-.09.22-.17.36-.25.44-.21-.49-.46-1.22-.77-1.85-.77-1.5-.83,1.02-1.25.27-.2-.39-.43-.17-.69-.01,0,0,0,0-.02,0-.06.02-.07.03-.11.04-.22.09-.46.11-.74-.37-.71-1.2-.83.72-1.76-1.63-.95-2.35-.97-1.51-2.05.89-1.08,2.4,0,0-.35-.85-.32-.85-1.82.59-2.51-.27-.69-.86-1.18.81-1.64-.68-.47-1.5-.56-.76-.65.29-.1,1.08-.67.82-1.17-1.82-.51-2.64-.3.73-.65.08-.35-.62-.82,1.36-1.23.1-.4-1.29-.51-.01-.59.39-.08.44-.4,1.27-.66.42-.28-.85-.54,1.03-.54,1.03-.08.3-1.33,1.31-1.65-.25-.33-1.59-.58.19-.9,1.02-.3.84-.68,1.13-1.19-1.21-.51-2.31-.76-.73-.93.31-.19,1.04-1.04.81-1.79-1.23-.73-2.01-1.24.51-2.18-1.31-.97-1.81-.9,1.02-1.32.27-.39-.75-.94.82-1.91-1-.97-1.81-1.33,1.25-2.07-1.1-.72-2.35-2.06-.49-2.37-.06-.29.4-1.02,3.55-1.39,3.54s-.98,1.25-1.54.83c-.57-.39-.41-.15-.44.8-.03.94-.79,2-2.88-.28-2.11-2.28-.71,2.41-1.21,2.19-.5-.25-.85,1.76-1.93,1.3-1.05-.43-1.17.61-1.49,2.12-.34,1.51-.91,1.09-1.73.12-.85-.97-2.3,2.37-2.56,1.58-.28-.75-1.05,1.25-1.61.63-.56-.66-1.42,1.21-1.8-.15-.4-1.33-.87-.16-1.35,1.41-.46,1.57-.97,1.76-2.43-.47-1.46-2.26-.72.28-1.34-.78-.62-1.06-1.25,1.01-1.96.12-.69-.9-1.49,2.12-1.99,1.77-.5-.32-1.05,1.15-2.93-1.02-1.88-2.14,0,0-.56,1.81-.56,1.77-.64,2.38-1.68.66-1.04-1.71,0,0-.15.57-.15.6-1.06,1.72-1.55,1.07-.49-.65-.67.93-1.3.17-.63-.73-.98,1.25-1.72-.48-.74-1.71-.93-.63-1.47.74-.52,1.33-1.12,2.3-2.37-.13-1.23-2.43-1.56,2.22-2.47,1.05-.91-1.17-.51,2.51-1.06,1.66-.55-.86-.35,2.72-.76,1.77-.41-.96-.98,2.1-1.74.49-.74-1.6-1.39.91-2.05-1.84-.64-2.78-.59,3.76-1.29,2.39-.68-1.4-.64,2.17-1.54,1.51-.93-.63-.37,2.65-1.64-.65-1.29-3.31-.71-.12-.9.72-.16.84-.55,1.54-1.01.48-.48-1.06-.69.72-1.21-.44-.57-1.2-1.03.58-1.51-.58-.48-1.16-.93-.67-.94-.03s-.65.29-.65.29l-1.18-1.48c-.34-.95-.73.49-1.01-.03-.26-.55-.87.58-1.35-.48-.48-1.06-.53.73-1.18-1.52-.68-2.21-1.39,3.57-2.16,2.17-.75-1.4-.91,1.96-1.26,1.35-.35-.65-.9.72-1.28-.37-.41-1.06-.59.32-1.27-.88-.71-1.17-.7,1.06-1.79-1.3s0,0-.12,1.89c-.12,1.88-1.17.71-1.17.71,0,0-.51-.01-.91-.33-.43-.35-.58.29-1.38-.27-.77-.53-.95,1.15-1.5.06-.55-1.06-1.16.1-1.16.1,0,0-.88.28-1.35-1.12-.47-1.36-.7-.42-1.45.9-.75,1.36,0,0-.75-2.11-.73-2.14-.67,1.03-.72.08-.04-.95-.89-1.91-.89-1.91,0,0-.49.29-1.01-1.92-.52-2.24-1.05,1.32-1.96-.05-.88-1.41-.77,2.17-1.51.26-.76-1.91-.92,1.66-1.67.26-.77-1.37-.84,1.16-1.44-.54-.6-1.7-.32-.85-.88,1.02-.56,1.87-.63,1.97-1.48.9-.82-1.07-.87.52-1.28-.44-.41-.99-1.17.68-1.46.16-.26-.55-.99-.23-1.3.47-.3.73-1.18.81-1.99-.56-.84-1.4-.88.28-1.36-.78-.46-1.06-1.11.81-1.5.06-.42-.75-1.03.41-1.97-2.14-.95-2.55-.85,2.37-1.42,4.58-.57,2.21-.25,1.58-.94-.33-.66-1.94-1.15,2.4-1.75.9-.61-1.5-.99-.13-.99-.13,0,0-2.32,3.21-2.8,2.12-.48-1.06-.68-1.27-1.55.9-.84,2.2-1.23.3-1.89-1.84-.66-2.11-.5,2.41-.77,2.1-.29-.34-1.26,1.45-1.61.8-.35-.65-1.33,1.45-1.88.25-.55-1.16-.8-.43-.98,1.46-.19,1.88-.96.62-1.17.51-.2-.14-.52.59-1.13-.77-.61-1.4-.58-.02-1.25-1.62-.7-1.6-.64-.12-1.44-.38-.78-.22-.5-.32-.68-1.17-.18-.85-.62-.86-.78-.02-.18.84-.51.19-1.35-1.28-.81-1.51,0,0-.37.83-.39.83-.65-.66-.65-.66-.24-1.19-1.1,1.56-1.57-.04-.46-1.6-.62-.96-.82.62-.18,1.55-.74.82-1.45-1.86-.74-2.65-1.48.94-2.16-.36-.68-1.27-.97,1.02-1.37.17-.42-.85-1.21,1.99-1.88-.25-.65-2.24-.64-.32-.83,1.56-.19,1.88-1.06,1.66-1.68.9-.63-.76-.9,1.56-1.49-.24-.62-1.8-.5-.35-.76.82-.24,1.14-.96,1.22-1.58.26-.64-.96-1.04.81-1.44-.34-.41-1.19-.73.38-1.34-.68-.62-1.06-.59.52-.73-.22-.12-.74-.74-1.71-.76-1.07-.02.61-1.35,2.16-2.09-.39-.72-2.55-.57-.12-1.05,1.99-.49,2.08-.47,1.13-.87-.26-.4-1.36-.48-1.06-.5-.22-.02.84-.56,1.87-1.49-.44-.95-2.35-1.02.28-1.48-1.52-.46-1.8-1.2,1.65-1.66-.04-.46-1.7-.71-.12-1.33-1.22-.62-1.06-1.19,1.45-1.66-.15-.46-1.6-.96.51-1.44-.54-.45-1.09-.88.82-1.42-.41-.39-.89-.55.56-.9.85-.12.1-.28.06-.48-.32-.04-.1-.09-.17-.13-.24-.26-.48-.24-.41-.18-.04.01.34.07.98-.16,1.61-.47,1.3-.41,4-1.25.94-.21-.71-.39-.99-.55-.99-.58-.02-1.02,2.77-1.71,1.88-.91-1.2-.49,1.77-1.13,1.82-.65.05-.49,1.91-1.54.53-1.05-1.41,0,0-.17,1.28-.17,1.31-.46,3.33-1.26,1.52-.83-1.81-1.03.41-1.58-.35-.56-.76-1.32.91-2.28-.9-.97-1.81-.88,3.35-1.41,1.78-.53-1.57-.7,1.94-1.24.78-.54-1.19-.7,2.07-1.31-.07-.59-2.17-1.82.93-2.38.07-.55-.89-1.23,2.7-1.84,1.53-.61-1.2-.69,1.77-.89,1.46-.22-.34-.89.68-.89.68,0,0-.88,1.06-1.35-.24-.47-1.26-.63-.42-.76.82-.1,1.28-1.05,1.99-2.01.15-.97-1.81-.84,1.9-1.25.94-.41-.99-1.7,1.3-2.23-.3-.53-1.6-.9,1.9-1.44-.44-.49-2.34-.54-.35-.84,2.07-.27,2.42-.52.63-.85-.23-.35-.85-.78,1.36-1.16.07-.4-1.26-1.34.91-1.53.3-.19-.65-1.39,1.11-1.97-1.23-.61-2.34-.74,2.71-.87,2.4s-.62,1.77-.68,1.36c-.06-.44-.88.92-1.08-.03-.18-.95-.65-.02-.89,1.32-.27,1.38-1.22-.23-1.22-.23-.73-.42-.91,1.36-1.25.27-.32-1.05-1.25,1.05-1.92-.56-.67-1.6-.9.82-1.43-.04-.58-.86-.61.39-1.07-.67-.48-1.06-.52.63-1.14-.57-.64-1.16-.77,1.06-1.08-.13-.34-1.16-.53.73-.86-.53-.31-1.29-.97,1.66-1.99-.49-1.03-2.12,0,0-.04,1.58-.04,1.58-.46,3.46-1.68.7-.35-.79-.5-1.13-.54-1.26.07.07.22.34-.12-.64-.69-1.94-1.12,1.42-1.12,1.42,0,0-.7,2-1.6.19-.9-1.81-.51,2.51-.98,1.32-.45-1.16-1.18.81-1.18.81,0,0-.89,1.26-1.98-1.1-1.09-2.36-.65.08-1.28,1.96-.63,1.91,0,0-.41-1.06-.41-1.06-.6.83-1.67.29-1.07-.57,0,0-.25-1.09-.27-1.05-.96.61-1.02.21-.06-.44-.77,2.07-1.06,1.66-.26-.45-.77,1.97-1.53.36-.74-1.61-1.16.41-1.43.16-.27-.21-.68,1.16-2.12-1.95-1.42-3.11-.51.09-.69,1.77-.18,1.68-.84,2.1-1.58,1.98-.71-.15-.83,1.77-1.65.56-.84-1.17,0,0-.51,2.62-.51,2.65-.62,1.57-1.12,1.45-.5-.12-.66.62-1.16.41-.5-.25-.94-.36-1.14-.47-.2-.11-.39.93-1.15-.03-.76-.96-.63,2.11-1.38.7-.77-1.4-.94-.33-.96.62-.03.94-1.22,2.29-1.68.9-.47-1.4-.56-.76-1.54-1.83-.96-1.07-.82,1.33-1.55-.68-.75-2.01-.51.19-.87,2.51-.34,2.32-.64-.12-1.09-2.46-.44-2.34-.47,1.17-1.13-.77-.66-1.91-.33,2.01-.69,1.67-.34-.31-.76,1.56-1.25.91-.49-.62-.72.12-1.32-1.49-.17-.44-.26-.65-.28-.61,0,.17.24,1.35.15,2.8-.15,2.22,0,0-.79-3.06-.79-3.09-.54,1.13-1,2.16-.03.1-.07.17-.1.23.05-.3.46-1.74.17-2.96-.37-1.7-.97,1.76-1.23.17-.23-1.59-.61,1.06-1.03-1.81-.41-2.84-.56-.52-.64-.12-.08.44-.86,2.94-1.44.5-.58-2.44-.9.92-1.3-.47-.38-1.36-1.02,1.02-1.57-.04-.55-1.06-.4,1.17-.65.08-.27-1.05-.61,1.16-1.66-2.47-1.06-3.6-.18,4.11-.57,2.41-.39-1.7-.71,2.31-.92,1.56-.19-.75-.97,1.76-1.71-.89-.71-2.65,0,0-.47,2.21-.5,2.18-.69.72-1.23-.67-.54-1.4-.79.18-1.32-1.62-.53-1.8-.87.72-1.02.07-.12-.61-.52.53-1.14-.44-.62-.96,0,0-.23-1.79-.25-1.79-.55,1.57-.7-.66-.17-2.23-1.06,1.86-1.56-1.32-.49-3.18-.91,3.79-1.09,2.94-.18-.85-.9,1.86-1.05,1.46-.13-.44-.38,1.34-1,.48-.65-.86,0,0-.39.63-.14.23-.2.47-.18.67-.25-.28-.7-.59-.7-.59.22.44-.33,2.12-1.27-.67-.28-.82-.85,2.4-1.05,1.15-.17-1.29-1-2.35-1.23-4.99-.23-2.64-.66,2.92-1.46.26-.78-2.65-.85,2.4-1.24.51-.36-1.9-.69-.76-.81.92-.11,1.68-.84,2.1-1.23.17-.39-1.9-.56-.52-.61,1.26-.05,1.79-.9.92-1.28-.37-.4-1.26-.76.62-1.13-.74-.4-1.39-.76.82-1.2-.67-.47-1.5-.67.18-.97-1.61-.32-1.8-.97.92-1.28-.47-.33-1.36-1.17.51-1.63-.99-.19-.61-.24-.68-.24-.68-.02,0-.07-.1-.24-.58-.47-1.29-2,1.43-2.37-.27-.39-1.7-.74,2.71-1.06,1.52-.34-1.19-1.4,1.34-2.01-.9-.59-2.21-.77-.63-1.11.81-.32,1.44-.31,1.37-.94.72-.63-.62-.79.32-1.36-.78-.52-1.09-.87.62-1.57-.04-.72-.66-.49,1.91-1.03.71-.55-1.16-1.14,1.89-1.69,1.03s-.47,1.34-.79.08c-.33-1.29-.93,1.96-1.12,1.42-.19-.51-1.34,1.65-2.1.18-.74-1.5-.74,3.65-1.22,2.5-.48-1.19-.95,1.12-1.43.06-.48-1.06-.95.28-1.34-1.52-.37-1.8.1,4.86-.11,4.21-.19-.65-1.11,1.76-1.67.39-.52-1.4-.6,1.87-.68,1.13-.05-.74-.99-2.45-.99-2.45,0,0,.49,5.71-.68,3.05-1.15-2.66-.5.59-.64,3.02-.16,2.42-1.05,1.15-1.65-.45-.6-1.6-.99,1.46-1.52-.04-.54-1.5-.75,1.33-1.5-.98-.72-2.35-.88.92-1.03-.97-.18-1.93-.55-1.7-.84,1.02-.28,2.72-.73-1.91-.98-3.74-.23-1.79-1.18.95-1.64-.89-.46-1.8-.3.73-.88.82-.58.12-.54-4.09-.54-4.09l-1.21-.57.04-1.58c.02-.64-.85,1.56-.85,1.56l.05-1.79s-.83,1.77-1.25,1.01c-.42-.75-.82,1.46-1.15-.03-.33-1.49-.8.42-.78-.22s-.8-.36-1.44-3.21c-.64-2.85-1.17,3.14-1.4,1.34-.25-1.79-1.54.46-2-1.13-.47-1.56-.52.63-.84-.63-.33-1.29-.75.59-1.13-.77-.4-1.39-.77,1.33-1.1.48-.35-.85-.7-.73-1.63-3.52-.94-2.76-.54,3.69-1.2,1.75-.66-1.91-.54,1.37-1.14-.44-.6-1.8-.7,1.87-1.53.16-.81-1.71-.59.42-1.13-.77-.55-1.16-.33,2.01-.87.52-.54-1.5-.48,1.47-.96.51-.48-.99,0,0-.93-3.19-.91-3.19-.58,2.72-1.31.71-.73-2.04-.28,2.82-.74.82-.45-2.04-.8,3.01-1.18.91-.38-2.13-.42,1.98-.86-.46-.42-2.44-.54,1.91-.84-.43-.31-2.33,0,0-.29-2.74-.27-2.77-.77-.66-1.29-2.46-.53-1.8-1.01,2.27-1.34,1.65-.35-.65-.94,2.27-1.27,1.75-.35-.55-.74.08-1.22-1.08-.48-1.19-.52.39-1.03-1.21-.56-1.6-.61.42-.85-.87-.24-1.25-.81,1.02-1.79-.45-.97-1.51,0,0-.99-3.63-.99-3.6-.74,3.49-1.28,1.99-.54-1.5-.62,1.67-1.1.48-.48-1.16-.36,2.32-.97,1.05-.61-1.3-1.31.81-1.72-.38-.38-1.16-.4,2.01-1.55-.78-1.15-2.76,0,0-.45-2-.45-2-.9,3.45-1.28,2.29-.41-1.19-1.14,2.06-1.35,1.31-.19-.71-.35,2.65-.86.31s-.75,1.13-1.8-.05c-1.05-1.21,0,0-.21-.95-.18-.95-.94.58-1.22.07-.26-.55-.49-.75-.61-1.4-.12-.64-1.19,1.35-1.19,1.35l-.05-.64c-.05-.64-.67.93-.67.93l-.55-.86c-.2-.41-.58.19-1.19-1.28-.61-1.5-.26.94-.92-1.1-.66-2.01-.69,1.67-.69,1.67,0,0-.63,2.01-.99,1.46-.33-.52-.36,2.96-1.1,1.45-.77-1.5-.9.92-1.38-.14s-.41,1.57-.62,1.67c-.21.1-.53-1.7-.53-1.7,0,0-.33,2.08-1.09.17-.73-1.91-.78,2.51-1.33,1.45-.55-1.09-.61,1.33-1.2-.77-.59-2.14-.64,2.31-.84,2.2-.23-.14-.8-.26-1.11-1.51-.33-1.29-.55,1.47-.55,1.47,0,0-.55-.86-.84-1.51-.26-.65-.88,1.02-1.01-.03-.11-1.08-.67.93-.92-.02-.27-.99-.74.18-.91-1.31-.17-1.45-.75,1.26-.75,1.26,0,0-.57-.35-1.16-2.26-.55-1.73-.14,1.58-.08,2.16-.15-.41-1.05-3-1.1-3.67-.07-.71-.75,3.69-.75,3.69,0,0-.81,2.51-1.34,1.01-.54-1.5-.64,2.21-.64,2.21,0,0-.83-.97-.85-.12s-1.15,2.6-1.15,2.6c0,0-1.33-2.06-1.65-3.11-.34-1.05-1.42-1.18-1.6.16-.18,1.38-.24,1.38-1.89-1.64-1.65-2.98-1.19,1.25-2.57-1.42-1.36-2.7-1.49,2.39-2.88-.08-1.36-2.46-1.06,1.76-1.87-.05-.8-1.84-1.07,2.16-2.17-.06-1.09-2.26-.7,4.5-1.93,2.14-1.23-2.33-1.37,2.73-2.61,1.01-1.27-1.72-1.03.58-2.08-3.33-1.05-3.94-.91,1.12-2.31-.06-1.42-1.22-.61,1.33-1.29-.03-.7-1.4-.1,3.67-1.85,3.63s0,0-.4-.42c-.43-.45-1.2,1.65-2.16-.29-.96-1.91.63-1.87.12-4.41-.51-2.54-1.11,3.34-2.07,1.33-.94-2.05-.91,1.97-1.48,1.95s-1.61.6-2.02-.26c-.39-.85-1.02,1.02-1.45.6-.43-.45-1.46,1.01-2.52-2.5-1.06-3.54-1.96,2.37-4.14-2.34-2.18-4.68-1.25,3.54-2.46.57-1.21-3-.82,3.75-1.47,1.55-.68-2.24-.56,4.5-2.31-.06,0,0-1.11,3.44-1.81,1.94-.67-1.5-1.17.61-1.95-2.04-.78-2.68-.9,1.56-1.45-.04-.51-1.6-1.02.92-1.15-.03-.11-.98-.78-2.65-1.06-3.3-.26-.65-1.5,2.49-2.78,2.02-1.28-.44,0,0-.81-2.55-.78-2.55-1.03.41-1.42-.24-.42-.65-1.32,1.01-1.73.16-.42-.85-.63,1.91-1.14-.64-.51-2.54-.77,2.07-1.67-2.37-.9-4.44-1.78,1.84-3.04-.28-1.23-2.16-.94,3.35-1.75,1.64-.83-1.71-.79,2.07-1.47.8-.68-1.3-1.05,1.22-2.48,1.18-1.45-.04,0,0-1.47-4.46-1.47-4.46-.7,4.6-1.07,2.06-.35-2.54-1.07,2.1-3.39-2.62-.7-1.44-.98-1.98-1.03-1.95,0,.24.96,3.03.81,5.11-.22,3.16-1.23,2.93-1.75.8-.52-2.11-1.75.8-2.75.13-1-.63-1.78,1.87-2.29-.67-.51-2.54-1.61,1.64-2.44-.07-.83-1.71-1.18.81-1.86-.29-.69-1.06-1.03.41-1.59-.25-.56-.66-1.45.8-2.3-.26-.85-1.07-1.01-.23-1.74-4.7-.76-4.44-.99,4.19-1.39,2.73-.37-1.49-.4,4.61-1.1,4.05-.7-.52-.55,4.1-1.17.71-.62-3.39-1.17,5.87-2.44,4.99-1.29-.88-.07,2.6-.07,2.6,0,0-1.12,3.71-1.94,2.54-.85-1.14-1.49,1.31-2.31-.06-.84-1.37.15-.54.06-2.09-.12-1.55-1.62.87-1.62.87l-.42-.65c-.42-.62-1.15-.03-1.15-.03l-.5,18.63-.83,30.87-.44,16.2,2.56,5.67,3.23-5.51-.15,5.59,3.68,6.84.17-6.17,5.39.15s6.21-.95,6.57.18l.34,1.12,3.13-1.03-.17,6.17,4.63.13-.15,5.63,3.2-4.4s2.75-1.61,3.86.1c1.11,1.72,3.35,4.57,3.35,4.57l2.68.07,5.53-4.33-.12,4.48s3.41,2.35,5,.14c1.61-2.22,4.73-3.82,4.73-3.82l4.38-4.43-.14,5.12s1.65-4.44,2.71-1.04l1.07,3.4,4.46-7.26,3.47.09-.14,5.12,4.37-5.01,1.76,2.37.4-1.14.45-1.17,1.16.03s1.85-.86,2.13-.85c.3,0,.83-1.66.83-1.66l.84.43.06-2.39s1.28,2.29,1.3,1.72l.11-4.21c-.02.74.46,2.57.59,3.02-.1-.61-.59-3.76.1-2.69.73,1.13,1.18,2.56,1.18,2.56,0,0,.42-1.98.88-.95l.46.99s.7-1.13,1.07-.27c.37.85.7,2.28.7,2.28,0,0,.64-2.24,1.27-.81.66,1.43.98,3.2.98,3.2,0,0,1.25-3.27,1.71-2.55l.47.72s1.01-1.39,1.56-.26l.55,1.16s1.24-2.93,1.48-1.51c.26,1.39.2,3.68.69,2.62.51-1.03,1.09-4.25,1.71-2.28l.62,1.97s.82-1.36,1.29-.64l.44.69s1.53.92,1.93.42c.38-.5,2.16-2.13,2.16-2.13l-.04,1.41s.38-2.96,1.19-1.08l.83,1.84s.61-1.26.89-1.26c.09,0,.18.14.25.28,0-.24.1-.4.45-.39.95.03,2.63-1.48,2.9-.19.24,1.25,1.42.44,1.42.44.84,1.44,1.17-.51,1.65-.09.47.45,1.29-1.65,1.66-.53.34,1.16.45-2.79,1.27-.81.8,2.01,1.5-2.32,1.93-.49.44,1.83,1.06-3.21,1.75-.53.71,2.68.91-1.22,2.01,1.03,1.1,2.29,1.39-1.78,2.22.06.81,1.84.67-3.49,1.66-1.51,1.01,2.02.94-2.33,1.85.22.88,2.55.68-.29,1.58,1.56.92,1.88,1.05-2.77,2.14-.35,1.09,2.42.72-1.8,1.73.18,1.01,1.98.28-3.5,1.21-2.06.93,1.41.02-4.08.95-2.67.91,1.44.91-2.07,1.29-1.48l.36.55s-.65-4.37.09-3.23c.76,1.17,1.66-.46,1.74-.12.11.34-.12-6.01,1.23-2.87,1.37,3.11,1.84.59,2.25,2.59.43,1.97.76-2.24,1.06.03,0,0,.9,1.71,1.55,3.28.83,1.98,2.95,1.33,3.14,2.18.16.85,1.65-1.2,1.85-.79.17.44.67-3.22,1.68-1.2.99,1.98,1.46-1.11,2.01.05.55,1.13.91-.99,1.64.04.74,1,.97-4.36,1.92.05.95,4.38,1.94.05,2.37,1.45.45,1.43.93-5.17,1.98-1.33,1.05,3.81,1.79,1.3,2.62,2.6.85,1.27,1.78-1.81,2.53-.37.73,1.44.95-3.35,1.88-2.04.94,1.27.83-2.51,1.67-.8.81,1.71.92-2.5,1.84-.52.92,1.98,1.26-.54,1.7,1.46.43,1.97.87-4.06,1.25.03.38,4.06.62,1.97,1.07,3.4.45,1.39,1.21-2.09,1.65-.39s1.18-.95,1.55-.09c.35.85.79-1.09,1.18-.81.18.14.09-.6.07-.91.06.17.15.54.29,1.19.71,2.99.06,1.28.71,2.99.63,1.7.77-.25,1.22,1.01.45,1.26.99-1.52,1.73.05.72,1.57,1.78,1.73,2.05,2.15.29.45,1.58-4.31,2.58-2.02,1,2.29,1.46-.94,2.01.05.55.99.48-3.36,1.76-.8,1.3,2.56,1.39-.94,2.01.9.62,1.84.53-1.81,1.43.04.92,1.85,1.56-.4,2.19,1.31.63,1.7.67.02,1.51,1.59.81,1.57,1-2.06,2.02-.22,1.02,1.85,1.46-.1,2.28,1.17.84,1.3.85-2.37,2.23-.34,1.4,1.99,1.76-.93,2.12.46.33,1.43.67,3.52.84,3.97.2.41.83-1.66,1.36.17.53,1.83.29-.26,1.42.75,1.13,1.01,2.32-3.44,3.14-1.33.8,2.15.86-.11,1.71,1.02.82,1.17.45-2.79,1.76-.93,1.29,1.86,1.89-2.34,2.89.21.97,2.56,1.01-2.2,1.74-.22,0,0,.39,2.81.91,1.58.52-1.27.94-2.37,1.16-.24.24,2.1,1.21-2.09,1.61,1.16.4,3.25.44-1.54,1.49,2.3,1.05,3.81,2.1.09,2.46,1.35.36,1.26-.05-4.82,2.12.5,2.17,5.35,5.35,1.49,5.8,3.06.44,1.56.77-3.76,1.78-1.77,1.01,1.98,1.71-2.62,2.05-1.23.36,1.43,1.57-4.17,2.59-2.29,1.01,1.85,1.66-5.01,2.89-3.29,1.2,1.72,1.17-.54,2.15,1.74,1,2.25,1.17-.54,2.03.19.84.73.88-.95,1.85-.93.97.03,1.79-1.94,2.55-1.79.78.19,1.17-4.01,1.63-3.02.46.99,1.99-2.64,2.54-1.35.54,1.3,2.22-.07,2.61.07.39.15.37-3.36,1.37-1.08,1,2.25,2.74,2.17,2.74,2.17,0,0,1.26-3.74,1.7-2.18.44,1.53.83-2.37,1.75-.39.92,1.98,1.59-1.51,2.41-.2.85,1.27,1.65-3.77,2.13.06.48,3.79,1.96-4.73,2.38-2.6.43,2.1,1.85-.79,2.5.07.65.86.64-2.24,1.68-1.24,1.04,1.01,1.05-2.77,1.88-2.04.86.7-.28-4.39.94-2.37,1.2,1.99,1.68-2.21,2.11-.08.43,2.1,2.15,2.72,2.49,1.18.32-1.54-.78-3.83.32-1.54,1.1,2.29,1.45.17,1.82.32.39.18,1.43-2.32,2.07-1.06.64,1.3,1.26-.24,1.19,2.29-.07,2.53,1.26-.54,1.54.58.25,1.15.69-.82,1.83-.09,1.14.74,2.54-1.31,3.09-.46.56.86.04-1.55,1.24.3,1.2,1.85,1.47-.4,2,1.47.53,1.84,1.45-.53,2.31.06.84.56.85-3.21,1.95-1.09,1.1,2.15,1.03-2.06,2.19,1.21,1.16,3.23,1.61,1.29,1.64.04.02-.84-.71-2.18-.7-2.24.02-.03.23.24.74.96,1.67,2.3,2.49.51,2.49.51,0,0,.34-1.54.77-.15.45,1.43,1.58-.94,1.74-.09.19.85.89-.52,1.43,1.18.53,1.7,1.2-1.65,2.22.06.66,1.13,1.41.78,1.84.42.07.17.18.34.35.62,1,1.58,2.22-.92,2.34-.91h.09s-.12,4.52-.12,4.52c0,0,.72,2.38,1.36,1.15.61-1.26.83-1.6,1.19-.34.36,1.22,1.25-2.53,2.04.8.81,3.29.59.49,1.71,2.78,1.12,2.26,3.07.49,3.56.1.5-.43.18-3.13.92-1.56.74,1.61.86-2.54,1.78.05.93,2.59,1.68.48,2.62,1.49.97,1.04,1.22-.44,2.05,1.3.83,1.74-.87-.43.83,1.74,1.72,2.14,2.62-1.78,3.54,1.07.92,2.82,2.5-.78,2.52-1.48s-.31-3.08.72-.96c1.03,2.15,1.93-2.14,2.2-.88.24,1.22.34-2.22,1.57.04,1.21,2.26,1.55-2.39,2.5-.94.93,1.41,2.23-6.41,3.54-3.41,1.31,2.97,1.27.1,1.5-.63.23-.74,1.51-1.07,2.08.06.55,1.09,1.47.41,2.04.73.59.29,1.21-.27,2.27.06,1.08.3,1.79-.26,2.48.07.69.29,1.18-.14,1.99.05.78.16,1.57-3.13,2.4-1.32.83,1.81,1.1,2.93,1.84,1.43.74-1.53.7-3.49,1.53-1.88.86,1.64-.16-.92,1.67.69,1.83,1.6,2.07-.35,2.57.07.47.45,2-1.16,2-1.16,0,0-.22-3.92.22-4.75h.42c.09.12.22.32.35.63,1.4,3.14,1.97.8,2.33,2.05.36,1.29.64-1.53,1.4-.54.76,1.03,1.34-2.49,2.21-1.36.85,1.17.23,1.83,1.99-.72.07-.07.1-.13.17-.23l36.8-.69c.43.32.8.36,1.04,0l3.5-.07s.07.07.11.1c.42.55.9.06,1.3-.13h.39c.09.05.2.15.27.35,0,0,1.53,2.57,2.06,1.03.2-.57.38-1.07.55-1.44h.9c.48,1.12,1.47-.31,2.01.96.57,1.3,1.4-.37,2.16.63.6.79.97-.82,1.25-1.72l3.13-.05c.51.69.88-.18,1.7.65.95,1,1.31-1.35,2.42,1.21,1.13,2.56,2.8-.77,3.35.93.53,1.7,1.75,4.53,2.64.75.34-1.41.35-2.76.31-3.73l.58-.02c1.39,3.41,3.19,2.61,3.76,2.9.59.32,1.14-2.06,1.81-.93.66,1.13,2.14-2.03,2.8-.63.66,1.43,2.1-1.33,2.56.37.44,1.7.83-1.53,1.59-.53.76,1,2.32,1.61,2.67-.2.11-.5.23-.94.38-1.27l1.3-.03c.11.21.22.48.33.79.81,2.42,2.99,2.47,3.46,3.03.49.59.7-.25,1.47.48.77.73,1.61-.66,2.18-.21.59.42,1.5-.67,1.88-.25.38.45.33-1.1,1.1-.51.77.56.67-2.51,1.62-.8.93,1.71.79.02,2.31,1.88,1.52,1.86,2.1-.52,2.77.48.64,1,.53-1.54,1.76-.22,1.26,1.28.86-1.66,2.3-.21,1.44,1.42,1.57.04,2.73.75,1.16.74.95-1.66,1.6-.8.67.86,1.66-2.18,2.31-.78.63,1.43,1.43,2.03,1.47.48s.46-2.52,1.09-.24c.61,2.24.64,1,1.89,2.71,1.23,1.72,1.5-.8,2.07.33.55,1.13.97.16,1.56.62.57.42,1.7,3.11,1.77.59.07-2.53-.74-6.19.85-2.34,1.56,3.82,1.79-.12,2.68,2.74.92,2.82,2.21,3.13,2.24,1.81s-.03-3.3.82-1.33c.83,2.01,1.33,1.42,2.02,1.4.7-.05,1.93,2.38,2.03-1.43.1-3.77,0-4.35,1.04-2.5s1.48.17,2.08.19.79-3.62,1.73-1.64c.92,2.01-.64,1.4.92,2.01,1.58.58,1.07-2.67,2.2-.78,1.13,1.85,1-.14,2.06.9,1.06,1.01,1.34-2.36,2.29-.78.95,1.54.09-3.24,1.99-.65,1.92,2.58,3.05,1.06,3.47.09.42-.97-1.2-3.54.42-.97,1.6,2.57,1.87.05,2.93,1.06,1.06,1.01,1.76-3.63,2.58-.37.79,3.26.93,2.55,1.96.19.69-1.53.45-3.66.5-3.9l-.58-1.63c.53-.83,1.07-1.76,1.24-.47.33,2.37,1.73.32,2.19,1.04.47.72.8-4.63,2.27-1.76,1.45,2.84.97-.68,2,.59,1.03,1.31.61-4.7,1.77-1.33,1.16,3.4,2.62,3.41,2.94,1.8.34-1.58.4-3.73.79.02.36,3.75,1.49,1.52,1.94,2.82.45,1.26,1.36-3.91,2.08-1.49.7,2.41,1.3-5.29,2.08-2.47.8,2.82-.58.12.8,2.82,1.36,2.73,1.18-.98,1.88,1.53.7,2.48.67-3.29,1.19-1.28.53,1.97.43-1.4,1.34.04.93,1.41.23-4.92,1.44-2.79,1.19,2.16.85-3.21,2.32-.21,1.45,2.97,1.24.27,2.54,1.96,1.3,1.65,1.21-2.06,2.41.07,1.19,2.09,1.19-1.15,1.22-2.29s.15-2.09.77.73c.59,2.85.6-.69,1.88,1.53,1.28,2.23,1.07-.31,1.98,1.1.93,1.44-.02-6.17,1.71-2.35,1.72,3.86,1.1-1.25,2.85,1.43,1.76,2.64.48-6.66,2.58-2.12,2.08,4.57,2.96,7.94,3.11,5.55.16-2.36-1.58-5.64.16-2.36,1.76,3.28,2.11.63,3.06,1.5.93.87,1.56,2.98,1.91.59.36-2.35.44-5.08,1.32-2.49.9,2.55,2.22.06,2.76,1.36.54,1.26,1.28-.94,1.83-.22.56.69.89-.41,1.45.44.56.86,1.29-4.79,2.35-1.35,1.07,3.4,1.72,3.86,1.76,2.44.04-1.38.62-1.53.68-.39.06,1.11,1.03,1.14,1.15.44.06-.4-.22-1.32-.26-1.56.07.1.17.38.37.85.91,2.15.82-1.36,2.1,1.07,1.28,2.39,1.38-1.51,1.84-.52.46.99.59-3.83,1.61-2.08,1.02,1.71,1.94-.82,2.41.07.29.54.49-.95.82-1.5.55,1.68.56,1.74.56,1.74l.32-.95c.1.2.2.31.29.32l-.06,2.37s.78-.99,1.22-1.22c.08.74.19.96.32.82,0,.92-.1,2.17-.1,2.17,0,0,.76-2.57,1.01-.98l.25,1.59s.45-2.15.89-.12c.44,2.03-.24,1.72.44,2.03.68.31.77-2.86,1.41-1.11.64,1.75,1.12-1.41,1.67.48.54,1.89.94-1.7,1.09.03.15,1.73.06-2.16.78.31.75,2.47,1.41-3.85,2.39.35.97,4.2,1.45,4.79,1.9,2.93s-.75-5.06.45-1.86c1.2,3.2,1.92-1.53,2.55.79.63,2.32,1.5-.68,1.84,1.49.34,2.17,2.69-.94,2.69-.94,0,0,.92-.19,1.53,1.77.73,2.32,2.31-1.38,2.46.5.15,1.88.29-3.31.98.46.69,3.76,1.43-1.83,1.94,1.35.51,3.18,2.24,4.96,2.3,2.8.06-2.16.46-2.58.8-.41.34,2.17.53-1.28,1.35,1.19.82,2.47,1.64-2.26,2.35.64.71,2.9,2.15,4.38,2.41,2.23.26-2.15.71-4.16,1.13-1.7.43,2.46,1-.41,1.66.91s1.52-1.26,2.16.49c.64,1.75.99.1,1.54,1.52.55,1.42,3.18-.6,3.06.08-.12.68.77.74,1.27.54.5-.24,1.82-1.64,1.82-1.64,0,0,.06-2.16,1.09-.11,1.03,2.04,1.74,1.52,2.42,2.01.68.52,1.62-1.43,2.17.06.55,1.53.37-2.76,1.18.14.81,2.87-.36,2.26.81,2.87,0,0,1.25,1.19,1.48.04.23-1.15.98.17.97.53s.65-2.22,1.09.03c.43,2.24-.12-2.81.95,1.25,1.08,4.06.56,1.17,1.41,2.78.85,1.61.71-4.45,1.62-1.4.91,3.05.56-2.43,1.67.19,1.14,2.62.59.27,1.66,1.63,1.05,1.32.87-2.75,1.48.04.62,2.75.67-2.86,2.03,1.78,1.36,4.65,1.06.89,2.08,3.51,1.02,2.62.75-2.28,1.88.05,1.12,2.34.9-.44,2.05.85,1.15,1.26.9-4.08,2.03-2.03,1.13,2.05,2.38-.22,2.38-.22,0,0,.89-3.87,1.92-1.68,1.03,2.19,1.53-5.43,2.33-2.24.8,3.19,1.31-1.12,2.12,1.93.81,3.05,1.03,5.65,1.48,3.64.45-2,.71-4.3,1.13-1.55.42,2.75,0,4.03.42,2.75.43-1.28,1.51-.97,1.69-.39.18.58.29.3.76.96.48.66.41-.64.99.03.58.66,1.9-1.03,1.9-1.03,0,0,.48-3.16,1.51-.97,1.03,2.19,1.4-.54,1.68.05.28.58.48-3.3,1.42-1.4.94,1.9,2.61-1.66,3.34.81.72,2.47,1.72,2.06,2.15.78s-1.47-3.93.43-1.29c1.9,2.64.86-2.71,1.51-.97.64,1.75,1.4-.68,1.67.33.27,1.02.56-2.29,1.39-.11.83,2.18,2.23,1.65,2.26.64.02-.61-.32-1.77-.41-2.14.02,0,.16.36.44,1.13,1.01,2.76,2.28-.23,2.28-.23,0,0,.18-.32.41-.67.17-.07.35-.24.51-.49.28-.17.55-.09.67.63.11.58.21.55.31.26.09.29.19.33.33-.24.17-.72.44-.78.71-.59.14.26.31.44.48.52.21.37.38.69.38.69,0,0,1.1,3.06,2.26.35.32-.75.47-1.1.5-1.1-.11.36-.51,1.5-.53,2.11-.03,1.01,1.34,1.62,2.29-.51.95-2.14,1.05,1.18,1.38.18.32-1,.95,1.47,1.69-.24.74-1.71-.59,3.59,1.45,1.05,2.04-2.54,0,0,.36,1.31.36,1.31,1.34,1.76,2.19-.66.86-2.43,2.34,1.22,3.38-.63,1.04-1.84,1.03,2.04,1.34,1.48.31-.57.53,2.18,1.68.05,1.14-2.13,1.45,1.05,1.45,1.05,0,0,1.24,1.76,1.85,1.13.61-.63.48.66.99.03.51-.63.6-.34.82-.91.21-.57,1.31-.83,1.67.48.36,1.31,0,0,.57-2.72.57-2.72.7-.41,1.04,1.61.34,2.03.71-.56,1.68-3.56.97-3,1.25,1.33,2.22-1.81.97-3.14,1.06,4.49,2.21,2.36,1.14-2.13,1.83,1.78,1.83,1.78,0,0,1.12,2.34,2.36.35,1.24-1.98.7,3.33,1.92,2.14,1.22-1.23.85,1.54,2.09-.74,1.25-2.27.72,2.61,1.88.05,1.16-2.56.66,1.17,2.27-3.4,1.61-4.57,1.35,1.05,2.12-1.67.79-2.75.38,1.31,1.51.04,1.12-1.3.47,1.02,1.72-1.54,1.25-2.56.61,2.9,1.68-.1,1.07-3,.61,3.04,1.54,1.48s.26,1.3,1.56-2.7c1.29-4,.47,1.02,1.02-1.2.55-2.22,1.08.39,1.09.03s.83-1.63,1-.48c.17,1.16,1.48.04,1.48.04,1.2-.54,0,0,.97-2.82.97-2.86.55,1.42,1.19-.08.63-1.46,1.47.54,2.17.06.7-.45,1.38.11,2.52-1.88,1.14-1.99,1.08.17,1.08.17,0,0,1.24,1.47,1.73,1.74.49.23,1.38.22,1.3-.47-.08-.69,2.43,1.47,3.06.08.63-1.39.88.28,1.62-1.43.74-1.71,1.46.9,2.18-.37.73-1.28,1.14,1.62,1.7-.82.56-2.43.9-.41,1.04,1.76.14,2.16,1.66.76,2.53-2.09.87-2.86,1.43,1.91,2.38-.51.95-2.42.96,1.03,1.41-1.11.45-2.15.84-1.71.78.45-.06,2.16,1.77.48,2.44-2.67.68-3.15,1.12,2.48,2.01-1.24.36-1.5.55-1.54.67-1.19-.04,3.45,1.27,1.24,1.94,1.33.69.05,1.16.67,2.1-1.29.95-1.93.79.02.75,1.37-.03,1.17,1,1,1.98-.99.13-.11.24-.28.3-.6h0s.03-.06.05-.1c.12-.31.22-.51.31-.68.4-.2.89.87,1.42-.3.19-.12.43-.42.71-.9.33.21.67,1.1,1.15,1.03-.02.22-.03.43-.04.64-.05,1.88.65.9,1.25.12,0,0,0,.02,0,.03.27,1.47.65,1.42,1.37-.65.24.05.47.01.77-.52.63-1.1.77,1.44,2.09-.21,1-1.23,1.24-.85,1.6-1.5.14.2.3.22.52-.41.43-1.24.71-.25,1.07.04.14.75.69.41,1.25-.56.18.54.33,1.47.72,1.32.62-.24.18-.14.45-1.52.43.52.87,1.28,1.27.82.69-.82.35,1.56,1.55.88,1.2-.64,1.25.74,2.77-.6,1.52-1.38.95,1.54,2.28.33,1.31-1.25,1.05,1.28,1.75.32.72-.96,1.17,1.45,2.79-.33,1.62-1.78,1.39-.1,2.41-1.76,1.04-1.66.77,1.4,1.57.89.8-.55.67,1,1.07.57.4-.39,1.25.74,1.87.35.59-.42,1.36,1.01,2.17.33.81-.69.97.16,1.49-.4.5-.53,2.67-.47,3.62-2.84.12-.3.25-.57.37-.77l1.29.1c.13.34.23.78.31,1.29.25,1.83,1.84,1.3,2.65.34.81-.96,1.03,2.29,1.56.62.55-1.67,1.84,1.16,2.58-.23.73-1.36,2.03,1.88,2.76.78.72-1.09,1.14,1.31,1.75,1.03.59-.25,2.34.64,3.92-2.69l.58.05c-.1.98-.16,2.32.11,3.75.68,3.83,2.05,1.07,2.68-.6.65-1.67,2.13,1.74,3.4-.75,1.25-2.49,1.49-.13,2.48-1.08.85-.79,1.18.1,1.73-.56l3.12.22c.23.92.51,2.54,1.16,1.78.81-.96,1.55.75,2.19-.51.61-1.23,1.52.24,2.06-.85l.9.06c.15.38.3.88.47,1.46.44,1.56,2.11-.92,2.11-.92.07-.2.19-.3.29-.33h.39c.39.22.84.74,1.29.21.05-.03.09-.07.12-.1l3.49.26c.22.38.59.35,1.04.06l36.71,2.68c.07.1.09.17.16.24,1.62,2.64,1.04,1.95,1.95.83.93-1.09,1.32,2.46,2.14,1.47.81-.96.94,1.88,1.37.61.43-1.24.87,1.14,2.44-1.92.15-.3.29-.5.39-.6h.42c.39.86-.04,4.77-.04,4.77,0,0,1.44,1.69,1.93,1.27.52-.39.65,1.57,2.57.07,1.92-1.5.76,1,1.71-.59.92-1.56.78.39,1.43,1.96.65,1.53.98.43,1.91-1.33.93-1.76,1.53,1.56,2.32,1.44.81-.15,1.29.3,1.99.05.7-.28,1.38.31,2.48.07,1.07-.27,1.66.31,2.27.06.59-.29,1.47.44,2.08-.62.63-1.1,1.89-.69,2.08.06.19.75,0,3.61,1.46.71,1.47-2.93,2.34,4.95,3.35,3.6,1.03-1.39,1.12,3.27,2.45,1.08,1.36-2.19,1.26,1.25,1.57.04.33-1.24,1,3.1,2.15,1,1.14-2.06.69.29.67,1s1.36,4.39,2.43,1.62c1.07-2.8,1.75,1.16,3.59-.88,1.82-2.08,0,0,.93-1.69.93-1.69,1.09-.21,2.12-1.19,1-.95,1.63,1.19,2.7-1.34,1.06-2.53.95,1.61,1.78.05.83-1.53.36,1.16.84,1.61.47.42,2.32,2.29,3.56.1,1.24-2.23.86.56,1.86-2.68.97-3.28,1.65.52,2.08-.69.43-1.24.63-.89,1.17.4.57,1.26,1.42-1.07,1.42-1.07l.12-4.52h.09c.12,0,1.2,2.56,2.29,1.04.19-.26.31-.43.39-.6.41.38,1.14.77,1.86-.32,1.11-1.66,1.6,1.73,2.22.06.62-1.67,1.26-.27,1.49-1.11.21-.84,1.21,1.58,1.73.18.5-1.37.76.19.76.19,0,0,.71,1.84,2.51-.37.55-.69.77-.96.79-.92,0,.07-.8,1.36-.82,2.2-.03,1.25.31,3.21,1.64.04,1.34-3.2,1.04,1.01,2.25-1.09,1.21-2.06,1.02,1.71,1.89,1.2.89-.55,1.69,1.87,2.31.06.63-1.84.78.43,2.07-1.36,1.3-1.79.66.59,1.26-.24.6-.83,1.89,1.3,3.06.62,1.18-.68,1.52,1.32,1.82.18.33-1.1,1.5,2.03,1.56-.5.07-2.53.6-.96,1.31-2.22.7-1.23,1.61,1.32,2.01,1.17.37-.12.62,2.01,1.83-.22,1.22-2.23,0,0,.24,1.56.26,1.56,2.01,1.03,2.55-1.04.54-2.11.8,2.11,2.1.19,1.33-1.95-.08,3.07.81,2.42.88-.68.68,3.09,1.77,2.14,1.09-.95.91,2.15,1.61,1.32.69-.82,1.96,2.14,2.5.07.54-2.11,1.56,6.48,2.24,2.72.68-3.79,1.22,1.28,2.13.06.89-1.26,1.37,2.26,2.4.33,1.02-1.93,1.2,1.99,1.72.49.53-1.54,1.58,2.27,1.58,2.27,0,0,1.73.18,2.86-2.01,1.13-2.23.91,1.27,1.31,1.15.4-.12,2,1.34,2.61.07s1.95,2.45,2.46,1.48c.51-.96.68,3.26,1.47,3.11.77-.11,1.48,1.89,2.45,1.92s.93,1.71,1.8,1.03c.9-.68.91,2.12,2.04-.08,1.1-2.23.95.03,2.24-1.63,1.32-1.65,1.59,5.24,2.71,3.44,1.11-1.82,2.03,3.83,2.46,2.43.41-1.37.86,3.26,1.98,1.33,1.12-1.93,1.16,3.4,1.69,1.87.53-1.54,3.5,2.49,5.95-2.74,2.46-5.19,1.71.86,2.14-.38.43-1.24,1.27,2.53,2.53-1.21,1.26-3.78,1.04,1.01,1.61-2.22.57-3.22,1.32,1.01,1.67-1.07.34-2.12.7-.99,1.15.3.45,1.26.99-1.52.99-1.52.84-1.93.62,2.82,1.73.32,1.13-2.5,1.5,1.73,2.9-.06,1.41-1.78.82,2.15,1.71,1.02.91-1.09.85,1.17,1.76-.93.94-2.07,1.88,2.44,3.06,1.5,1.18-.95.83,1.14,1.45-.67.63-1.8,1.15.3,1.37-.1.2-.43.65-2.51,1.05-3.92.43-1.37.63,1.57,2.14-.35,1.49-1.95,1.3,1.72,2.21.46.89-1.22,1.23.74,2.34-1.05,1.11-1.79,1.11,1.85,2.01.32.92-1.53.88.16,1.59-1.51.72-1.67,1.23.61,2.25-1.19,1-1.79.71,1.84,1.43.04.72-1.8.63,1.7,2.06-.79,1.41-2.49,1.11,1.85,1.71.89.6-.96.89,2.28,2.01.05,1.13-2.23,2.15,2.59,2.47,2.16.29-.4,1.36-.5,2.16-2.03.83-1.53,1.22,1.28,1.73.05.52-1.23.56.72,1.28-.94.74-1.67,0,0,.87-2.94.18-.64.28-1,.36-1.17-.03.3-.17,1.04.02.91.4-.26.74,1.71,1.13.87.42-.83,1.02,1.85,1.55.18.53-1.67,1.11,1.85,1.63.48.52-1.4.65.69,1.25-3.34.6-4.06.71,1.98,1.25.03.54-1.97.75.56,1.77-1.37,1.02-1.93.91,2.28,1.81.62.92-1.66.61,2.11,1.62.89,1.01-1.25.97,3.53,1.77,2.14.82-1.39,1.6,1.73,2.51.51.89-1.26,1.49,1.29,2.75-2.45,1.26-3.78,1.38,2.84,1.91,1.43.5-1.37,1.26,3,2.44-1.32,1.18-4.35,1.13,1.01,1.92.05.79-.99,1.03,1.14,1.64.04.61-1.13.92,1.98,2.01.05,1.12-1.96,1.41,1.72,1.61,1.29.22-.4,1.6,1.73,1.8.89.23-.84,2.32-.07,3.25-2,.74-1.53,1.73-3.19,1.73-3.19.43-2.25.53,1.97,1.06.03.52-1.98.84.56,2.38-2.46,1.52-3.06.95,3.26,1.08,2.93.1-.33.91,1.34,1.73.22.79-1.09-.09,3.23-.09,3.23l.38-.53c.41-.56.22,2.94,1.21,1.55,1.01-1.36-.2,4.07.81,2.72,1.01-1.39-.02,4.05,1.1,2.12,1.12-1.93.52,2.27,1.74-.09,1.22-2.36,1.1,2.29,2.12.46,1-1.79.64,1.03,1.66-1.47,1.04-2.5.74,1.84,1.86-.12,1.09-1.93.67,3.39,1.58,1.59.93-1.8,1,2.29,2.22.06,1.22-2.19,1.2,1.72,2.06-.92.84-2.64,1.18,2.43,1.72.62.53-1.81,1,2.56,1.91.59.93-1.93.83,2.01,1.23.88.42-1.1,1.13,1.04,1.63.62.5-.39.72,1.57,1.64.18,0,0,1.13.87,1.45-.37.34-1.27,1.94.32,2.88.35.35,0,.44.18.43.42.07-.13.17-.27.26-.26.28,0,.82,1.3.82,1.3l.93-1.8c.91-1.83,1.13,1.14,1.13,1.14l.04-1.41s1.69,1.73,2.05,2.25c.38.52,1.95-.32,1.95-.32l.48-.66c.5-.69,1.25.71,1.25.71l.72-1.94c.72-1.94,1.12,1.31,1.58,2.37.43,1.09.5-1.2.83-2.57.32-1.41,1.39,1.59,1.39,1.59l.61-1.13c.61-1.1,1.54.34,1.54.34l.5-.69c.5-.69,1.57,2.64,1.57,2.64,0,0,.42-1.74,1.15-3.14.71-1.4,1.23.88,1.23.88,0,0,.41-1.41.82-2.24.42-.83,1.06.33,1.06.33l.51-.96c.51-1,.83,1,.83,1,0,0,.52-1.4,1.32-2.49.75-1.03.08,2.09-.05,2.7.15-.43.73-2.24.75-2.98l-.11,4.21c-.02.57,1.39-1.65,1.39-1.65l-.06,2.39.87-.38s.44,1.7.74,1.71c.28,0,2.08.97,2.08.97l1.16.03.38,1.19.34,1.16,1.89-2.28,4.1,5.24.14-5.12,3.47.09,4.06,7.49,1.25-3.34c1.25-3.34,2.65,1.18,2.65,1.18l.14-5.12,4.13,4.66s3.03,1.77,4.52,4.07c1.47,2.3,5,.14,5,.14l.12-4.48,5.29,4.63,2.68.07s2.39-2.73,3.59-4.39c1.2-1.65,3.86.1,3.86.1l2.96,4.56.15-5.63,4.63.13.17-6.17,3.07,1.2.4-1.1c.42-1.1,6.57.18,6.57.18l5.39.15-.17,6.17,4.05-6.63.15-5.59,2.93,5.68,2.86-5.52.44-16.2.83-30.87.5-18.63s-.7-.63-1.15-.03Z"/>
          <path class="st1" d="M1365.24,151.6l-.15,5.59-4.05,6.63.17-6.17-5.39-.15s-6.15-1.28-6.57-.18l-.4,1.1-3.07-1.2-.17,6.17-4.63-.13-.15,5.63-2.96-4.56s-2.66-1.76-3.86-.1c-1.2,1.65-3.59,4.39-3.59,4.39l-2.68-.07-5.29-4.63-.12,4.48s-3.53,2.16-5-.14c-1.49-2.3-4.52-4.07-4.52-4.07l-4.13-4.66-.14,5.12s-1.41-4.52-2.65-1.18l-1.25,3.34-4.06-7.49-3.47-.09-.14,5.12-4.1-5.24-1.89,2.28-.34-1.16-.38-1.19-1.16-.03s-1.8-.96-2.08-.97c-.3,0-.74-1.71-.74-1.71l-.87.38.06-2.39s-1.4,2.22-1.39,1.65l.11-4.21c-.02.74-.6,2.55-.75,2.98.13-.6.8-3.72.05-2.7-.79,1.09-1.32,2.49-1.32,2.49,0,0-.32-2-.83-1l-.51.96s-.64-1.16-1.06-.33-.82,2.24-.82,2.24c0,0-.52-2.27-1.23-.88-.73,1.4-1.15,3.14-1.15,3.14,0,0-1.07-3.33-1.57-2.64l-.5.69s-.93-1.44-1.54-.34l-.61,1.13s-1.08-3-1.39-1.59c-.34,1.37-.4,3.66-.83,2.57-.46-1.06-.86-4.31-1.58-2.37l-.72,1.94s-.75-1.4-1.25-.71l-.48.66s-1.57.83-1.95.32c-.36-.52-2.05-2.25-2.05-2.25l-.04,1.41s-.22-2.97-1.13-1.14l-.93,1.8s-.54-1.3-.82-1.3c-.09,0-.19.13-.26.26,0-.24-.08-.41-.43-.42-.95-.03-2.55-1.62-2.88-.35-.31,1.24-1.45.37-1.45.37-.92,1.39-1.14-.57-1.64-.18-.5.42-1.2-1.72-1.63-.62-.4,1.14-.29-2.81-1.23-.88-.91,1.96-1.37-2.4-1.91-.59-.53,1.81-.88-3.26-1.72-.62-.86,2.64-.85-1.27-2.06.92-1.22,2.23-1.29-1.86-2.22-.06-.91,1.8-.48-3.52-1.58-1.59-1.12,1.96-.82-2.38-1.86.12-1.02,2.5-.66-.32-1.66,1.47-1.02,1.83-.9-2.82-2.12-.46-1.22,2.36-.62-1.84-1.74.09-1.12,1.93-.09-3.51-1.1-2.12-1.01,1.36.2-4.07-.81-2.72-.99,1.39-.8-2.11-1.21-1.55l-.38.53s.88-4.33.09-3.23c-.82,1.12-1.63-.55-1.73-.22-.13.33.44-5.99-1.08-2.93-1.54,3.03-1.87.49-2.38,2.46-.54,1.94-.63-2.28-1.06-.03,0,0-.99,1.66-1.73,3.19-.93,1.93-3.02,1.17-3.25,2-.21.84-1.59-1.29-1.8-.89-.2.43-.49-3.25-1.61-1.29-1.09,1.93-1.4-1.18-2.01-.05-.61,1.1-.85-1.03-1.64-.04-.79.96-.74-4.4-1.92-.05-1.18,4.32-1.94-.05-2.44,1.32-.52,1.4-.65-5.21-1.91-1.43-1.26,3.74-1.86,1.2-2.75,2.45-.91,1.22-1.68-1.9-2.51-.51-.8,1.39-.76-3.39-1.77-2.14-1.01,1.22-.7-2.55-1.62-.89-.9,1.66-.79-2.55-1.81-.62-1.02,1.93-1.23-.61-1.77,1.37-.54,1.94-.65-4.1-1.25-.03-.6,4.03-.72,1.94-1.25,3.34-.52,1.37-1.1-2.15-1.63-.48-.53,1.67-1.13-1.01-1.55-.18-.39.83-.73-1.13-1.13-.87-.19.13-.05-.61-.02-.91-.07.17-.18.53-.36,1.17-.87,2.94-.13,1.28-.87,2.94-.72,1.67-.76-.29-1.28.94-.52,1.23-.91-1.58-1.73-.05-.81,1.53-1.87,1.63-2.16,2.03-.31.43-1.34-4.39-2.47-2.16-1.12,2.23-1.41-1.02-2.01-.05-.6.96-.3-3.38-1.71-.89-1.43,2.49-1.34-1.01-2.06.79-.72,1.8-.44-1.83-1.43-.04-1.02,1.79-1.54-.48-2.25,1.19s-.67-.02-1.59,1.51c-.9,1.53-.89-2.11-2.01-.32-1.11,1.79-1.45-.17-2.34,1.05-.91,1.26-.72-2.41-2.21-.46-1.51,1.92-1.71-1.02-2.14.35-.41,1.41-.86,3.48-1.05,3.92-.22.4-.74-1.71-1.37.1-.63,1.8-.27-.28-1.45.67-1.18.95-2.13-3.56-3.06-1.5-.91,2.1-.85-.16-1.76.93-.89,1.12-.29-2.81-1.71-1.02-1.39,1.78-1.76-2.44-2.9.06-1.11,2.5-.89-2.25-1.73-.32,0,0-.54,2.78-.99,1.52-.45-1.29-.81-2.42-1.15-.3-.36,2.08-1.1-2.15-1.67,1.07-.57,3.22-.35-1.56-1.61,2.22-1.26,3.74-2.11-.02-2.53,1.21-.43,1.24.32-4.81-2.14.38-2.46,5.23-5.43,1.2-5.95,2.74-.53,1.54-.57-3.79-1.69-1.87-1.12,1.93-1.57-2.71-1.98-1.33-.43,1.4-1.34-4.25-2.46-2.43-1.11,1.79-1.39-5.1-2.71-3.44-1.29,1.65-1.14-.6-2.24,1.63-1.12,2.2-1.14-.6-2.04.08-.88.68-.83-1-1.8-1.03-.97-.03-1.68-2.03-2.45-1.92-.79.15-.95-4.07-1.47-3.11-.51.96-1.85-2.75-2.46-1.48-.61,1.26-2.22-.2-2.61-.07s-.19-3.38-1.31-1.15c-1.12,2.2-2.86,2.01-2.86,2.01,0,0-1.05-3.81-1.58-2.27-.53,1.5-.7-2.41-1.72-.48-1.02,1.93-1.51-1.59-2.4-.33-.91,1.22-1.45-3.85-2.13-.06-.68,3.76-1.7-4.83-2.24-2.72-.54,2.08-1.8-.89-2.5-.07-.69.82-.52-2.27-1.61-1.32-1.09.95-.9-2.82-1.77-2.14-.9.65.51-4.37-.81-2.42-1.3,1.92-1.56-2.3-2.1-.19-.54,2.08-2.29,2.6-2.55,1.04-.24-1.56.98-3.78-.24-1.56-1.22,2.23-1.46.1-1.83.22-.4.16-1.3-2.4-2.01-1.17-.71,1.26-1.24-.3-1.31,2.22-.07,2.53-1.23-.61-1.56.5-.31,1.14-.65-.86-1.82-.18-1.18.68-2.46-1.45-3.06-.62s.04-1.55-1.26.24c-1.3,1.79-1.45-.48-2.07,1.36-.63,1.8-1.42-.61-2.31-.06-.87.52-.68-3.26-1.89-1.2-1.21,2.09-.91-2.12-2.25,1.09-1.34,3.17-1.68,1.2-1.64-.04.02-.84.82-2.14.82-2.2-.02-.03-.24.23-.79.92-1.8,2.21-2.51.37-2.51.37,0,0-.26-1.56-.76-.19-.52,1.4-1.52-1.02-1.73-.18-.23.84-.86-.56-1.49,1.11-.62,1.67-1.11-1.72-2.22-.06-.72,1.09-1.45.7-1.86.32-.07.17-.19.33-.39.6-1.08,1.52-2.17-1.04-2.29-1.04h-.09s-.12,4.51-.12,4.51c0,0-.85,2.34-1.42,1.07-.54-1.3-.74-1.64-1.17-.4-.43,1.2-1.11-2.59-2.08.69-.99,3.24-.61.46-1.85,2.68-1.24,2.19-3.09.32-3.56-.1-.47-.45,0-3.14-.84-1.61-.83,1.56-.72-2.58-1.78-.05-1.06,2.53-1.7.39-2.7,1.34-1.02.98-1.19-.5-2.12,1.19-.93,1.69.89-.38-.93,1.69-1.84,2.04-2.52-1.92-3.59.88-1.07,2.77-2.45-.91-2.43-1.62s.48-3.06-.67-1c-1.14,2.09-1.81-2.24-2.15-1-.31,1.21-.22-2.23-1.57-.04-1.33,2.19-1.41-2.47-2.45-1.08-1.01,1.36-1.88-6.52-3.35-3.6-1.47,2.89-1.27.03-1.46-.71-.19-.75-1.45-1.15-2.08-.06-.61,1.06-1.49.33-2.08.62-.61.25-1.19-.34-2.27-.06-1.09.24-1.77-.35-2.48-.07-.7.25-1.18-.2-1.99-.05-.79.11-1.39-3.21-2.32-1.44-.93,1.76-1.26,2.87-1.91,1.33-.65-1.57-.51-3.52-1.43-1.96-.95,1.59.21-.9-1.71.59-1.92,1.5-2.05-.46-2.57-.07-.5.43-1.93-1.27-1.93-1.27,0,0,.43-3.9.04-4.75h-.42c-.1.09-.24.29-.39.59-1.56,3.06-2.01.69-2.44,1.92-.43,1.27-.56-1.57-1.37-.61-.81.99-1.2-2.56-2.14-1.47-.91,1.12-.33,1.81-1.95-.83-.07-.07-.09-.14-.16-.24l-36.71-2.68c-.45.29-.82.31-1.04-.06l-3.49-.26s-.07.07-.12.1c-.45.53-.9,0-1.29-.2h-.39c-.09.02-.21.12-.29.32,0,0-1.66,2.48-2.11.92-.17-.58-.32-1.09-.47-1.46l-.9-.06c-.54,1.1-1.45-.38-2.06.85-.64,1.26-1.38-.44-2.19.51-.65.76-.93-.87-1.16-1.78l-3.12-.22c-.55.66-.87-.23-1.73.56-1,.95-1.23-1.42-2.48,1.08-1.27,2.49-2.75-.92-3.4.75-.62,1.67-1.99,4.43-2.68.6-.26-1.42-.2-2.77-.11-3.75l-.58-.05c-1.57,3.33-3.33,2.44-3.92,2.69-.61.29-1.03-2.12-1.75-1.03s-2.03-2.15-2.76-.78c-.73,1.4-2.02-1.44-2.58.23-.53,1.67-.74-1.57-1.56-.62-.81.96-2.4,1.49-2.65-.34-.08-.51-.18-.95-.31-1.29l-1.29-.1c-.12.2-.24.47-.37.77-.94,2.37-3.12,2.31-3.62,2.84-.52.56-.69-.29-1.49.4-.81.69-1.58-.75-2.17-.33-.61.39-1.46-.75-1.87-.35-.41.43-.27-1.12-1.07-.57-.8.52-.53-2.54-1.57-.89-1.02,1.66-.79-.02-2.41,1.76-1.62,1.78-2.07-.63-2.79.33-.7.96-.44-1.56-1.75-.32-1.33,1.21-.76-1.71-2.28-.33-1.52,1.34-1.57-.04-2.77.6-1.2.68-.86-1.71-1.55-.88-.4.46-.84-.3-1.27-.82-.28,1.38.17,1.28-.45,1.52-.39.15-.54-.77-.72-1.32-.56.97-1.1,1.31-1.25.56-.36-.3-.64-1.28-1.07-.04-.22.63-.38.61-.52.41-.36.65-.59.26-1.6,1.5-1.32,1.65-1.46-.88-2.09.21-.29.53-.53.56-.77.52-.72,2.07-1.1,2.13-1.37.65,0,0,0-.02,0-.03-.6.78-1.3,1.77-1.25-.12,0-.21.02-.42.04-.64-.48.07-.82-.82-1.15-1.03-.28.48-.52.78-.71.9-.53,1.17-1.02.1-1.42.3-.09.16-.19.37-.31.68-.02.04-.03.06-.05.1h0c-.07.31-.18.49-.3.6-.98,2-2.02,2.17-1.98.99.04-1.35.2-3.3-.75-1.37-.93,1.96-1.4,1.34-2.1,1.29-.68-.08-1.98,2.12-1.94-1.33-.12-.35-.31-.32-.66,1.19-.89,3.72-1.33-1.91-2.01,1.24-.68,3.15-2.5,4.83-2.44,2.67.06-2.16-.32-2.6-.78-.45-.45,2.15-.46-1.31-1.41,1.11-.95,2.42-1.52-2.35-2.38.51-.87,2.86-2.39,4.26-2.53,2.09-.14-2.17-.48-4.19-1.04-1.76-.56,2.43-.98-.46-1.7.82-.73,1.28-1.45-1.34-2.18.37-.74,1.71-.99.05-1.62,1.43-.63,1.39-3.14-.77-3.06-.08.08.69-.81.7-1.3.47-.49-.27-1.73-1.74-1.73-1.74,0,0,.06-2.16-1.08-.17-1.14,1.99-1.82,1.43-2.52,1.88-.7.49-1.54-1.52-2.17-.06-.63,1.5-.22-2.78-1.19.08-.97,2.82.23,2.28-.97,2.82,0,0-1.31,1.12-1.48-.04-.17-1.16-.99.12-1,.48s-.53-2.25-1.09-.03c-.55,2.22.27-2.8-1.02,1.2-1.29,4-.62,1.14-1.56,2.7-.93,1.56-.47-4.48-1.54-1.48-1.07,3-.43-2.46-1.68.1-1.25,2.56-.6.24-1.72,1.54-1.12,1.27-.71-2.79-1.51-.04-.76,2.72-.51-2.9-2.12,1.67-1.61,4.57-1.11.83-2.27,3.4-1.16,2.56-.63-2.32-1.88-.05-1.25,2.27-.88-.49-2.09.74-1.22,1.19-.68-4.12-1.92-2.14-1.24,1.98-2.36-.35-2.36-.35,0,0-.68-3.91-1.83-1.78-1.14,2.13-1.23-5.51-2.21-2.36-.97,3.14-1.25-1.19-2.22,1.81-.97,3-1.34,5.58-1.68,3.56-.34-2.03-.48-4.33-1.04-1.61-.57,2.72-.21,4.03-.57,2.72-.36-1.31-1.45-1.05-1.67-.48-.21.57-.3.28-.82.91-.51.63-.38-.66-.99-.03-.61.63-1.85-1.13-1.85-1.13,0,0-.31-3.18-1.45-1.05-1.14,2.13-1.37-.61-1.68-.05-.31.57-.31-3.32-1.34-1.48-1.04,1.84-2.52-1.8-3.38.63-.86,2.43-1.83,1.97-2.19.66-.36-1.31,1.68-3.84-.36-1.31-2.04,2.54-.72-2.76-1.45-1.05-.74,1.71-1.36-.76-1.69.24-.32,1-.43-2.32-1.38-.18-.95,2.14-2.31,1.52-2.29.51.02-.61.42-1.75.53-2.11-.02,0-.18.36-.5,1.1-1.16,2.71-2.26-.35-2.26-.35,0,0-.16-.33-.38-.69-.17-.08-.34-.26-.48-.52-.27-.19-.54-.12-.71.59-.14.57-.24.53-.33.24-.11.29-.21.32-.31-.26-.13-.72-.4-.8-.67-.63-.15.25-.33.42-.51.49-.23.35-.41.67-.41.67,0,0-1.27,2.99-2.28.23-.28-.76-.41-1.13-.44-1.13.09.36.43,1.52.41,2.14-.03,1.01-1.43,1.55-2.26-.64-.83-2.18-1.12,1.12-1.39.11-.27-1.02-1.03,1.41-1.67-.33-.64-1.75.4,3.61-1.51.97-1.9-2.64,0,0-.43,1.29-.43,1.29-1.43,1.69-2.15-.78-.72-2.47-2.4,1.09-3.34-.81-.94-1.9-1.14,1.99-1.42,1.4-.28-.58-.65,2.14-1.68-.05-1.03-2.19-1.51.97-1.51.97,0,0-1.33,1.69-1.9,1.03-.58-.66-.51.63-.99-.03-.48-.66-.58-.38-.76-.96-.18-.58-1.26-.9-1.69.39-.43,1.29,0,0-.42-2.75-.42-2.75-.68-.45-1.13,1.55-.45,2-.68-.59-1.48-3.64-.81-3.05-1.32,1.26-2.12-1.93-.8-3.19-1.31,4.43-2.33,2.24-1.03-2.19-1.92,1.68-1.92,1.68,0,0-1.25,2.27-2.38.22-1.13-2.05-.88,3.29-2.03,2.03-1.15-1.29-.93,1.49-2.05-.85-1.12-2.34-.86,2.57-1.88-.05-1.02-2.62-.72,1.13-2.08-3.51-1.36-4.65-1.41.97-2.03-1.78-.62-2.79-.43,1.29-1.48-.04-1.07-1.36-.52.99-1.66-1.63-1.11-2.62-.77,2.86-1.67-.19-.91-3.05-.77,3-1.62,1.4-.85-1.61-.33,1.29-1.41-2.78-1.08-4.06-.52.99-.95-1.25-.43-2.25-1.1.33-1.09-.03s-.75-1.68-.97-.53c-.23,1.15-1.48-.04-1.48-.04-1.17-.61,0,0-.81-2.87-.81-2.9-.63,1.39-1.18-.14-.55-1.49-1.49.46-2.17-.06-.68-.49-1.38.03-2.42-2.01-1.03-2.04-1.09.11-1.09.11,0,0-1.32,1.4-1.82,1.64-.5.2-1.39.14-1.27-.54.12-.68-2.51,1.34-3.06-.08-.55-1.42-.9.23-1.54-1.52-.64-1.75-1.5.82-2.16-.49-.66-1.31-1.23,1.55-1.66-.91-.43-2.46-.88-.46-1.13,1.7-.26,2.15-1.7.67-2.41-2.23-.71-2.9-1.53,1.83-2.35-.64-.82-2.47-1.01.98-1.35-1.19-.34-2.17-.74-1.75-.8.41-.06,2.16-1.79.38-2.3-2.8-.51-3.18-1.25,2.42-1.94-1.35-.69-3.76-.83,1.42-.98-.46-.15-1.88-1.73,1.83-2.46-.5-.61-1.96-1.53-1.77-1.53-1.77,0,0-2.36,3.11-2.69.94-.34-2.17-1.21.83-1.84-1.49-.63-2.32-1.35,2.41-2.55-.79-1.2-3.2,0,0-.45,1.86-.45,1.86-.92,1.27-1.9-2.93-.97-4.2-1.64,2.12-2.39-.35-.72-2.47-.63,1.42-.78-.31-.15-1.73-.54,1.86-1.09-.03-.54-1.89-1.02,1.27-1.67-.48-.64-1.75-.73,1.42-1.41,1.11-.68-.31,0,0-.44-2.03-.44-2.03-.89.12-.89.12l-.25-1.59c-.25-1.59-1.01.98-1.01.98,0,0,.09-1.25.1-2.17-.12.14-.23-.08-.32-.82-.44.23-1.22,1.22-1.22,1.22l.06-2.37c-.09,0-.19-.12-.29-.32l-.32.95s-.02-.05-.57-1.74c-.33.54-.53,2.04-.82,1.5-.46-.89-1.39,1.65-2.41-.07-1.02-1.75-1.15,3.07-1.61,2.08-.46-.99-.57,2.92-1.84.52-1.28-2.43-1.19,1.08-2.1-1.07-.2-.48-.3-.75-.37-.85.04.24.32,1.16.26,1.56-.11.71-1.08.68-1.15-.44-.06-1.15-.64-1-.68.39s-.7.96-1.76-2.44c-1.06-3.43-1.8,2.21-2.35,1.35-.56-.86-.89.25-1.45-.44-.56-.72-1.29,1.48-1.83.22-.54-1.3-1.86,1.2-2.76-1.36-.88-2.59-.95.14-1.32,2.49-.34,2.39-.98.28-1.91-.59-.95-.87-1.3,1.79-3.06-1.5-1.74-3.28,0,0-.16,2.36-.16,2.39-1.04-.97-3.11-5.55-2.1-4.54-.82,4.77-2.58,2.12-1.76-2.68-1.13,2.43-2.85-1.43-1.73-3.82-.77,3.79-1.71,2.35-.91-1.41-.7,1.13-1.98-1.1-1.28-2.23-1.29,1.31-1.88-1.53-.62-2.82-.74-1.84-.77-.73s-.03,4.38-1.22,2.29c-1.19-2.12-1.11,1.59-2.41-.07-1.3-1.69-1.09,1.02-2.54-1.96-1.47-3.01-1.13,2.36-2.32.21-1.22-2.12-.51,4.2-1.44,2.79-.91-1.44-.82,1.93-1.34-.04-.52-2-.5,3.76-1.19,1.28-.7-2.51-.52,1.2-1.88-1.53-1.39-2.7,0,0-.8-2.82-.78-2.82-1.38,4.89-2.08,2.47-.72-2.41-1.63,2.75-2.08,1.49-.45-1.29-1.58.94-1.94-2.82-.38-3.75-.44-1.6-.79-.02-.32,1.61-1.78,1.6-2.94-1.8-1.16-3.37-.74,2.64-1.77,1.33-1.03-1.28-.55,2.24-2-.59-1.47-2.87-1.8,2.48-2.27,1.76-.47-.72-1.86,1.33-2.19-1.04-.17-1.29-.71-.36-1.24.47l.58,1.63c-.05.23.19,2.37-.5,3.9-1.04,2.37-1.17,3.07-1.96-.19-.81-3.26-1.52,1.38-2.58.37-1.06-1.01-1.34,1.52-2.93-1.06-1.62-2.57,0,0-.42.97-.42.97-1.55,2.49-3.47-.09-1.9-2.58-1.03,2.2-1.99.65-.95-1.58-1.23,1.79-2.29.78-1.06-1.04-.93.95-2.06-.9-1.13-1.89-.62,1.37-2.2.78-1.56-.62,0,0-.92-2.01-.94-1.98-1.13,1.65-1.73,1.64-.6-.02-1.04,1.66-2.08-.19-1.04-1.85-.94-1.27-1.04,2.5s-1.33,1.38-2.03,1.43c-.7.01-1.2.61-2.02-1.4-.85-1.98-.79-.02-.82,1.33s-1.32,1.01-2.24-1.81c-.9-2.86-1.12,1.08-2.68-2.74-1.59-3.85-.78-.19-.85,2.34s-1.2-.17-1.77-.59c-.59-.45-1.01.51-1.56-.62-.57-1.13-.85,1.39-2.07-.33-1.25-1.72-1.28-.47-1.89-2.71-.63-2.28-1.05-1.31-1.09.24s-.84.96-1.47-.48c-.66-1.4-1.64,1.64-2.31.78-.65-.86-.44,1.54-1.6.8-1.16-.71-1.29.67-2.73-.75-1.44-1.46-1.04,1.49-2.3.21-1.24-1.32-1.12,1.22-1.76.22-.67-1-1.24,1.38-2.77-.48-1.52-1.86-1.38-.17-2.31-1.88-.95-1.71-.85,1.36-1.62.8-.77-.59-.72.96-1.1.51-.38-.41-1.29.67-1.88.25-.57-.45-1.41.94-2.18.21-.77-.73-.98.11-1.47-.48-.47-.55-2.65-.61-3.46-3.03-.11-.31-.22-.58-.33-.79l-1.3.03c-.15.33-.28.77-.38,1.27-.35,1.81-1.91,1.2-2.67.2-.76-1-1.15,2.23-1.59.53-.46-1.7-1.9,1.06-2.56-.37-.66-1.4-2.13,1.76-2.8.63s-1.21,1.25-1.81.93c-.57-.29-2.38.51-3.76-2.9l-.58.02c.04.98.03,2.33-.31,3.73-.89,3.79-2.11.95-2.64-.75-.56-1.7-2.22,1.63-3.35-.93-1.11-2.56-1.48-.21-2.42-1.21-.81-.83-1.18.04-1.7-.65l-3.13.05c-.28.9-.65,2.51-1.25,1.72-.76-1-1.59.66-2.16-.63-.54-1.26-1.53.16-2.01-.96h-.9c-.17.38-.35.88-.55,1.44-.53,1.54-2.06-1.03-2.06-1.03-.06-.2-.18-.31-.27-.34h-.39c-.4.18-.88.67-1.3.12-.05-.03-.09-.07-.11-.1l-3.5.07c-.24.36-.61.32-1.04,0l-36.8.69c-.07.1-.1.17-.17.23-1.76,2.55-1.14,1.89-1.99.72-.87-1.14-1.45,2.39-2.21,1.36-.76-1-1.04,1.83-1.4.54-.36-1.26-.93,1.09-2.33-2.05-.13-.31-.26-.51-.35-.62h-.42c-.44.82-.22,4.74-.22,4.74,0,0-1.53,1.61-2,1.16-.5-.42-.74,1.53-2.57-.07-1.83-1.6-.81.96-1.67-.69-.84-1.61-.8.35-1.53,1.88-.74,1.5-1.01.38-1.84-1.43-.83-1.81-1.61,1.47-2.4,1.32-.8-.19-1.3.23-1.99-.05-.69-.32-1.4.23-2.48-.07-1.06-.33-1.67.22-2.27-.06-.57-.32-1.49.36-2.04-.73-.57-1.13-1.85-.79-2.08-.06-.23.74-.19,3.6-1.5.63-1.31-3-2.61,4.82-3.54,3.41-.96-1.44-1.29,3.2-2.5.94-1.24-2.26-1.33,1.18-1.57-.04-.27-1.26-1.17,3.04-2.2.88-1.03-2.12-.7.25-.72.96-.02.71-1.6,4.31-2.52,1.48-.92-2.86-1.81,1.06-3.54-1.07-1.7-2.17,0,0-.83-1.74s-1.08-.27-2.05-1.3c-.95-1-1.7,1.1-2.62-1.49-.93-2.59-1.04,1.56-1.78-.05-.74-1.57-.42,1.14-.92,1.56-.5.39-2.44,2.16-3.56-.1-1.12-2.29-.89.52-1.71-2.78-.79-3.33-1.68.43-2.04-.8-.36-1.26-.58-.93-1.19.34-.64,1.23-1.36-1.15-1.36-1.15l.12-4.52h-.09c-.12,0-1.34,2.49-2.34.91-.18-.27-.29-.45-.35-.62-.43.36-1.18.71-1.84-.42-1.02-1.71-1.69,1.64-2.22-.06-.53-1.7-1.24-.34-1.43-1.18-.16-.85-1.29,1.52-1.74.09-.43-1.39-.77.15-.77.15,0,0-.81,1.8-2.49-.51-.51-.72-.71-1-.74-.96,0,.07.73,1.4.7,2.24-.03,1.25-.48,3.19-1.64-.04-1.16-3.27-1.09.95-2.19-1.21-1.1-2.12-1.11,1.66-1.95,1.09-.86-.6-1.78,1.77-2.31-.06-.53-1.87-.8.38-2-1.47-1.2-1.85-.69.55-1.24-.3-.56-.86-1.95,1.2-3.09.46-1.14-.74-1.58,1.24-1.83.09-.27-1.12-1.6,1.95-1.54-.58s-.55-.99-1.19-2.29c-.64-1.26-1.68,1.24-2.07,1.06-.37-.14-.72,1.97-1.82-.32-1.1-2.29,0,0-.32,1.54-.34,1.54-2.06.92-2.49-1.18-.43-2.14-.91,2.07-2.11.08-1.22-2.02-.08,3.07-.94,2.37-.84-.73-.85,3.05-1.88,2.04-1.04-1.01-1.03,2.1-1.68,1.24-.65-.86-2.07,2.03-2.5-.07-.43-2.14-1.91,6.39-2.38,2.6-.48-3.82-1.28,1.21-2.13-.06-.82-1.3-1.49,2.19-2.41.2-.92-1.98-1.3,1.92-1.75.39-.44-1.56-1.7,2.18-1.7,2.18,0,0-1.74.09-2.74-2.16-1-2.29-.98,1.22-1.37,1.08-.39-.15-2.07,1.23-2.61-.07-.54-1.3-2.08,2.34-2.54,1.35-.46-.99-.85,3.21-1.63,3.02-.76-.16-1.58,1.81-2.55,1.79-.97-.03-1.02,1.66-1.85.93-.86-.73-1.03,2.06-2.03-.19-.98-2.29-.95-.03-2.15-1.74-1.23-1.72-1.88,5.14-2.89,3.29-1.01-1.88-2.23,3.72-2.59,2.29-.33-1.39-1.04,3.21-2.05,1.23-1.01-1.98-1.34,3.34-1.78,1.77-.44-1.56-3.63,2.3-5.8-3.06-2.17-5.32-1.76.76-2.12-.5-.36-1.26-1.41,2.46-2.46-1.35-1.05-3.84-1.09.95-1.49-2.3-.4-3.25-1.37.94-1.61-1.16-.22-2.13-.64-1.03-1.16.24-.52,1.23-.91-1.58-.91-1.58-.73-1.98-.77,2.78-1.74.22-1-2.56-1.6,1.64-2.89-.21-1.32-1.86-.94,2.1-1.76.93-.85-1.14-.91,1.12-1.71-1.02-.82-2.11-2.01,2.34-3.14,1.33-1.13-1.01-.89,1.09-1.41-.75-.53-1.84-1.16.24-1.36-.17-.17-.44-.51-2.54-.84-3.97-.36-1.39-.71,1.53-2.12-.46-1.38-2.03-1.39,1.65-2.23.34-.82-1.27-1.27.67-2.28-1.17-1.02-1.85-1.21,1.79-2.02.22-.84-1.57-.88.11-1.51-1.59-.63-1.7-1.26.54-2.19-1.31-.9-1.85-.81,1.8-1.43-.04-.62-1.84-.72,1.67-2.01-.9-1.27-2.56-1.21,1.79-1.76.8-.55-.99-1.01,2.23-2.01-.05-1-2.29-2.29,2.47-2.58,2.02-.27-.41-1.33-.58-2.05-2.15-.74-1.57-1.28,1.21-1.73-.05-.45-1.26-.6.69-1.22-1.01-.65-1.7,0,0-.71-2.99-.14-.64-.23-1.02-.29-1.19.01.3.11,1.05-.07.91-.39-.28-.83,1.66-1.18.81-.37-.85-1.11,1.79-1.55.09-.44-1.7-1.21,1.79-1.65.39-.45-1.43-.69.66-1.07-3.4-.38-4.09-.82,1.93-1.25-.03-.43-2-.78.52-1.7-1.46-.92-1.98-1.03,2.23-1.84.52-.83-1.71-.73,2.07-1.67.8-.94-1.31-1.16,3.48-1.88,2.04-.75-1.44-1.69,1.64-2.53.37-.82-1.3-1.56,1.21-2.61-2.6-1.05-3.84-1.53,2.76-1.98,1.33-.43-1.39-1.42,2.93-2.37-1.45-.95-4.41-1.18.95-1.92-.05-.74-1.03-1.09,1.08-1.64-.04-.55-1.16-1.02,1.93-2.01-.05-1.01-2.02-1.5,1.65-1.68,1.2-.2-.41-1.69,1.64-1.85.79-.19-.85-2.31-.2-3.14-2.18-.65-1.57-1.55-3.28-1.55-3.28-.31-2.27-.63,1.94-1.06-.03-.41-2-.87.52-2.25-2.59-1.35-3.14-1.13,3.21-1.23,2.87-.08-.34-.98,1.29-1.74.12-.73-1.13-.09,3.23-.09,3.23l-.36-.55c-.38-.58-.38,2.92-1.29,1.48-.93-1.41-.02,4.08-.95,2.67-.93-1.44-.2,4.04-1.21,2.06-1.01-1.98-.64,2.24-1.73-.18-1.09-2.42-1.22,2.23-2.14.35-.9-1.84-.7.99-1.58-1.56-.9-2.55-.84,1.8-1.85-.22-.99-1.98-.85,3.35-1.66,1.51-.83-1.84-1.13,2.23-2.22-.06-1.1-2.26-1.29,1.65-2.01-1.03-.69-2.68-1.31,2.36-1.75.53-.44-1.83-1.13,2.5-1.93.49-.83-1.98-.93,1.96-1.27.81-.36-1.12-1.18.98-1.66.53-.47-.42-.81,1.53-1.65.09,0,0-1.18.81-1.42-.44-.27-1.29-1.95.22-2.9.19-.35,0-.44.16-.45.39-.07-.14-.15-.27-.25-.28-.28,0-.89,1.26-.89,1.26l-.83-1.84c-.81-1.88-1.19,1.08-1.19,1.08l.04-1.41s-1.78,1.64-2.16,2.13c-.41.49-1.93-.42-1.93-.42l-.44-.69c-.47-.72-1.29.64-1.29.64l-.62-1.97c-.62-1.97-1.19,1.25-1.71,2.28-.49,1.07-.43-1.23-.69-2.62-.24-1.42-1.48,1.51-1.48,1.51l-.55-1.16c-.55-1.13-1.56.26-1.56.26l-.47-.72c-.47-.72-1.71,2.55-1.71,2.55,0,0-.32-1.76-.98-3.2-.63-1.43-1.27.81-1.27.81,0,0-.33-1.43-.7-2.28-.37-.85-1.07.27-1.07.27l-.46-.99c-.46-1.02-.88.95-.88.95,0,0-.45-1.43-1.18-2.56-.69-1.06-.2,2.09-.1,2.69-.13-.44-.61-2.28-.59-3.02l-.11,4.21c-.02.57-1.3-1.72-1.3-1.72l-.06,2.39-.84-.43s-.53,1.67-.83,1.66c-.28,0-2.13.85-2.13.85l-1.16-.03-.45,1.17-.4,1.14-1.76-2.37-4.37,5.01.14-5.12-3.47-.09-4.46,7.26-1.07-3.4c-1.07-3.4-2.71,1.04-2.71,1.04l.14-5.12-4.38,4.43s-3.12,1.6-4.73,3.82c-1.59,2.22-5-.14-5-.14l.12-4.48-5.53,4.33-2.68-.07s-2.24-2.86-3.35-4.57c-1.11-1.72-3.86-.1-3.86-.1l-3.2,4.4.15-5.63-4.63-.13.17-6.17-3.13,1.03-.34-1.12c-.36-1.12-6.57-.18-6.57-.18l-5.39-.15-.17,6.17-3.68-6.84.15-5.59-3.23,5.51-2.56-5.67-.29,10.6,2.56,5.67,3.23-5.51-.15,5.59,3.68,6.84.17-6.17,5.39.15s6.21-.95,6.57.18l.34,1.12,3.13-1.03-.17,6.17,4.63.13-.15,5.63,3.2-4.4s2.75-1.61,3.86.1c1.11,1.72,3.35,4.57,3.35,4.57l2.68.07,5.53-4.33-.12,4.48s3.41,2.35,5,.14c1.61-2.22,4.73-3.82,4.73-3.82l4.38-4.43-.14,5.12s1.65-4.44,2.71-1.04l1.07,3.4,4.46-7.26,3.47.09-.14,5.12,4.37-5.01,1.76,2.37.4-1.14.45-1.17,1.16.03s1.85-.86,2.13-.85c.3,0,.83-1.66.83-1.66l.84.43.06-2.39s1.28,2.29,1.3,1.72l.11-4.21c-.02.74.46,2.57.59,3.02-.1-.61-.59-3.76.1-2.69.73,1.13,1.18,2.56,1.18,2.56,0,0,.42-1.98.88-.95l.46.99s.7-1.13,1.07-.27c.37.85.7,2.28.7,2.28,0,0,.64-2.24,1.27-.81.66,1.43.98,3.2.98,3.2,0,0,1.25-3.27,1.71-2.55l.47.72s1.01-1.39,1.56-.26l.55,1.16s1.24-2.93,1.48-1.51c.26,1.39.2,3.68.69,2.62.51-1.03,1.09-4.25,1.71-2.28l.62,1.97s.82-1.36,1.29-.64l.44.69s1.53.92,1.93.42c.38-.5,2.16-2.13,2.16-2.13l-.04,1.41s.38-2.96,1.19-1.08l.83,1.84s.61-1.26.89-1.26c.09,0,.18.14.25.28,0-.24.1-.4.45-.39.95.03,2.63-1.48,2.9-.19.24,1.25,1.42.44,1.42.44.84,1.44,1.17-.51,1.65-.09.47.45,1.29-1.65,1.66-.53.34,1.16.45-2.79,1.27-.81.8,2.01,1.5-2.32,1.93-.49.44,1.83,1.06-3.21,1.75-.53.71,2.68.91-1.22,2.01,1.03,1.1,2.29,1.39-1.78,2.22.06.81,1.84.67-3.49,1.66-1.51,1.01,2.02.94-2.33,1.85.22.88,2.55.68-.29,1.58,1.56.92,1.88,1.05-2.77,2.14-.35,1.09,2.42.72-1.8,1.73.18,1.01,1.98.28-3.5,1.21-2.06.93,1.41.02-4.08.95-2.67.91,1.44.91-2.07,1.29-1.48l.36.55s-.65-4.37.09-3.23c.76,1.17,1.66-.46,1.74-.12.11.34-.12-6.01,1.23-2.87,1.37,3.11,1.84.59,2.25,2.59.43,1.97.76-2.24,1.06.03,0,0,.9,1.71,1.55,3.28.83,1.98,2.95,1.33,3.14,2.18.16.85,1.65-1.2,1.85-.79.17.44.67-3.22,1.68-1.2.99,1.98,1.46-1.11,2.01.05.55,1.13.91-.99,1.64.04.74,1,.97-4.36,1.92.05.95,4.38,1.94.05,2.37,1.45.45,1.43.93-5.17,1.98-1.33,1.05,3.81,1.79,1.3,2.61,2.6.85,1.27,1.78-1.81,2.53-.37.73,1.44.95-3.35,1.88-2.04.94,1.27.83-2.51,1.67-.8.81,1.71.92-2.5,1.84-.52.92,1.98,1.26-.54,1.7,1.46.43,1.97.87-4.06,1.25.03.38,4.06.62,1.97,1.07,3.4.45,1.39,1.21-2.09,1.65-.39.44,1.7,1.18-.95,1.55-.09.35.85.79-1.09,1.18-.81.18.14.09-.6.07-.91.06.17.15.54.29,1.19.71,2.99.06,1.28.71,2.99.63,1.7.77-.25,1.22,1.01.45,1.26.99-1.52,1.73.05.72,1.57,1.78,1.73,2.05,2.15.29.45,1.57-4.31,2.58-2.02,1,2.29,1.46-.94,2.01.05.55.99.48-3.36,1.76-.8,1.3,2.56,1.39-.94,2.01.9.62,1.84.53-1.81,1.43.04.92,1.85,1.56-.4,2.19,1.31.63,1.7.67.02,1.51,1.59.81,1.57,1-2.06,2.02-.22,1.02,1.85,1.46-.1,2.28,1.17.84,1.3.85-2.37,2.23-.34,1.4,1.99,1.76-.93,2.12.46.33,1.43.67,3.52.84,3.97.2.41.83-1.66,1.36.17.53,1.83.28-.26,1.41.75,1.13,1.01,2.32-3.44,3.14-1.33.8,2.15.86-.11,1.71,1.02.82,1.17.45-2.79,1.76-.93,1.29,1.86,1.89-2.34,2.89.21.97,2.56,1.01-2.2,1.74-.22,0,0,.39,2.81.91,1.58.52-1.27.94-2.37,1.16-.24.24,2.1,1.21-2.09,1.61,1.16.4,3.25.44-1.54,1.49,2.3,1.05,3.81,2.1.09,2.46,1.35.36,1.26-.05-4.82,2.12.5,2.17,5.35,5.35,1.49,5.8,3.06.44,1.56.77-3.76,1.78-1.77,1.01,1.98,1.71-2.62,2.05-1.23.36,1.43,1.57-4.17,2.59-2.29,1.01,1.85,1.66-5.01,2.89-3.29,1.2,1.72,1.17-.54,2.15,1.74,1,2.25,1.17-.54,2.03.19.84.73.88-.95,1.85-.93s1.79-1.94,2.55-1.79c.78.19,1.17-4.01,1.63-3.02.46.99,1.99-2.64,2.54-1.35.54,1.3,2.22-.08,2.61.07.39.15.37-3.36,1.37-1.08,1,2.25,2.74,2.16,2.74,2.16,0,0,1.26-3.74,1.7-2.18.44,1.53.83-2.37,1.75-.39.92,1.98,1.59-1.51,2.41-.2.85,1.27,1.65-3.77,2.13.06.48,3.79,1.96-4.73,2.38-2.6.43,2.1,1.85-.79,2.5.07.65.86.64-2.24,1.68-1.24,1.04,1.01,1.05-2.77,1.88-2.04.86.7-.28-4.39.94-2.37,1.2,1.99,1.68-2.21,2.11-.08.43,2.1,2.15,2.72,2.49,1.18.32-1.54-.78-3.83.32-1.54,1.1,2.29,1.45.17,1.82.32.39.18,1.43-2.32,2.07-1.06.64,1.3,1.26-.24,1.19,2.29-.07,2.53,1.26-.54,1.54.58.25,1.15.69-.82,1.83-.09,1.14.74,2.54-1.31,3.09-.46.56.86.04-1.55,1.24.3,1.2,1.85,1.47-.4,2,1.47.53,1.84,1.45-.53,2.31.06.84.56.85-3.21,1.95-1.09,1.1,2.15,1.03-2.06,2.19,1.21,1.16,3.23,1.61,1.29,1.64.04.02-.84-.71-2.18-.7-2.24.02-.03.23.24.74.96,1.67,2.3,2.49.51,2.49.51,0,0,.34-1.54.77-.15.45,1.43,1.58-.94,1.74-.09.19.85.89-.52,1.43,1.18.53,1.7,1.2-1.65,2.22.06.66,1.13,1.41.78,1.84.42.07.17.18.34.35.62,1,1.58,2.22-.92,2.34-.91h.09s-.12,4.52-.12,4.52c0,0,.72,2.38,1.36,1.15.61-1.27.83-1.6,1.19-.34.36,1.22,1.25-2.53,2.04.8.81,3.29.59.49,1.71,2.78,1.12,2.26,3.07.49,3.56.1.5-.42.18-3.13.92-1.56.74,1.6.86-2.54,1.78.05.93,2.59,1.68.48,2.62,1.49.97,1.04,1.22-.44,2.05,1.3.83,1.74-.87-.43.83,1.74,1.72,2.14,2.62-1.78,3.54,1.07.92,2.82,2.5-.78,2.52-1.48s-.31-3.08.72-.96c1.03,2.15,1.93-2.14,2.2-.88.24,1.22.34-2.22,1.57.04,1.21,2.26,1.55-2.39,2.5-.94.93,1.41,2.23-6.41,3.54-3.41,1.31,2.97,1.27.1,1.5-.63.23-.74,1.51-1.07,2.08.06.55,1.09,1.47.41,2.04.73.59.29,1.21-.27,2.27.06,1.08.3,1.79-.26,2.48.07.69.29,1.18-.14,1.99.05.78.16,1.57-3.13,2.4-1.32.83,1.81,1.1,2.93,1.84,1.43.74-1.53.7-3.49,1.53-1.88.86,1.64-.16-.91,1.67.69,1.83,1.6,2.07-.35,2.57.07.47.45,2-1.16,2-1.16,0,0-.22-3.92.22-4.75h.42c.09.12.22.32.35.63,1.4,3.14,1.97.8,2.33,2.05.36,1.29.64-1.53,1.4-.54.76,1.03,1.34-2.49,2.21-1.36.85,1.17.23,1.83,1.99-.72.07-.07.1-.13.17-.23l36.8-.69c.43.32.8.36,1.04,0l3.5-.07s.07.07.11.1c.42.55.9.06,1.3-.13h.39c.09.05.2.15.27.35,0,0,1.53,2.57,2.06,1.03.2-.57.38-1.07.55-1.44h.9c.48,1.12,1.47-.31,2.01.96.57,1.3,1.4-.37,2.16.63.6.79.97-.82,1.25-1.72l3.13-.05c.51.69.88-.18,1.7.65.95,1,1.31-1.35,2.42,1.21,1.13,2.56,2.8-.77,3.35.93.53,1.7,1.75,4.53,2.64.75.34-1.41.35-2.76.31-3.73l.58-.02c1.39,3.41,3.19,2.61,3.76,2.9.59.32,1.14-2.06,1.81-.93.66,1.13,2.14-2.03,2.8-.63.66,1.43,2.1-1.33,2.56.37.44,1.7.83-1.53,1.59-.53.76,1,2.32,1.61,2.67-.2.11-.5.23-.94.38-1.27l1.3-.03c.11.21.22.48.33.79.81,2.42,2.99,2.47,3.46,3.03.49.59.7-.25,1.47.48.77.73,1.62-.66,2.18-.21.59.42,1.5-.67,1.88-.25.38.45.33-1.1,1.1-.51.77.56.67-2.51,1.62-.8.93,1.71.79.02,2.31,1.88,1.52,1.86,2.1-.52,2.77.48.64,1,.53-1.54,1.76-.22,1.26,1.28.86-1.66,2.3-.21,1.44,1.42,1.57.04,2.73.75,1.16.74.95-1.66,1.6-.8.67.86,1.66-2.18,2.31-.78.63,1.43,1.43,2.03,1.47.48s.46-2.52,1.09-.24c.61,2.24.64,1,1.89,2.71,1.23,1.72,1.5-.8,2.07.33.55,1.13.97.16,1.56.62.57.42,1.7,3.11,1.77.59.07-2.53-.74-6.19.85-2.34,1.56,3.82,1.79-.12,2.68,2.74.92,2.82,2.21,3.13,2.24,1.81.04-1.35-.03-3.3.82-1.33.83,2.01,1.33,1.42,2.02,1.4.7-.05,1.93,2.38,2.03-1.43.1-3.77,0-4.35,1.04-2.5,1.04,1.85,1.48.17,2.08.19s.79-3.62,1.73-1.64c.92,2.01-.64,1.4.92,2.01,1.58.58,1.07-2.67,2.2-.78,1.13,1.85,1-.14,2.06.9,1.06,1.01,1.34-2.36,2.29-.78.95,1.54.09-3.24,1.99-.65,1.92,2.58,3.05,1.06,3.47.09.42-.97-1.2-3.54.42-.97,1.6,2.57,1.87.05,2.93,1.06,1.06,1.01,1.76-3.63,2.58-.37.79,3.26.93,2.55,1.96.19.69-1.53.45-3.66.5-3.9l-.58-1.63c.53-.83,1.07-1.76,1.24-.47.33,2.37,1.73.32,2.19,1.04.47.72.8-4.63,2.27-1.76,1.45,2.84.97-.68,2,.59,1.03,1.31.61-4.7,1.77-1.33,1.16,3.4,2.62,3.41,2.94,1.8.34-1.58.4-3.73.79.02.36,3.75,1.49,1.52,1.94,2.82.45,1.26,1.36-3.91,2.08-1.49.7,2.41,1.3-5.29,2.08-2.47.8,2.82-.58.12.8,2.82,1.36,2.73,1.18-.98,1.88,1.53.7,2.48.67-3.29,1.19-1.28.53,1.97.43-1.4,1.34.04.93,1.41.23-4.92,1.44-2.79,1.19,2.16.85-3.21,2.32-.21,1.45,2.97,1.24.27,2.54,1.96,1.3,1.65,1.21-2.06,2.41.07,1.19,2.09,1.19-1.15,1.22-2.29s.15-2.09.77.73c.59,2.85.6-.69,1.88,1.53,1.28,2.23,1.07-.31,1.98,1.1.93,1.44-.02-6.17,1.71-2.35,1.72,3.86,1.1-1.25,2.85,1.43,1.76,2.64.48-6.66,2.58-2.12,2.08,4.57,2.96,7.94,3.11,5.55.16-2.36-1.58-5.64.16-2.36,1.76,3.28,2.11.63,3.06,1.5.93.87,1.56,2.98,1.91.59.36-2.35.44-5.08,1.32-2.49.9,2.55,2.22.06,2.76,1.36.54,1.26,1.28-.94,1.83-.22.56.69.89-.41,1.45.44.56.86,1.29-4.79,2.35-1.35,1.07,3.4,1.72,3.86,1.76,2.44.04-1.38.62-1.53.68-.39.06,1.11,1.03,1.14,1.15.44.06-.4-.22-1.32-.26-1.56.07.1.17.38.37.85.91,2.15.82-1.36,2.1,1.07,1.28,2.39,1.38-1.51,1.84-.52.46.99.59-3.83,1.61-2.08,1.02,1.71,1.94-.82,2.41.07.29.54.49-.95.82-1.5.55,1.68.57,1.74.57,1.74l.32-.95c.1.2.2.31.29.32l-.06,2.37s.78-.99,1.22-1.22c.08.74.19.96.32.82,0,.92-.1,2.17-.1,2.17,0,0,.76-2.57,1.01-.98l.25,1.59s.45-2.15.89-.12c.44,2.03-.24,1.72.44,2.03.68.31.77-2.86,1.41-1.11.64,1.75,1.12-1.41,1.67.48.54,1.89.94-1.7,1.09.03.15,1.73.06-2.16.78.31.75,2.47,1.41-3.85,2.39.35.97,4.2,1.45,4.79,1.9,2.93.45-1.86-.75-5.06.45-1.86,1.2,3.2,1.92-1.53,2.55.79.63,2.32,1.5-.68,1.84,1.49s2.69-.94,2.69-.94c0,0,.92-.19,1.53,1.77.73,2.32,2.31-1.38,2.46.5.15,1.88.29-3.31.98.46.69,3.76,1.43-1.83,1.94,1.35.51,3.18,2.24,4.96,2.3,2.8s.47-2.58.8-.41c.34,2.17.53-1.28,1.35,1.19.82,2.47,1.64-2.26,2.35.64.71,2.9,2.15,4.38,2.41,2.23.26-2.15.71-4.16,1.13-1.7.43,2.46,1-.41,1.66.91.66,1.31,1.52-1.26,2.16.49.64,1.75.99.1,1.54,1.52.55,1.42,3.18-.6,3.06.08-.12.68.77.74,1.27.54.5-.24,1.82-1.64,1.82-1.64,0,0,.06-2.16,1.09-.11,1.03,2.05,1.74,1.52,2.42,2.01.68.52,1.62-1.43,2.17.06.55,1.53.37-2.76,1.18.14.81,2.87-.36,2.26.81,2.87,0,0,1.25,1.19,1.48.04.23-1.15.98.17.97.53s.65-2.22,1.09.03c.43,2.24-.12-2.81.95,1.25,1.08,4.06.56,1.17,1.41,2.78.85,1.61.71-4.45,1.62-1.4.91,3.05.56-2.43,1.67.19,1.14,2.62.59.27,1.66,1.63,1.05,1.33.87-2.75,1.48.04.62,2.75.67-2.86,2.03,1.78,1.36,4.65,1.06.89,2.08,3.51,1.02,2.62.75-2.28,1.88.05,1.12,2.34.9-.44,2.05.85,1.15,1.26.9-4.08,2.03-2.03,1.13,2.05,2.38-.22,2.38-.22,0,0,.89-3.87,1.92-1.68,1.03,2.19,1.53-5.43,2.33-2.24.8,3.19,1.31-1.12,2.12,1.93.81,3.05,1.03,5.65,1.48,3.64.45-2,.71-4.3,1.13-1.55.42,2.75,0,4.03.42,2.75.43-1.28,1.51-.97,1.69-.39.18.58.29.3.76.96.48.66.41-.64.99.03.57.66,1.9-1.03,1.9-1.03,0,0,.48-3.16,1.51-.97,1.03,2.19,1.4-.54,1.68.05.28.58.48-3.3,1.42-1.4.94,1.9,2.61-1.66,3.34.81.72,2.47,1.72,2.06,2.15.78.43-1.29-1.47-3.93.43-1.29,1.9,2.64.86-2.71,1.51-.97.64,1.75,1.4-.68,1.67.33s.56-2.29,1.39-.11c.83,2.18,2.23,1.65,2.26.64.02-.61-.32-1.77-.41-2.14.02,0,.16.36.44,1.13,1.01,2.76,2.28-.23,2.28-.23,0,0,.18-.32.41-.67.17-.07.35-.24.51-.49.28-.17.55-.09.67.63.11.58.21.55.31.26.09.29.19.33.33-.24.17-.72.44-.78.71-.59.14.26.31.44.48.52.21.37.38.69.38.69,0,0,1.1,3.06,2.26.35.32-.75.47-1.1.5-1.1-.11.36-.51,1.5-.53,2.11-.03,1.01,1.34,1.62,2.29-.51.95-2.14,1.05,1.18,1.38.18.32-1,.95,1.47,1.69-.24.74-1.71-.59,3.59,1.45,1.05,2.04-2.54,0,0,.36,1.31.36,1.31,1.34,1.76,2.19-.66.86-2.43,2.34,1.22,3.38-.63,1.04-1.84,1.03,2.04,1.34,1.48.31-.57.53,2.18,1.68.05,1.14-2.13,1.45,1.05,1.45,1.05,0,0,1.24,1.76,1.85,1.13.61-.63.48.66.99.03s.6-.34.82-.91c.21-.57,1.31-.83,1.67.48.36,1.31,0,0,.57-2.72.57-2.72.7-.41,1.04,1.61.34,2.03.71-.56,1.68-3.56.97-3,1.25,1.33,2.22-1.81.97-3.14,1.06,4.5,2.21,2.36,1.14-2.13,1.83,1.78,1.83,1.78,0,0,1.12,2.34,2.36.35,1.24-1.98.7,3.33,1.92,2.14,1.22-1.23.85,1.54,2.09-.74,1.25-2.27.72,2.61,1.88.05,1.16-2.56.66,1.17,2.27-3.4,1.61-4.57,1.35,1.04,2.12-1.67.79-2.75.38,1.31,1.51.04,1.12-1.3.47,1.02,1.72-1.54,1.25-2.56.61,2.9,1.68-.1,1.07-3,.61,3.04,1.54,1.48.93-1.56.26,1.3,1.56-2.7,1.29-4,.47,1.02,1.02-1.2.55-2.22,1.08.39,1.09.03s.83-1.63,1-.48c.17,1.16,1.48.04,1.48.04,1.2-.54,0,0,.97-2.82.97-2.86.55,1.42,1.19-.08.63-1.46,1.47.54,2.17.06.7-.45,1.38.11,2.52-1.88,1.14-1.99,1.08.17,1.08.17,0,0,1.24,1.47,1.73,1.74.49.23,1.38.22,1.3-.47-.08-.69,2.43,1.47,3.06.08.63-1.39.88.28,1.62-1.43.74-1.71,1.46.9,2.18-.37.73-1.28,1.14,1.62,1.7-.82.56-2.43.9-.41,1.04,1.76.14,2.16,1.66.76,2.53-2.09.87-2.86,1.43,1.91,2.38-.51.95-2.42.96,1.03,1.41-1.11.45-2.15.84-1.71.78.45-.06,2.16,1.77.48,2.44-2.67.68-3.15,1.12,2.48,2.01-1.24.36-1.5.55-1.54.66-1.19-.04,3.45,1.27,1.24,1.94,1.33.69.05,1.16.67,2.1-1.29.95-1.93.79.02.75,1.37-.03,1.17,1,1,1.98-.99.13-.11.24-.28.3-.6h0s.03-.06.05-.1c.12-.31.22-.51.31-.68.4-.2.89.87,1.42-.3.19-.12.43-.42.71-.9.33.21.67,1.1,1.15,1.03-.02.22-.03.43-.04.64-.05,1.88.65.9,1.25.12,0,0,0,.02,0,.03.27,1.47.65,1.42,1.37-.65.24.05.47.01.77-.52.63-1.1.77,1.44,2.09-.21,1-1.23,1.24-.85,1.6-1.5.14.21.3.22.52-.41.43-1.24.71-.25,1.07.04.14.75.69.41,1.25-.56.18.54.33,1.47.72,1.32.62-.24.18-.14.45-1.52.43.52.87,1.28,1.27.82.69-.82.35,1.56,1.55.88,1.2-.64,1.25.74,2.77-.6,1.52-1.38.95,1.54,2.28.33,1.31-1.25,1.05,1.28,1.75.32.72-.96,1.16,1.45,2.79-.33,1.62-1.78,1.39-.1,2.41-1.76,1.04-1.66.77,1.4,1.57.89.8-.55.67,1,1.07.57.4-.39,1.25.74,1.87.35.59-.42,1.36,1.01,2.17.33.81-.69.97.16,1.49-.4.5-.53,2.67-.47,3.62-2.84.12-.3.25-.57.37-.77l1.29.1c.13.34.23.78.31,1.29.25,1.83,1.84,1.3,2.65.34.81-.96,1.03,2.29,1.56.62.55-1.67,1.84,1.16,2.58-.23.73-1.36,2.03,1.88,2.76.78.72-1.09,1.14,1.31,1.75,1.03.59-.25,2.34.64,3.92-2.69l.58.05c-.1.97-.16,2.32.11,3.75.68,3.83,2.05,1.07,2.68-.6.65-1.67,2.13,1.74,3.4-.75,1.25-2.5,1.49-.13,2.48-1.08.85-.79,1.18.1,1.73-.56l3.12.22c.23.92.51,2.54,1.16,1.78.81-.96,1.55.75,2.19-.51.61-1.23,1.52.24,2.06-.85l.9.06c.15.38.3.88.47,1.46.44,1.56,2.11-.92,2.11-.92.07-.2.19-.3.29-.33h.39c.39.22.84.74,1.29.21.05-.03.09-.06.12-.1l3.49.26c.22.38.59.35,1.04.06l36.71,2.68c.07.1.09.17.16.24,1.62,2.64,1.04,1.95,1.95.83.93-1.09,1.32,2.46,2.14,1.47.81-.96.94,1.88,1.37.61.43-1.24.87,1.14,2.44-1.92.15-.3.29-.5.39-.6h.42c.39.86-.04,4.77-.04,4.77,0,0,1.44,1.69,1.93,1.27.52-.39.65,1.57,2.57.07,1.92-1.5.76,1,1.71-.59.92-1.56.78.39,1.43,1.96.65,1.53.98.43,1.91-1.33.93-1.76,1.53,1.56,2.32,1.44.81-.15,1.29.3,1.99.05.7-.28,1.38.31,2.48.07,1.07-.27,1.66.31,2.27.06.59-.29,1.47.44,2.08-.62.63-1.1,1.89-.69,2.08.06.19.75,0,3.61,1.46.71,1.47-2.93,2.34,4.95,3.35,3.6,1.03-1.39,1.12,3.27,2.45,1.08,1.36-2.19,1.26,1.25,1.57.04.33-1.24,1,3.1,2.15,1,1.14-2.06.69.29.67,1s1.36,4.39,2.43,1.62c1.07-2.8,1.75,1.16,3.59-.88,1.82-2.08,0,0,.93-1.69.93-1.69,1.09-.21,2.12-1.19,1-.95,1.63,1.19,2.7-1.34,1.06-2.53.95,1.61,1.78.05.83-1.53.36,1.16.84,1.61.47.42,2.32,2.29,3.56.1,1.24-2.23.86.56,1.85-2.68.97-3.28,1.65.52,2.08-.69.43-1.24.63-.89,1.17.4.57,1.26,1.42-1.07,1.42-1.07l.12-4.52h.09c.12,0,1.2,2.56,2.29,1.04.19-.26.31-.43.39-.6.41.38,1.14.77,1.86-.32,1.11-1.66,1.6,1.73,2.22.06.62-1.67,1.26-.27,1.49-1.11.21-.84,1.21,1.58,1.73.18.5-1.37.76.19.76.19,0,0,.71,1.84,2.51-.37.55-.69.77-.96.79-.92,0,.07-.8,1.36-.82,2.2-.03,1.25.31,3.21,1.64.04,1.34-3.2,1.04,1.01,2.25-1.09,1.21-2.06,1.02,1.71,1.89,1.2.89-.55,1.69,1.87,2.31.06.63-1.84.78.43,2.07-1.36,1.3-1.79.66.59,1.26-.24s1.89,1.3,3.06.62c1.18-.68,1.52,1.32,1.82.18.33-1.1,1.5,2.03,1.56-.5.07-2.53.6-.96,1.31-2.22.7-1.23,1.61,1.32,2.01,1.17.37-.12.62,2.01,1.83-.22,1.22-2.23,0,0,.24,1.56.26,1.56,2.01,1.03,2.55-1.04.54-2.11.8,2.11,2.1.19,1.33-1.95-.08,3.07.81,2.42.88-.68.68,3.09,1.77,2.14,1.09-.95.91,2.15,1.61,1.32.69-.82,1.96,2.14,2.5.07.54-2.11,1.56,6.48,2.24,2.72.68-3.79,1.22,1.28,2.13.06.89-1.26,1.37,2.26,2.4.33,1.02-1.93,1.2,1.99,1.72.48.53-1.54,1.58,2.27,1.58,2.27,0,0,1.73.18,2.86-2.01,1.13-2.23.91,1.27,1.31,1.15s2,1.34,2.61.07c.61-1.26,1.95,2.45,2.46,1.48.51-.96.68,3.26,1.47,3.11.77-.11,1.48,1.89,2.45,1.92s.93,1.71,1.8,1.03c.9-.68.91,2.12,2.04-.08,1.1-2.23.95.03,2.24-1.63,1.32-1.65,1.59,5.24,2.71,3.44,1.11-1.82,2.03,3.83,2.46,2.43.41-1.37.86,3.26,1.98,1.33,1.12-1.93,1.16,3.4,1.69,1.87.53-1.54,3.5,2.49,5.95-2.74,2.46-5.19,1.71.86,2.14-.38.43-1.24,1.27,2.53,2.53-1.21,1.26-3.78,1.04,1.01,1.61-2.22.57-3.22,1.32,1.01,1.67-1.07.33-2.12.7-.99,1.15.3.45,1.26.99-1.52.99-1.52.84-1.93.62,2.82,1.73.32,1.13-2.5,1.5,1.73,2.9-.06,1.41-1.78.82,2.15,1.71,1.02.91-1.09.85,1.17,1.76-.93.94-2.07,1.88,2.44,3.06,1.5,1.18-.95.83,1.14,1.45-.67.63-1.8,1.15.3,1.37-.1.2-.43.65-2.51,1.05-3.92.43-1.37.63,1.57,2.14-.35,1.49-1.95,1.3,1.72,2.21.46.89-1.22,1.23.74,2.34-1.05,1.11-1.79,1.11,1.85,2.01.32.92-1.53.88.16,1.59-1.51s1.23.61,2.25-1.19c1-1.79.71,1.84,1.43.04.72-1.8.63,1.7,2.06-.79,1.41-2.49,1.11,1.85,1.71.89.6-.96.89,2.28,2.01.05,1.13-2.23,2.15,2.59,2.47,2.16.29-.4,1.36-.5,2.16-2.03.83-1.53,1.22,1.28,1.73.05.52-1.23.56.72,1.28-.94.74-1.67,0,0,.87-2.94.18-.64.28-1,.36-1.17-.03.3-.17,1.04.02.91.4-.26.74,1.71,1.13.87.42-.83,1.02,1.85,1.55.18.53-1.67,1.11,1.85,1.63.48.52-1.4.65.69,1.25-3.34.6-4.06.71,1.98,1.25.03.54-1.97.75.56,1.77-1.37,1.02-1.93.91,2.28,1.81.62.92-1.66.61,2.11,1.62.89,1.01-1.25.97,3.53,1.77,2.14.82-1.39,1.6,1.73,2.51.51.89-1.26,1.49,1.29,2.75-2.45,1.26-3.78,1.38,2.84,1.91,1.43.5-1.37,1.26,3,2.44-1.32,1.18-4.35,1.13,1.01,1.92.05.79-.99,1.03,1.14,1.64.04.61-1.13.92,1.98,2.01.05,1.12-1.96,1.41,1.72,1.61,1.29.22-.4,1.6,1.73,1.8.89.23-.84,2.32-.07,3.25-2,.74-1.53,1.73-3.19,1.73-3.19.43-2.25.53,1.97,1.06.03.52-1.98.84.56,2.38-2.46,1.52-3.06.95,3.26,1.08,2.93.1-.33.91,1.34,1.73.22.79-1.09-.09,3.23-.09,3.23l.38-.53c.41-.56.22,2.94,1.21,1.55,1.01-1.36-.2,4.07.81,2.72,1.01-1.39-.02,4.05,1.1,2.12,1.12-1.93.52,2.27,1.74-.09,1.22-2.36,1.1,2.29,2.12.46,1-1.79.64,1.03,1.66-1.47,1.04-2.5.74,1.84,1.86-.12,1.09-1.93.67,3.39,1.58,1.59.93-1.8,1,2.29,2.22.06,1.22-2.19,1.2,1.72,2.06-.92.84-2.64,1.18,2.43,1.72.62.53-1.81,1,2.56,1.91.59.93-1.93.83,2.01,1.23.88.42-1.1,1.13,1.04,1.63.62.5-.39.72,1.57,1.64.18,0,0,1.13.87,1.45-.37.34-1.27,1.94.32,2.88.35.35,0,.43.18.43.42.07-.13.17-.27.26-.26.28,0,.82,1.3.82,1.3l.93-1.8c.91-1.83,1.13,1.14,1.13,1.14l.04-1.41s1.69,1.73,2.05,2.25c.38.52,1.95-.32,1.95-.32l.48-.66c.5-.69,1.25.71,1.25.71l.72-1.94c.72-1.94,1.12,1.31,1.58,2.37.43,1.09.5-1.2.83-2.57.32-1.41,1.39,1.59,1.39,1.59l.61-1.13c.61-1.1,1.54.34,1.54.34l.5-.69c.5-.69,1.57,2.64,1.57,2.64,0,0,.42-1.74,1.15-3.14.71-1.4,1.23.88,1.23.88,0,0,.41-1.41.82-2.24s1.06.33,1.06.33l.51-.96c.51-1,.83,1,.83,1,0,0,.52-1.4,1.32-2.49.75-1.03.08,2.09-.05,2.7.15-.43.73-2.24.75-2.98l-.11,4.21c-.02.57,1.39-1.65,1.39-1.65l-.06,2.39.87-.38s.44,1.7.74,1.71c.28,0,2.08.97,2.08.97l1.16.03.38,1.19.34,1.16,1.89-2.28,4.1,5.24.14-5.12,3.47.09,4.06,7.49,1.25-3.34c1.25-3.34,2.65,1.18,2.65,1.18l.14-5.12,4.13,4.66s3.03,1.77,4.52,4.07c1.47,2.3,5,.14,5,.14l.12-4.48,5.29,4.63,2.68.07s2.39-2.73,3.59-4.39c1.2-1.65,3.86.1,3.86.1l2.96,4.56.15-5.63,4.63.13.17-6.17,3.07,1.2.4-1.1c.42-1.1,6.57.18,6.57.18l5.39.15-.17,6.17,4.05-6.63.15-5.59,2.93,5.68,2.86-5.52.29-10.6-2.86,5.52-2.93-5.68Z"/>
        </g>
      </g>
    </g>
  </g>
</svg>