<?xml version="1.0" encoding="UTF-8"?>
<svg xmlns="http://www.w3.org/2000/svg" version="1.1" viewBox="0 0 834.81 659.05">
  <!-- Generator: Adobe Illustrator 29.8.3, SVG Export Plug-In . SVG Version: 2.1.1 Build 3)  -->
  <defs>
    <style>
      .st0 {
        fill: #f4e600;
      }

      .st1 {
        mix-blend-mode: soft-light;
        opacity: .69;
      }

      .st2 {
        isolation: isolate;
      }
    </style>
  </defs>
  <g class="st2">
    <g id="Laag_1">
      <g id="HMmjC4" class="st1">
        <g>
          <path class="st0" d="M280.86,644.9c-3.46-1.59-6.36-2-9.69-4.24-1.5-1.01-10.82-10.48-11.03-11.57-1.14-5.87,1.48-17.64,5.81-22.12,3.43-3.56,13.28-7.32,18.11-7.21,8.84.2,20.53,12.48,21.11,21.36.09,1.36-2.67,13.95-3.13,14.72-1.13,1.9-9.62,6.54-11.24,9.06h-9.93Z"/>
          <path class="st0" d="M320.87,521.58c8.48-7.45,20.31-7.09,29.01-.31,9.09,7.08,10.31,17.5,7.46,28.21-2.99,11.22-19.93,16.15-30.05,11.53-3.27-1.49-13.74-11.15-14.67-14.21-2.14-7.09,2.67-20.32,8.25-25.22Z"/>
          <g>
            <g>
              <path class="st0" d="M399.07,354.32l-.9-9.02c3.61,1.33,1.12,5,4.49,6.77l-3.58,2.25Z"/>
              <g>
                <path class="st0" d="M11.07,138.65c.58-7.16,3.98-22.42,5.59-29.98.87-4.08,6.86-13.74,11.53-14.29l-.88-1.74,2.26-.02,1.36,3.64,3.13-.91c1.99,1.01.26,2.6.64,3.38.2.41,6.74,5.98,7.03,5.64l-4.06-8.12c5.39,3.56,13.58,18.29,18.03,20.84,1.69.97,2.79-1.22,3.71,1.75l2.17-.94-.04,4.04,5.47,2.26c-1.43-2.18-3.11-2.77-2.71-5.85l1.79-.45,8.13,12.63c-1.25-4.73-4.28-8.78-6.16-13.24-.35-.83-1.96-2.3-.61-3,3.67,3.22,6.26,13.73,11.73,11.9l.95.71c-1.34,6.11,6.9,9.14,4.02,15.36l1.77-.9c4.77,13.69,6.78,28,8.16,42.41l.99-1.66,1.7.76c1.83-5.37-.21-9.14-.79-14.1s-.26-8.7-1.83-13.5c-.51-1.57-2.38-2.67-2.57-3.64-.21-1.09.85-2.89.78-4.4-.13-2.8-1.81-4.99-.08-7.67-.89-.01-2.23.31-2.81-.53-.29-.42-3.32-8.96.09-5.78l-.91-4.52-1.34,2.7c-1.47-1.04-1.01-2.75-1.7-4.22-.17-.36-1.38-.39-1.48-.76-.74-2.87,2.23-1.33,1.81-4.37-.65-4.7-4.51-9.27-8.56-11.41l-7.23-12.61-2.23,2.7c-.68-4.7-6.86-8.27-4.53-.9l-3.23-.86c-3.89-7.29-17.71-16-21.18-22.1-3.58-6.31,1.13-4.34,2.54-5.22.44-.27.52-1.62,1.13-1.99,1.99-1.23,7.86-1.01,10.11-.26,1.92.64,12,9.52,13.83,11.44,5.52,5.82,7.96,10.86,14.4,17.18,9.69,9.52,18.61,18.52,25.54,30.41,1.39,2.38,6.45,14.72,7.85,14.7,1.06-2.03,4.87-3.59,3.15-5.39.73-.02,1.97.26,2.48-.19,1.18-1.03,5.34-9.28,5.83-9.59.83-.52,2.28.37,3.52-.73,2.91-2.6,5.03-13.77,6.38-14.62l1.57.7c10.72-19.67,21.23-39.61,32.75-58.87,5.04-8.43,9.79-11.01,11.79-21.59,1.64-8.65,5.22-21.55,16.41-19.61,1.58.27,2.57,2.05,4.32,1.64,1.4-.32,2.92-2.5,4.34-3,1.87-.66,5.79.54,8.05-1.39l-3.58,4.06,3.59,2.72-2.69,3.15c3.47-1.97,2.16.09,3.34.9,1.48,1.02,3.86.83,3.88,3.61l.89-2.71h2.7s0,6.32,0,6.32l-4.5-1.8c0,1.93-1.15,3.67-.78,5.65.07.38,3.45,6.45,3.71,6.74,1.31,1.41,5.95.45,5.22,4.29-4.11,1.62-5.41,6.18-8.17,9.12-11.49,12.22-36.82,47.54-41.75,63.82-.64,2.13.39,3.39-.39,5.77-2.45,7.45-11.29,20.36-15.16,28.23-15.9,32.28-31.95,64.25-35.61,100.65-.57,5.7.36,16.34-1.1,21.46-.49,1.71-8.48,11.03-7.93,11.46,1.74.26,3.08-.61,4.55-1.31,13.56-6.42,32.02-18.59,45.32-26.69.65-.39.7-1.69,1.13-1.79,2.85-.68,1.59,2.71,4.94,1.81l-1.79-2.24c2.25-3.12,6.07-2.62,8.76-3.88,16.91-7.89,31.67-21.6,51.68-13.73,1.73-11.02,5.06-22.63,5.46-33.81.26-7.53-1.59-24.62-5.24-30.93-3.03-5.25-8.51-9.25-11.06-14.67l-4.06.91c-1.47-6.91-3.54-11.73-.61-18.69.66-1.55,5.89-10.18,6.93-11.12s4.55-2.79,5.85-3.17c21.38-6.34,38.09,21.59,45.15,37.95.14.49-1.43.37-1.58.62-.69,1.17,5.04,22.18,5.19,26.47.63,17.37-7.53,49.48-14.71,65.58-2.79,6.26-8.76,13.27-10.48,19.19-.38,1.32-1.04,2.55-1.87,3.63.06,1.13,4.79,1.99,5.95,2.15,10.01,1.4,20.41,1.57,30.46,2.92,6.82.92,13.55,2.78,20.41,3.49-4.93-12.67-12.69-24.08-18.06-36.53-2.25-5.22-7.35-17.51-7.27-22.6.13-8.18,1.67-18.98,10.42-22.09,2.54.47-.54,5.36-.44,6.7.03.48,1.32.33,1.77,1.23.94,1.87-1.01,4.06,4.55,3.8.52-1.88-2.25-6.85-1.65-7.93,1.4-2.52,5.55-2.72,7.97-3.81l-1.8-3.58c4.86-1.51,5.31-2.63,9.86.5,3.7,2.55,15.02,18.25,16.29,22.51s-4.97-3.31-4.45-.08c4.08,25.07,24.53,53.36,32.19,79.71,1.39,4.8,1.62,12.57,3.77,16.99,1.33,2.74,4.72,2.62,3.69,6.68l-2.69-.9c1.2,5.25,2.49,7.41-.02,12.63l-4.07-1.81c-.36,2.06-2.41,1.56-2.87,2.02-1.06,1.04-3.61,9.58-2.06,11.52-4.03-.55-6.58,2.64-10.36,2.81-11.1.48-17.21-14.2-24.38-20.85-.94-.87-2.78-.95-3.67-1.75-1.4-1.27-.74-4-3.08-3.68,5.49-5.57.37-2.89,0-8.1l4.5,2.7c-.33-3.19-.2-6.22-2.65-8.63-.69-.68-7.19-4.52-7.95-4.71-3.14-.8-8.13-.07-12.13-2.02-.83-.4-2.49-3.08-3.89-3.58-1.03.77-1.46,5.12-1.16,5.9.27.7,2.43-.14,1.61,2.22-6.62-1.25-3.14,2.36.9,4.08,3.05,1.29,8.63,1.41,10.84,4.94-2.53-.92-6.26-.37-8.41-.91-.72-.18-.58-1.77-1.13-1.8-2.53-.14-6.89,1.91-9.4,2.71l.92-4.98c-2.75-.12-6.05-1.24-8.6-1.34-1.53-.06-3.24,1.14-4.42.99-1.01-.12.08-2.29-1.43-1.88-.01,1.73,1.65,3.74-.59,4.37-5.27,1.5-15.52-2.23-21.57-.8l-5.82,1.37c3.25,3.77,8.64.97,13.12.87,2.24-.05,3.75-.06,6.07-.18,2.62-.14,6.74,1.89,9.68,1.57v2.7s-33.8,2.75-33.8,2.75c-14.78.51-23.72-.65-36.92-7.37-9.61-4.89-7.59-12.3-8.68-21.12-.16-1.27.47-1.55-1.34-1.32l-44.28,26.15c-.62.85.59,1.88,1.04,2.63,22.54,37.71,57.55,71.39,82.09,109.21,2.99,4.6,7.95,13.6,10.79,17.18,1.1,1.38,3.55,2.28,4.02,3.2,1.67,3.28-5.65.85-6.3-1.36l-.11,3.51c-1.36.13-7.51,2.41-7.87,2.99-.46.74.16,2.28-.36,3.2-.62,1.09-5.43,4-7.01,2.03l1.79,4.51c-1.21,1.08-8.39-3.05-9.9-4.06l3.58-2.71c-3.49-1.67-2.28-5.81-3.26-7.69-.72-1.39-2.64-2.17-3.44-3.67-.57-1.06-2.74-7.38-3.13-7.66-.93-.66-3.68-.23-5.45-.87-5.49-1.99-15.82-13.28-20.5-17.91-19.75-19.52-37.32-42.81-55.35-64.16-4.52-5.35-10.38-10.46-13.53-16.72l-47.83,33.82c-7.68,4.06-7.54,26.79-15.98,28.31-3.06.55-6.52-1.67-6.49-4.83.03-3.23,7.79-12.24,5.36-17.59-9.66-.32-20.48.94-20.88-11.61l-8.9-.12,1.79-3.14c-5.14-4.73-7.33-14.15-4.28-20.55,1.28-2.68,10.4-6.17,13.59-8.07,13.96-8.3,32.25-18.68,45.12-27.97,1.64-1.18,6.07-3.89,6.04-5.67-18.8-30.35-39.76-60.21-53.4-93.72-8.99-22.09-14.04-43.61-14.28-67.39-.02-2.33-.19-4.93,0-7.22ZM80.54,224.38c-1.38-33.93-2.45-69.42-27.96-94.75-2.44,15.32,2.31,30.56,6.76,45.12,4.86,15.87,11.72,32.92,18.99,47.83.63,1.3-.19,2.26,2.2,1.81ZM107.6,172.94c3.64-10.48,12.62-18.95,11.73-30.67-2.6,1.4-2.37,5.28-3.42,7.85-2.57,6.3-6.91,13.64-8.97,19.91-.28.86-.95,3.13.66,2.92ZM249.28,228.89c5.61-7.63,6.45-20.47,8.1-29.77l-2.7,10.83-2.69-.91c.18,2.39.53,3.31-1.83,4.06l2.74,3.6c-2.79.77-.84,1.41-1.36,3.13-.88,2.92-2.63,5.72-2.26,9.06ZM188.82,267.7l-3.94,1.01-10.49,6.19c4.92-.66,10.65-3.92,14.43-7.2ZM283.56,304.7c-14.11-3.59-28.77-3.84-43.31-3.61-.87,3.81,5.54-.42,7.17,1.86-2.01,1.49,3.56,2.98-.59,4.29-.71.22-8.18-1.45-5.68,1.06,1.16,1.17,14.18,2.52,12.63.02l-1.8-1.81,2.7.45v-3.15c2.88,1.38,6.15,1.38,9.01,0l-.88,3.21c-1.12.71-7.51-2.23-5.43,1.76,2.01,1.39,21.4,4.52,23.9,4.07,1.05-.19,1.68-.49,2.28-1.39l-1.85-4.49c1.37-.79,2.3-.03,1.85-2.25Z"/>
                <path class="st0" d="M231.22,176.55c-3.34-4.89-9.82-9.01-13.12-13.49-.91-1.24-1.7-1.82-1.31-3.65.96-1.04,9.06,7.52,9.9,8.59,1.86,2.36,4.02,5.52,4.52,8.55Z"/>
              </g>
            </g>
            <g>
              <path class="st0" d="M595.75,122.41c-1.34,3.63-4.61,18.51-2.49,20.53.78,1.36,6.13.23,5.19,2.46-1.13,2.69-5.33-.56-7.09.59-.33.21-.63,2.47-1.49,3.45-4.13,4.73-12.33.53-11.26-.86,2.42-.45,10.41-3.44,11.34-5.4.51-1.07-1.38-2.44-1.37-4.09,0-1.19,3.57-7.4-.03-6.76v-1.78s1.62-.2,1.62-.2c-1.23-3.35.94-2.59,1.66-3.71,1.01-1.59.95-4.53,3.92-4.21Z"/>
              <g>
                <path class="st0" d="M823.14,273.11c-.74,4.57-3.91,6.1-5.81,9.08-18.59,29.12-34.87,60.07-52.83,89.74-7.14,11.79-15.19,27.46-23.49,37.87-1.98,2.49-8.84,7.3-9.44,8.61-1.58,3.4,1.35,6.66.04,9.03-.63,1.13-2.36,1.3-2.93,2.06-1.14,1.52-1.8,6-3.11,8.17-3.85,6.37-7.81,13.64-11.74,19.85-4.46,7.06-4.92,3.73-7.27,13.48-.88,3.66-3.62,3.77-4.91,5.46-2.07,2.72-4.78,9.27-8.17,10.33-3.18.99-12.65,1.49-16.05,1.1-9.2-1.05-15.11-7.83-13.98-17.14,2.99-.16,3.13,4.97,4.8,6.93,2.34,2.75,7.09,3.57,10.54,3.88l-.91-2.69c5.97-.36,4.19-5.8,5.88-9.98.84-1.37,2.37.19,3.61.06,5.72-.63-2.53-7.9-3.02-10.61-.79-4.33,4.6-10.45-1.5-14.66-2.24,2.97-7.65,4.47-7.69-.55-.01-1.81,4-2,2.73-5.79l2.69.9-1.79-7.21,2.7.89-1.76-1.83-.05-1.32,1.88-.95-2.77-5.81,1.8-.9c-4.67,1.02-1.31-2.39-3.6-3.61.5,3.4-1.14,5.16-4.51,5.41-.16-2.78-1.58-4.59-4.52-4.5.88,1.86,2.21,4.25,2.37,6.31.15,1.93-1.14,2.48-1.06,3.67.32,4.72,4.7,11.69,5.04,14.91.18,1.7-1.82.76-1.95,2.59-.16,2.35.97,4.49,1,6.8-2.42.51-1.55-.64-2.24-1.78-1.4-2.32-6.26-13.8-7.23-6.34l-4.06-3.61c.31,2.79,1.46,8.79,2.72,11.03.58,1.03,2.03,1.22,2.89,2.73.77,1.35,1.89,5.06,1.64,6.52-5.04.36-2.23,4.78-5,7.67-6.3-5-3.48-12.79-4.03-19.42-.5-5.96-2.78-11.78-1.7-17.87l1.31-1.42,3.12.33c1,.69,2.41,8.8,4.45,6.81,3.24-6.19-.13-14.64-3.74-20.15-2.74-4.17-4.16-1.9-5.67-3.28-1.61-1.47-2.47-5.42-4.1-7.24l4.5-1.82c.17,2.77,1.76,4.21,4.08,5.39,7.98-14.66-10.95-25.03-13.13-38.28l1.84-.51c.36-1.57-1.37-.57-1.71-.97-.19-.23.95-6.01,2.7-2.26.86,1.85,1.4,4.78,1.73,6.85,1.64-.02,1.6-2.47,1.32-3.52-1.02-3.94-4.69-6.42-6.3-10l-.88,3.62c-.79.99-1.09,1.12-1.84,0-1.48-2.21-3.52-13.58-4.93-17.63-4.06-11.69-10.22-23.88-14.21-35.41-1.56-4.5.45-9.81,2.56-14.11,6.72-13.72,28.88-18.95,39.08-6.79,4.8,5.73,4.99,8.95,7.31,15.25,4.81,13.03,10.31,27.6,14.21,40.83,4.69,15.93,6.81,32.36,8.79,48.83l2.25.61c2.52-4.78,7.25-11.32,9.26-16.07,13.07-30.87,28.86-57.28,44.97-86.73,4.1-7.49,8.42-14.99,12.98-22.22.78-2.52-2.91-.55-3.59-1.78,2.2-4.92,7.73-4.09,10.12-7.92,5.83-9.32-9.62-1.14-11.03-6.96,3.77-.72,10.16,1.77,12.63-1.8-4.61-.21-5.72-3.01-10.09-3.87-3.36-.66-6.71.68-9.24.26-1.28-.21-2.21-1.54-2.95-1.65-.54-.08-6.74,1.18-10.57.66-6.71-.91-13.84-1.75-20.71-2.75-8.32-1.21-16.67-2.88-24.93-4.41-3.22-3,8.63-.76,8.12-2.69-1.63.2-2.89-.03-4.43-.54-30.29-9.98-45.19-17.24-71.58-34.71-1.39-.92-4.61-2.38-4.78-2.61-.28-.39.45-1.8.03-2.71-.64-1.36-3.09-2.79-4.25-4.82-9.15-15.97-13.68-26.41-10.59-45.27.35-2.12,1.79-3.03,2.21-4.59.6-2.23-1.11-6.83-.45-9.44l-7.2,6.78,1.79.43v1.8s-3.6.91-3.6.91c-.96-3.99,1.96-5.93,2.69-9.02l-2.69,1.8c.34-2.42,2.46-4.27,2.45-6.95-.01-1.94-2.09-3.75-1.62-5.98.19-.92,2.54-1.06,3.27-2.43s-.56-3.37.32-4.75c.7-1.09,3.33-1.36,2.89-4.21l6.22-.04-.92,1.79c3.55,1.37,4.34-1.38,5.23-1.71,3.3-1.23,11.01-3.7,13.3-6.38.55-.65.85-1.79-.03-1.84l-7.66.91.12-3.5c1.01-1.24,19.2-1.38,21.94-.95,14.15,2.21,27.03,31.51,32.8,43.02.31.62.08,1.75,1.53,1.13.98-.43,11.69-9.82,12.82-11.09,3.27-3.69,6.61-9.91,10.65-14.17,4.14-4.38,10.08-8.16,13.57-12.6,4.35-5.54,5.93-12.01,12.24-16.64s18.36-6.86,25.55-4.05c9.03,3.53,16.63,15.43,15.52,25.19-.3,2.61-5.14,16.37-6.64,18.71-4.23,6.62-9.56,6.72-13.71,10.65-1.34,1.26-1.57,3.3-2.73,4.49-2.99,3.08-6.77,5.77-9.51,9.45l-.89.03-.46-1.82c-2.35.33-.96,2.77-1.41,3.66-1.87,3.7-6.99,6.76-9.87,8.96-8.79,6.75-14.52,16.29-21.5,24.08-5,5.58-11.04,10.36-15.91,16.11-1.68,1.98-6.07,9.82-7.86,10.22-1.07.24-2.31-.66-3.31-.5s-2.78,1.97-4.6,2.49c-3.16.91-6.3,1.6-9.51,2.2,19.35,9.11,40.86,17.22,62.05,20.97,12.54,2.22,27.21,4.66,39.42,4.71,6.91.03,14.92.59,21.68.03,8.06-.68,12.5-4.01,21.23-1.35,6.99,2.13,12.46,9.31,15.32,15.81v12.63ZM736.52,101.66c-3.78-.36-8.18-.05-10.25,3.58-3.96,6.95-4.12,4.68-9.61,9.48-11.46,10.01-21.75,21.71-32.91,32.06-1.99,2.64,4.25,18.65,5.41,18.93.81.19,9.42-10.99,11.74-11.71,2.95-8.51,17.16-15.91,20.35-22.96.73-1.62,1.34-3.12.69-4.91-6.23-3.03-9.1-5.59.49-5.29l2.83,1.56c.82-3.5,2.22-.5,3.85-1.08,1.69-.61,2.59-5.27,1.99-7.04l-4.85.85c-1.99-1.18-1.87-2.34-.12-3.63,2.04-1.51,4.18.59,6.35.55,2.29-.04,13.18-4.03,13.05-6.35l-2.7-1.8,2.71-2.25-9.46,2.71.44-2.71ZM629.9,151.4c-5.66-1.07-6.39,7.13-6.97,11.27-.96,6.88-.84,19.01,1.25,25.6,4.2,13.24,15.04,18.79,25.7,26.18-2.27-4.96-4.8-9.93-7.35-14.75-.71-1.34-2.79-2.73-3.08-4.12s1.25-2.5,1.3-4.08c.17-4.91-2.77-13.52-3.5-19.03-.31-2.35.68-4.77.49-6.32-.21-1.71-7.21-11.75-7.85-14.75ZM614.7,172.04l.9-15.33c-1.28-.25-1.19,1.73-1.36,2.67-.64,3.58-.23,7.01-1.94,10.43l2.4,2.24ZM644.48,169.33c.91-5.35-2.47-7.34-6.3-9.92-.78.9,3.31,6.87,4.06,8.14.69,1.16-.17,2.28,2.24,1.78ZM649.91,190.99c6.54-.88-.81-13.47-3.6-15.89-1.44-1.25-3.79-.79-5.42-2.15-.11,4.09,2.2,6.89,3.97,10.01.6,1.07.4,2.71,1,3.54.86,1.18,4.51.5,4.06,4.49ZM792.84,255.54c-.53-.45-.18-1.52-.82-1.38-2.65,2.31-6.81,2.68-8.1,6.38-.35,1.01.19,1.96.05,2.94-.24,1.66-2.27,1.6.37,4.2-3.51,1.72-8.71,4.35-10.86,7.66-.94,1.44-.81,3.22-1.73,4.59-1.36,2.04-6.07,3.92-7.27,7.18,5.08,2.11-2.31,6.76-4.51,9.02,4.48,1-2.48,7.18-4.16,9.71-.28.43.25,1.77-.8,3.3-1.13,1.65-2.92,3.22-4.9,3.77-.82,1.17,2.65,4.39,2.23,6.3-1.1,4.99-10.36,8.2-5.89,14.36l2.68-.9.91,7.21c-1.01.9-7.07-.04-8.42.33-2.42.66-6.65,4.64-10.05,5.06-1.38,4.73,1.16,5.12,4.92,2.74l.02,3.61,2.25-1.79,1.36,3.61,2.69-.91-.2,4.39-1.59,1.01,4.91-.94.95,1.85c3.74-3.51,9.09-6.06,9.31-11.99l-3.35-4.52,3.97-6.03,3.6,4.49c2.24-2.41,6.96-10.27,7.27-13.45.19-1.89-3.55-3.93-1.89-6.41l2.29-.88-.9,2.69,3.16-2.7c.85,1.76.67,2.23,3.08,1.73.98-.64,3.47-10.23,4.55-11.92.6-.94,2.13-1.06,2.96-2.67,1.11-2.14.95-6.31,1.83-7.66.38-.58,2.06-.9,2.9-2.04,2.03-2.73,1.07-7.48,5.79-7.3l-.82-5.33c4.53,1.33,8.68-3.78,6.57-7.93-1.2-2.36-6.76-3.01.22-6.27l4.94,3.37-.52-4.56,3.24-.87-3.67-3.21,1.86-3.99c-.19-.13-4.14.28-4.55.53-1.48.92-1.54,3.83-3.1,3.06l-2.33-4.91,1.8-1.77c-.36-1.4-1.3-1.94-2.27-2.76ZM659.81,349.81c.38-4.61-.16-11.93-5.4-13.53l5.4,13.53ZM740.14,367.86l.44-8.13c-.18,4.42-4.24,6.85-4.1,11.24.06,1.78,1.22,3.54.97,5.41-.23,1.73-2.14,2.29-1.82,4.11,3.93-.99,3.01-3.48,4.11-5.31.64-1.05,8.51-11.96,4.45-11.82l-4.05,4.49ZM737.42,363.36c-4.01-1.97-10.79-.69-10.82,4.5,1.44.34.4-1.29,1.56-1.76.71-.29,5.42-1.1,5.65-.93-.65,1.25-1.09,4.26.89,4.5l2.71-6.3ZM669.74,381.4c-.7-3.48,2.13-11.32-2.69-11.73-1,4.43-2.12,9.11,2.69,11.73ZM724.53,385.25c-.21-.25-2.36-1.25-2.44-1.15,3.57,7.94-5.31,4.74-6.97,7.48-.51.84-.19,2.32-.76,3.26-.99,1.62-2.72,2.85-3.33,4.87-.39,1.28.35,3.08.21,3.26-.45.58-6.06,1.56-5.4,6.4-1.94-.68-1.58-.88-1.06-2.4,2.05-5.97,7.11-11.39,9.2-17.44l-5.4,4.5.85-5.34-2.57-.92c-2.05,5.42-8.1,10.69-8.3,16.63-.09,2.62.18,7.88,3.68,6.79v2.7s-1.8-.44-1.8-.44l1.82,15.78c1.36,1.65,3.08-3.92,3.19-4.52.43-2.4-1.15-3.6-1.04-4.96s3.42-3.77,3.28-5.86l3.58,2.7c-.09-2.04-.67-4.01,1.8-3.62v-.88c-3.13.43-1.58-6.41,1.76-4.56l.89-6.77c2.93-1.64,6.63,1.46,7.6,1.27s3.13-3.06,4.65-3.47l.89,3.58c1.5-2.64,5.14-6.35,4.52-9.02l-3.16,1.8,1.8-7.21h-1.79c-.81,2.13-4.32,8.01-5.84,9.12-1.42,1.04-2.87-1.26-3.76,1.71l-3.54-.88-.41-2.74,7.68-1.8c1.15-2.38,2.1-5.63.19-7.88ZM669.07,397.43c-.86-.89-.8-3.43-1.58-3.4.18,2.01-2.24,3.12-2.28,3.33-.49,2.77,2.26,11.65,3.57,14.34.57,1.17,1.86,3.22,3.22,3.12l.97-1.86,2.19.94c.98-2.57-.43-5.08.02-7.61.65-3.7,3.69-5.35-.03-10.43l-2.24,3.58c-.9-1.07-3.09-1.22-3.84-2ZM707.65,431.93c-1.38-1.45,12.28-19.48,11.72-23.46-2.78,4.02-7.4,9.22-9.79,13.21-.77,1.29-4.94,9.26-5.16,10.19-.86,3.66.48,7.24.97,10.88,1.42-1.32,2.56-2.92,3.56-4.56,1.36-2.23,3.8-6.89,3.67-8.97l-4.96,2.7Z"/>
                <path class="st0" d="M674.25,457.18c-1.28,3.64,3.44,5.28,3.55,7.62.07,1.47-1.18,3.36-1.29,4.97-.15,2.08,3.06,5.55-.9,8.17-5.18-3.01-1.95-6.07-2.41-9.28-.49-3.35-9.1-10.73,1.05-11.48Z"/>
                <path class="st0" d="M654.4,414.79l2.71,14.43c-1.66,1.97-4.12-5.05-4.29-6.08-.18-1.08-1.06-11.02,1.58-8.35Z"/>
                <path class="st0" d="M685.98,465.32c-6,.61-6.64-4.09-3.15-8.11l3.15,8.11Z"/>
                <path class="st0" d="M794.26,269.5c.85,1.42-6.65,6.96-7.2,6.31v-4.51s-1.81-.88-1.81-.88l9.01-.91Z"/>
              </g>
              <g>
                <path class="st0" d="M541.62,320.03c-.4.25-1.35-.01-2.27.9-1.9,1.9.53,6.41-4.05,5.42l.11,1.23c3.18,8.63,7.44,17.48,8.02,26.75l1.67-.79c3.12,5.63,4.31,11.79,7.43,16.94,3.79.93,5.84-3.07,8.94-4.43,1.27,1.39-6.91,7.61-1.81,7.21.86-4.45,10.22-6.21,8.14-10.78l5.41-.03c.52,2.83-1.99,4.11-3.6,5.86-.14.67.94.62,1.34.44.73-.33,10.22-10.34,10.98-11.55,3.23-5.13,3.99-11.41,6.73-16.75,4.66-9.08,13.52-14.44,23.76-15.03,6.26-.36,9.87,1.16,14.47,5.45,3.34,3.11,8.46,12.24,8.61,16.72.07,2.01-5.76,18.37-6.6,19.14-.73.66-3.78,1.45-5.59,2.97-9.48,7.97-20.32,17.29-29.36,25.68-9.25,8.58-22.11,19.42-25.22,31.66-3.37-1.26-6.02,4.39-9.12,6.19-9.46,5.49-23.68-.71-29.71-8.96-3.66-5.01-4.22-8.97-3.38-15.11,1.08-7.87,7.87-12.4.69-20.11-1.22-1.31-6.88-2.91-3.88-4.05h2.05s0-1.34,0-1.34c-1.54-2.29-1.33-5.29-2.25-7.69-.96-2.52-4.92-5.09-1.38-6.3l.9,1.8v-4.5c3.42,1.78,7.06-2.94,7.22,1.8h-3.6c1.38,1.93,2.7.22.9,3.61l4.51-.9.9,2.71c1.55-3.86-3.65-7.93-.44-10.81l7.27,15.37c4.47-.5,6.47-4.79,9.12-7.7l-11.53-30.2c-3.87-.74-3.2,2.03-6.21,2.65-.42-5.68,4.52-7.96-1.8-12.19l1.79-.43c-1.87-2.15.42-10.33-.04-10.81-.19-.19-3.49.46-3.51-2.69l1.75-.94c-5.54-.84-2.88-14.46-9.91-11.74l-1-7.19c-2.68,1.22-4.64-1.67-7.44-1-4.4,1.06,5.4,14.23.31,14.93l2.71,7.69-4.97-4.5-.44,2.7-2.65-.83-.94,1.73c-.21-2.84-2.24-5.97.45-8.11l2.23.45c-4.35-2.03-4.14-8.86-5.86-11.26-.69-.96-8.51-4.36-9.97-6.3l-1.74,1.77c-1.94-3.02-5-2.65-8.11-3.59-4.18,5.44,4.79,5.3,5.85,6.31,2.15,2.05-2.63,1.41-3.14,1.78-1.6,1.19.53,4.03,1.32,3.61,1.5-6.08,6.95,1.2,2.68,3.19-1.31.61-2.95-1.5-2.71,1.25l-1.3.07c-2.2-2.45-3.74-6.69-7.68-6.31,1.76,3.54-.96,2.71-1.81,4.31-.75,1.4-.11,3.54-.61,4.71-1.2,2.83-3.95,5.58-5.16,8.21-1.71,3.73-4.64,14.92-7.3,17.1-2.11,1.73-3.75,1.21-5.73,5.07-2.69,5.26-6.76,19.28-10.01,23.15-.92,1.09-2.82.58-3.67,1.97l1.8.89c-4.6.89-5.33,10.88-6.51,12.04-.46.45-2.06-.34-2.54.72-.54,1.2-.31,4.21-.96,5.93-4.6,12.13-10.2,24.46-16.98,35.72-1.61,2.68-1.89,6.74-5.49,8.83l-2.7-1.42c-1.1,2.79,1.98,2.32,1.69,3.86-1.33,7.01-8.24,12.98-8.15,20.38l-7.09,1.94,2.76,3.2c-.66,3.88-5.61,8.52-6.21,11.91-.43,2.44.96,4.46.62,5.92-.54,2.32-4.29,2.64-5.3,3.76-4.72,5.24,9.49,26.89-5.39,23.92v2.72c-2.8.74-.99-2.76-4.06-1.84-.35.1-2.21,4.13-5.91,3.16l.03,3.15c-3.58-.16-5.37,3.32-6.32,6.35l-1.75-.06-.42-1.68-3.18.82-2.76-6.28-2.23,1.79-4.08-8.11,2.72-.02c-2.41-1.82-.95-4.23-1.41-5.44-.65-1.7-3.98-2.51-4.04-3.2-.03-.33,1.41-5.72,1.68-6.33,1.38-3.12,8.74-6.65,10.52-8.5,3.17-3.29,1.05-4.58,7.67-9.52,1.14-.85.39-3.07,2.72-2.19l-.91,2.69c4.87-.49,3.68,6.71,7.95,4.33,2.26-1.26,8.59-18.01,11-21.02-2.84-2.28-5.5,1.75-7.66,1.87-3.09.17-5.37-2.98-7.67-4.57,1.14-2.25,5.29-3.89,6.36-5.37s.78-3.5,1.56-4.76c3.83-6.22,10.26-11.93,7.41-20.1,7.38,1.78,3.15-7.77,3.62-8.12,1.98-1.49,1.74,2.06,2.25,1.79,1.66-1.62,1.17-4.45,4.05-4.55.48-.61-7.51-9.92-4.05-12.59l3.15,4.5c.86-3.34,2.37-9.58,5.37-10.88l-.38-1.77-3.19-2.24c.44-3.17,3.67-4.12,4.35-5.18.26-.4,1.8-7.76,2.09-9.14,3-14.18-.24-10.44-2.38-21.3-.3-1.53-.57-7,.43-7.73l2.72-.41.93,3.6c1.65.2.77-1.92.65-2.9-.3-2.35-1.14-4.69-1.57-7.01l-.9,3.6-.9-1.8-3.15,1.84-2.2-1.5,1.75-8.47,1.79.91c.46-2.87-1.32-6.67-4.5-5.42-.32-3.5,4.72-2.54,3.59-6.31l-4.5,1.8c-.99-.86,2.63-4.54,3.6-2.7.61-.9-2.49-15.5-6.31-13.55l1.79-2.25-1.77-1.35-1.81,2.71.88-4.51c-4.68,2.54-1.29,6.96.03,10.83l2.25-.9.44,1.78-3.5,1.47-.12,8.46-2.74-.41-.87-9.51-2.69,2.7c-1.04-1.09,0-5.06-.17-5.26-.38-.43-1.89-.52-2.58-1.45-1.9-2.57-1.14-5.81-6.29-5.03.87-2.57,4.59-1.91,3.6-5.4-1.17-.52-.97,3.79-2.69,1.8-.78-.9,1.47-2.5,1.49-3.14-2.29-2.5-1.88-6.46-3.41-8.97-1.4-2.29-6.23-8.91-8.45-10.45-1.6-1.11-2.92-1.93-4.97-1.81l3.62-8.13,1.79.92c-1.32-2.5,1.4-9.15-3.16-9.07-1.63.03-2.19,1.83-3.13,2.21s-3.82-.32-5.3.44l-1.94-5.32c4.61,1.44,5.61-1.74,8.1-4.04l-7.22-13.58,1.75-.47.06-1.75c-6.05-.32-3.91-5-5.15-7.87-.67-1.55-2.47-2.51-3.31-3.98-1.07-1.88-5.42-11.1-6.17-11.52-.68-.38-2.38,1.57-3.38-.54,2.99-5.08-1.51-6.09-4.53-9.05l1.79-2.23c-.75-.05-1.85.18-2.44-.24-.36-.26-5.24-6.12-5.69-6.76-6.92-9.9-10.02-23.1-19.82-32.28-.93-.87-4.19-3.71-5.45-2.71l-6.29,15.18-2.71.63,6.27-18.91-18.91-3.66c-.39-2.19.28-1.48,1.72-2.17l-2.62-9.1c2.13-1.27,3.67,3.65,6.31,4.53l-1.82,1.8c-.21.89.31,1.35.96,1.77.92.59,15.39,5.29,17.01,5.55,1.32.21,2.19,1.14,1.89-.99l-5.85-7.67-2.25,1.79c1-3.23-4.07-12.05-6.29-14.03-1.32-1.17-3.34-1.22-3.52-1.42-.61-.7.47-3.57-.59-5.29-1.8-2.93-6.15-3.72-7.43-4.75-.71-.57-3.15-6.3-4.35-7.84-3.49-4.47-7.18-6.9-11.67-9.98-3.24-2.22-1.82-4.6-6.76-1.81.56-3.17-3.85-4.33-2.31-7.25,3.15-1.95,5.61-5.69,8.68-7.58s5.97-1.95,8.51-4.12c.43,4.19,5.85,4.52,8.89,6.44,10.62,6.68,17.08,18.73,25.88,27.21,3.23,3.11,1.48,1.52,3.87,5.31,4.14,6.55,11.32,13.24,15.94,19.7-1.04-8.64-8.17-14.21-13-20.83-1.86-2.56-8.41-11.64-8.7-13.86-.72-5.44.54-17.92,3.76-22.51.77-1.1,11.88-8.1,13.68-8.88,1.84-.79,8.21-2.64,10.13-2.59,4.94.12,8.94,4.44,13.99,3.7l-.55,2.74c3.79.87,5.67,6.07,7.9,9.34,3.35,4.91,1.47,4.11,2.92,7.4,1.21,2.74,6.52,5.52,6.81,5.9.16.22-1.15,2.66,1.3,5.01,26.3,25.21,66.06-1.57,91.97-13.44,1.62-.74,6-.94,8.66-2.16,5.33-2.45,13.11-8.67,18.68-10.21,1.69-.46,1.34.43,1.25,1.71-1.6.14-10.56,5.71-9.01,7.23,3.03-1.91,6.92.71,9.33-.11.53-.18,4.06-4.13,4.05-4.99-.03-1.7-2.04-2.11-1.65-3.92,4.51.72,6.73,1.42,10.32-1.87.48-.44.27-1.9.74-2.4.51-.55,11.32-4.59,13.08-6.73.52-.64,1.19-4.48,3.35-7.1,7.17-8.71,19.29-18.25,31.39-14.33.8.26.68,1.75,1.19,1.76,1.94.05,4.72-1.94,7.58.02.46.67-.77,2.86-.72,4.01.29,6.71.29,13.12-.22,19.76l1.88,1.8-2.29,5.07-1.34-2.7-.02,4.51-1.59-.64c-1.99,2.62-5.12,6.81-3.93,10.18.46,1.31-.28,1.55,1.92,1.29l.84-4.13,3.67.06c-3.13,1.49-3.04,2.46-2.7,5.87-5.32-1.17-8.65,4.33-9.83,8.68-.46,1.7.4,1.3,1.69,1.24l2.72-3.6c-2.4,3.04.96,6.56.82,7.54-.25,1.68-3.5,2.65-4.15,3.55-1.21,1.69-.31,4.42-.79,5.16-1.06,1.65-5.28,4.23-5.73,7.75l1.74,1.7-3.65,5.41,1.89.92c-2.88,5.81-7.16,22.73-12.37,25.63-1.84,1.02-5.88.92-7.95,1.83-4.13,1.82-7.42,5.14-12.19,5.92,7.24,4.79,13.85-3.01,20.74-4.96.41,4.85-4.56,2.97-6.31,6.31,2.31.2,3.49-1.53,5.82-1.84,5.06-.69,24.26-.44,28.67,1.19,3.64,1.35,3.32,1.33,2.51,5.16l4.5-1.8-.48,9.97,10,4.44c1.92.34,1.04-.26,1.34-1.27.38-1.28.8-6.75,2.23-6.8l.83,4.55,3.17.92.05,2.64c-3.35-3.25-.33,6.22-.04,6.74.39.72,1.79-.55,2.33.39.28,11.97,8.47,18.59,14.07,27.59,3.62,5.84,4.88,9.7,10.82,15.26,6.32,5.91,15.55,9.18,18.85,16.79-2.6-1.8-4.23-2.02-7.2-.89l-.45-2.71-1.37,3.61h-1.79s-.9-2.7-.9-2.7v6.32s1.77-.91,1.77-.91c-.71,2.45,2.77,3.85,2.79,4.12.13,1.92-3.43,8.85-1.87,12.12l-3.59-1.79c-2.41,2.97-3.6,13.28-5.65,15.11-1.07.95-2.91.59-4.03,1.4-2.63,1.89-5.06,9.13-10.19,7.86l.87,2.59c-3,1.6-7.35,3.75-8.08,7.33-5.13-.07,3.8-7.21,4.51-9.02-5.64,1.11-7.54-2.34-10.38-6.32l-3.61,2.68c-2.4-1.31.14-2.97-.47-4.85-.41-1.25-2.27-1.13-3.29-1.79-.5-.33-.26-1.41-.32-1.45-.79-.52-3.51,4.38-5.4,3.59l4.5-6.31-3.15,1.83-.89-1.84-14,10.84c-2.31-2.63,10.75-9.61,12.17-11.77.48-.74-.33-3.26,1.36-4.46-3.5-1.43-4.52,1.53-5.18,1.74-3.24,1.01-5.82.71-9.39,2.88-2.2,1.34-3.34,4.39-6.07,5.93-2.12,1.19-3.33.43-4.39.93-1.96.92-2.35,4.23-5.64,3.86-.49,2.34.58,1.34,1.81,2.23l-1.94,3.09c-6.18-2.89-6.71,3.92-1.67,3.69.53,1.61-1.42,2.18-1.49,3.14-.04.48,2.79,8.58,3.23,9.09,2.27,2.58,4.55.72,7.28.41-1.55,2.51-4.45,3.6-3.6,7.21l1.77-3.24,3.63-.36c.15,1.25-.81,2.48-.89,3.61ZM538,93.53c1.3-7,6.6-14.25,7.17-21.32.21-2.62.14-4.12-2.21-5.73-1.83-.36-1.98,4.78-2.13,5.97-.21,1.67-.08,8.82-.34,9.2-2.56,3.72-3.32,2.63-3.32,8.72,0,1.08-.8,3.36.83,3.17ZM526.28,78.18l.89-3.6c-.8-.01-1.32.83-1.69,1.46-.39.66-5.18,12.82-5.26,13.54-.13,1.24.72,2.64.65,3.94l.9-2.71h2.71c-1.05,6.99,2.75,2.97,3.39-1.56.55-3.86-.42-7.75,1.13-11.5l-2.72.43ZM522.67,97.15c-1.72-1.89-4.04,6.7-4.52,7.2-2.93-1.25,1.14-4.54.91-6.31-1.35.39-2.21,1.83-2.89,2.97-2.37,3.97-7.83,15.87-9.47,20.31-.37.99-2.4,8.87-2.07,9.2,3.54.38,5.02-1.97,6.77-4.5l1.34,1.8,1.13-4.35c4.28-.1,1.64-.77,1.9-3.17.37-3.43,1.58-1.6,2.38-2.06,1.33-.77,1.78-2.49,3.62-2.14l.89,2.71,2.73-7.65-3.62.44c.09-1.71,1.06-3.23,1.01-4.99-.05-1.65-1.76-1.2-1.92-1.94-.53-2.4.88-5.31,1.81-7.5ZM477.17,178.9l27.45-69.12-29.33,18.03c-1.13.36-1.79-.21-1.33-1.33.94-2.25,6.06-3.15,5.4-6.78-3.66,2.37-8.16,3.24-9.02,8.11l2.71,1.35c-3.57,3.96-8.79,4.73-13.31,7.47-10.9,6.62-22.54,14.39-33.01,22-8.7,6.33-10.86,6.95-21.58,9.85-.77.21-.64,1.56-1.3,1.71-3.35.81-7.72-.49-11.1-.87-.62.67,4.99,14.85,5.87,17.13,2.77,7.16,2.06,5.93,3.55,12.62.46,2.07,3.12,7.86,4.18,10.15.5,1.08,2.91.3.83,3.84l1.35,1.35,2.25-1.79c.07,2.29-1.81,2.83-1.43,5.43,2.07,14.12,13.38,35.12,17.27,50.47,2.42,9.55,4.16,18.5,6.62,27.67.9,3.34,1.19,6.82,1.01,10.27,4.31-.01,3.24-5.6,3.94-7.5,3.84-10.52,20.22-50.39,19.44-58.71-1.3-14-5.98-12.5.69-27.42,1.64-3.66,3.06-10.01,4.92-13.18,1.63-2.79,6.24-6.03,7.74-8.04,1.88-2.54,4.74-9.64,6.2-12.74ZM468.53,126.93c-4.36.48-7.22,3.44-10.83,4.52,2.27,8.83-2.7.93-3.15.9-.39-.02-3.82,4.2-5.03,4.88-1.36.76-6.85,2.64-8.61,3.14s-1.32-.43-1.25-1.7l8.12-5.42-9.2,1.89-5.23,6.22c6.15-1.9,4.71.55,6.47,1.7.3.19,4.01-.87,5.26.11l-.92-1.79,4.52-.02-.9-2.69c5.05,1.71,14.6-4.7,18.47-8.15,1.11-.98,2.57-1.85,2.27-3.58ZM510.04,172.05c-6.68-1.54-8.83-1.8-13.89,2.39-1.78,1.48-3.26-.63-2.36,5.72l-1.8-5.41-1.93,2.58c-4.76-1.79,2.13,3.43,2.84,5.53-6.76-2.72-1.93,6.55-2.04,7.69-.03.29-2.52,4.28-3.27,4.44l.8,5.92c4.61-.62,3.99-4.22,1.79-7.21l2.71-.02-1.8-1.34c3.99-1.43,1.43-2.78,2.21-4.06,1.94-3.18,7.17-8.58,9.46-11.09.92-1.02,2.34-1.37,3.23-2.45l.89,1.8,3.16-4.5ZM559.65,218.06c-.54.35-5.68-4.48-7-5.16-5.01-2.58-18.68-6.73-24.1-6.6-2.72.07-.44,1.21-.77,3.07-.13.76-1.1,1.3-1.08,2.45.18,8.63,10.91,21.41,12.22,30.62l2.69-.91c-.83,11.78,7.83,21.11,11.88,31.43.68.41,4.59.38,5.56.14.69-.18.53-1.68,1.23-1.8.96-.17,2.13.72,3.67.31,1-.27,3.87-3.66,2.95-5.06l2.25-.67.63,1.56,1.61-.64c-.42,11.28,2.74,5.47,6.62,6.44,1.88.47,2.46,4.72,5.5,4.36l1.42-1.77-1.8-.9,1.8-.9c-3.34.32-2.02-4.3-2.86-5.26-.56-.65-4.07-.44-5.05-1.27-1.19-1.01-.72-5.91-3.37-7l-1.37,3.84-2.68.65c.54-2.53,1.33-6.24,4.51-5.41.9-2.39-1.56-1.42-1.82-2.38-.86-3.13,1.13-6.27,3.18-8.44l.89,1.8c2.79-1.04-1.8-6.81-2.68-9.04-1.44-3.63-2.34-8.28-3.9-11.44-1.58-3.21-7.27-8.21-8.3-10.66-1.65-3.92,6.83,1.82,6.78,3.16h1.31c2.09-7.23,5.22,2.89,9.04,1.37-1.57-2.4-4.55-3.59-6.36-5.4-.95-.96-.25-2.76-1.96-3.46-1.39-.57-7.29.1-8.85.71-2.39.94-1.64,2.19-1.78,2.28ZM558.77,209.93c-1.4-2.98-5.13-3.67-8.13-3.59-.57,2.22,3.32,5.06,4.98,5.41.19.04.89-2.83,3.14-1.82ZM528.99,242.42c-3.15-7.2-8.27-11.45-12.63-17.64-2.89-.23-3.37,1.75-2.67,4.37.18.67,1.48.65,1.69,1.35.92,3.04,1.45,6.91,1.92,10.09l11.69,1.84ZM581.32,234.32l-6.31-2.72.03,3.55c4.72-.33,1.48,1.05,2.15,3.69,1.05,4.14,4.25,3.19,4.13-.93-1.79-.04-3.22.72-2.71-1.81l2.71-1.8ZM490.89,236.33c-.4-.44-1.57-.48-2.07-1.08l-4.04,4.47h5.41c.63,3.43-1.76.61-2.71,1.33l-.89,6.79,2.25-2.68c5,3.48-1.23,7.94,4.94,10.35l-.89,2.27-1.79-.91c.75,1.21.05,3.43.2,4.07.15.58,1.56.4,1.64,1,.19,1.43-1.27,3.36-.99,5.16.11.68,1.62.55,2.11,1.71.9,2.13,2.61,9.51,3.77,10.65,1.29,1.26,4.3.64,5.49,2.68l-1.47,3.99,4.5,2.47-.43,3.49,6.82.88c.69-.69-4.4-14.85-5.24-16.87-1.18-2.83-3.75-6.02-5.12-9.31-1.99-4.76-2.42-9.85-5.04-14.39l-1.73.87c1.85-3.9-1.17-5.92,0-9.03h-2.73c1.25-1.27-1.19-7.02-1.99-7.91ZM515.19,244.56c-.3-.33-2.36-1.34-2.43-1.23,2.52,15.89,5.18,33.61,15.35,46.52,11.38-1.27,19.76-10.83,12.6-21.73l1.88-.92c.11-1.82-6.15-14.81-7.46-15.57-1.1-.63-3.03-.03-4.34-.19l-.09-5.32c-2.41.9-7.48-3.96-9.43-1.04-3.17,4.77,3.38,5.55,3.2,5.91-1.79.03-2.67,6.52-4.51,4.96-.09-.07.56-1.08.06-2.25-.89-2.11-3.42-7.56-4.84-9.15ZM580.79,251.05c-.63-.69.04-1.7-1.26-1.4v10.82c3.4-2.14,4.91-3.48,9.01-1.81l-1.76-4.09-6.35-.42,1.79-.9v-1.78c-.5,0-1.09-.04-1.43-.42ZM484.58,271.13l-1.16-2.55-2.2,3.17-2.76-.45v3.6s2.7.01,2.7.01l-.82,4.12,1.73.82-3.6,1.8,5.88,4.98.47-1.75,7.17,5.35c-1.15-2.94.26-4,1.81-6.31h-3.61c.49-4.29-1.4-7.06-2.82-10.68l-4.4-.17c-.84-2.37,1.37-1.6,1.61-1.97ZM593.95,275.81c-3.61-.48-1.83,3.82-2.01,5.68-.28,2.83-3.52,5.16,2.91,6.06l2.71-10.83-3.59,2.71v-3.61ZM447.62,320.74c.97-.57,5.96-8.34,6.63-10.03,1.04-2.61,2.02-4.9,1.64-7.83l-10.81,17.6c.13.86,2,.56,2.54.25ZM438.75,346.21c-1.75-1.64-7.07,3.66-7.19,4.24-.67,3.28-.6,9.08-1.29,11.99-.66,2.79-3.73,6.38-4.8,8.82-1.57,3.58-1.52,11.18-6.49,11.11l-.07,6.24c2.42.51,1.55-.63,2.24-1.78,6.96-11.59,9.63-21.96,14.86-33.9,1.05-2.41,3.53-3.57,2.74-6.72ZM404.46,422c4.08-10.26,10.24-19.67,12.64-30.67-3.81,1.69-2.83,6.11-7.31,6.9.02,5.54-.05,2.75-2.31,4.2-.54.34.06,1.64-.75,1.54l-2.24-1.81-.9,6.31.9-2.7c3.99,2.12-.19,6.89-.83,10.46-.18,1.01-.84,5.61.81,5.78ZM386.43,451.78c1.88.15,3.14.14,4.56-1.3,1.28-1.29,11.27-21.89,11.5-23.71.27-2.14-1.36-5.01-.73-7.46l-15.33,32.47ZM396.36,451.78c6.08-3.33,9.71-10.44,8.1-17.14l-2.84,3.91-5.26,13.23ZM355.76,488.78l11.7-4.96c-2.37-4.64-13.29,3.31-11.7,4.96ZM362.96,498.71c1.33-1.41-6.98-7.1-8.11-7.68-2.06-1.07-4.24,1.6-1.55,3.38,3.25,2.15,6.52,2.27,9.65,4.3ZM362.5,503.65c-.4-.58-.62-2.21-1.35-.87l-2.7,3.15,1.82,6.31,1.05-2.58,2.61-.61c.48-3.17-.02-3.39-1.43-5.4Z"/>
                <path class="st0" d="M583.13,304.69c2.09-1.28,4.69-4.7,7.21-4.07l-15.33,14.45,2.69-.45c.13.84.1,1.14-.42,1.82-.48.62-12.31,8.43-13.07,8.62-1.71.44-3.24-.79-4.83-.54-.32.05-.7,1.77-3.23,2.33-4.03.9-10.78,1.85-13.63-1.86l3.6-1.34c-2.02.39-4.65-1.77-4.51-3.62,3.89-2.45,7.09-3.23,11.73-3.61,1.05.96-4.16,4.27-1.79,6.31,1.25,1.08,3.25-2.39,4.07-2.7,1.92-.71.23,2.65,4.27,1.58,1.96-.52,11.25-9.77,14.3-11.88,2.8-1.94,6.02-3.26,8.94-5.05Z"/>
                <path class="st0" d="M255.04,103.12c1.69,2.05,3.9,2.99,3.26,6.67l2.72-.53.89,4.13,1.79-.92v2.73s2.71-.9,2.71-.9c-3.04,5.19,4.69,7.03,5.42,12.62-1.34,1.38-9.81-8.14-8.13-10.82l-.9,2.7-3.61-2.28-1.79,3.18,3.6.46-3.02,2.19c-7.65-5.02-11.9-9.14-11.41-18.87,4.17-.73,5.48,3.93,9.02,4.49-.46-3.19-6.53-4.74-7.22-5.42-2.15-2.14,4.47-1.92,5.02-2.48,1.11.14,1.01,2.29,1.64,3.05Z"/>
                <path class="st0" d="M531.69,344.4l.91,8.12c2.47.28,3.32-2.59,3.62-4.51,4.02,2.83-.46,3.75-1.27,6.5-.44,1.51.51,3.73-.02,4.37-.67.81-2.41.54-2.99,1.1-.69.67-.25,2.68-1.6,3.37l-.49-2.65c-3.61-.61-5.32.3-6.72,3.55-4.04-3.66,1.79-4.31,3.15-7.21l-3.57-.05-.48-4.53,4.46-2.65,1.83,2.71c2.07-.64-1.02-8.7,3.16-8.12Z"/>
                <path class="st0" d="M376.5,457.2l.09,4.46,2.61.49c-1.56,1.64-1.63,5.24-4.5,4.97.86-3.09-2.98-3.16-2.76-4.92.03-1.07,3.45-6.32,4.55-5.01Z"/>
                <path class="st0" d="M541.63,295.65c.12.16,2.67-.2,1.8,2.72,1.12,1.14,7.84-5.11,6.3-1.36-1.23,2.99-5.64,2.81-6.99,3.52-.88.47-1.65,3.2-2.92,3.25l-.15-2.59-2.56-.12c-.33-4.09,3.42-6.39,5.87-9.01,1.73,1.2-1.81,3.01-1.35,3.59Z"/>
              </g>
            </g>
          </g>
        </g>
      </g>
    </g>
  </g>
</svg>